SplineFontDB: 3.0
FontName: Andada-Regular
FullName: Andada
FamilyName: Andada
Weight: Regular
Copyright: Copyright (c) 2011, Huerta Tipografica (www.huertatipografica.com.ar), with Reserved Font Names "Andada", "Andada Pro" and "Andada HT"
Version: 001.001
ItalicAngle: 0
UnderlinePosition: -50
UnderlineWidth: 50
Ascent: 800
Descent: 200
sfntRevision: 0x00010042
LayerCount: 2
Layer: 0 1 "Back"  1
Layer: 1 1 "Fore"  0
NeedsXUIDChange: 1
XUID: [1021 288 713564382 5901014]
FSType: 0
OS2Version: 2
OS2_WeightWidthSlopeOnly: 0
OS2_UseTypoMetrics: 1
CreationTime: 1317405534
ModificationTime: 1317402011
PfmFamily: 17
TTFWeight: 400
TTFWidth: 5
LineGap: 0
VLineGap: 0
Panose: 2 0 0 0 0 0 0 0 0 0
OS2TypoAscent: 942
OS2TypoAOffset: 0
OS2TypoDescent: -235
OS2TypoDOffset: 0
OS2TypoLinegap: 0
OS2WinAscent: 942
OS2WinAOffset: 0
OS2WinDescent: 235
OS2WinDOffset: 0
HheadAscent: 942
HheadAOffset: 0
HheadDescent: -235
HheadDOffset: 0
OS2SubXSize: 700
OS2SubYSize: 650
OS2SubXOff: 0
OS2SubYOff: 140
OS2SupXSize: 700
OS2SupYSize: 650
OS2SupXOff: 0
OS2SupYOff: 477
OS2StrikeYSize: 50
OS2StrikeYPos: 250
OS2Vendor: 'gwf '
OS2CodePages: 20000193.01000000
OS2UnicodeRanges: a00000af.4000205b.00000000.00000000
Lookup: 4 0 1 "'liga' Standard Ligatures in Latin lookup 0"  {"'liga' Standard Ligatures in Latin lookup 0 subtable"  } ['liga' ('latn' <'dflt' > ) ]
Lookup: 258 0 0 "'kern' Horizontal Kerning in Latin lookup 0"  {"'kern' Horizontal Kerning in Latin lookup 0 per glyph data 0"  "'kern' Horizontal Kerning in Latin lookup 0 per glyph data 1"  "'kern' Horizontal Kerning in Latin lookup 0 kerning class 2"  "'kern' Horizontal Kerning in Latin lookup 0 kerning class 3"  } ['kern' ('latn' <'dflt' > ) ]
MarkAttachClasses: 1
DEI: 91125
KernClass2: 6+ 10 "'kern' Horizontal Kerning in Latin lookup 0 kerning class 2" 
 89 A Agrave Aacute Acircumflex Atilde Adieresis Aring Abreve Adotaccent Acaron Ahungarumlaut
 37 U Ugrave Uacute Ucircumflex Udieresis
 3 V W
 18 Y Yacute Ydieresis

StartChar: numbersign
Encoding: 35 35 4
Width: 560
Flags: HMW
HStem: -15 21G<176 176 348 348> 150 66<22 140 22 22> 341 67 552 20G<207 207 379 379>
LayerCount: 2
Fore
SplineSet
385 219 m 1,0,-1
 517 221 l 1,1,-1
 517 150 l 1,2,-1
 374 150 l 1,3,-1
 348 -15 l 1,4,-1
 288 -5 l 1,5,-1
 312 150 l 1,6,-1
 202 150 l 1,7,-1
 176 -15 l 1,8,-1
 116 -5 l 1,9,-1
 140 150 l 1,10,-1
 22 150 l 1,11,-1
 22 216 l 1,12,-1
 151 217 l 1,13,-1
 170 338 l 1,14,-1
 42 337 l 1,15,-1
 42 408 l 1,16,-1
 181 408 l 1,17,-1
 207 572 l 1,18,-1
 267 562 l 1,19,-1
 242 408 l 1,20,-1
 353 408 l 1,21,-1
 379 572 l 1,22,-1
 439 562 l 1,23,-1
 414 408 l 1,24,-1
 537 408 l 1,25,-1
 537 342 l 1,26,-1
 404 340 l 1,27,-1
 385 219 l 1,0,-1
231 339 m 1,28,-1
 212 218 l 1,29,-1
 323 219 l 1,30,-1
 342 340 l 1,31,-1
 231 339 l 1,28,-1
EndSplineSet
EndChar

StartChar: ampersand
Encoding: 38 38 5
Width: 725
Flags: HMW
HStem: -10 60<235.5 312.5 235.5 318> 0 21G<581.5 602.5> 613 49<276 324>
VStem: 50 89<155.5 225 155.5 234> 122 88<500 550 475.5 573> 496 65<259.5 279.5 241.5 284.5>
LayerCount: 2
Fore
SplineSet
395 514 m 2,0,-1
 396 540 l 2,1,2
 396 549 396 549 391.5 565 c 128,-1,3
 387 581 387 581 386 588 c 1,4,5
 352 613 352 613 307 613 c 128,-1,6
 262 613 262 613 236 588.5 c 128,-1,7
 210 564 210 564 210 522 c 0,8,9
 210 459 210 459 281.5 375 c 128,-1,10
 353 291 353 291 480 176 c 1,11,12
 496 218 496 218 496 279 c 0,13,14
 496 294 496 294 491.5 311.5 c 128,-1,15
 487 329 487 329 486 339 c 1,16,-1
 419 348 l 1,17,-1
 424 401 l 1,18,-1
 445 398 l 1,19,20
 471 396 471 396 515.5 396 c 128,-1,21
 560 396 560 396 635 406 c 1,22,-1
 640 351 l 1,23,-1
 567 339 l 1,24,-1
 564 322 l 2,25,26
 561 304 561 304 561 267 c 0,27,28
 561 194 561 194 529 132 c 1,29,-1
 559 104 l 2,30,31
 564 99 564 99 623 56 c 1,32,-1
 695 51 l 1,33,-1
 689 -4 l 1,34,-1
 663 -2 l 2,35,36
 629 0 629 0 603 0 c 128,-1,37
 577 0 577 0 559 -2 c 2,38,-1
 542 -4 l 1,39,-1
 521 34 l 1,40,-1
 484 70 l 1,41,42
 404 -10 404 -10 276 -10 c 0,43,44
 180 -10 180 -10 115 44.5 c 128,-1,45
 50 99 50 99 50 190 c 0,46,47
 50 313 50 313 175 386 c 1,48,49
 122 461 122 461 122 527.5 c 128,-1,50
 122 594 122 594 171.5 628 c 128,-1,51
 221 662 221 662 299 662 c 128,-1,52
 377 662 377 662 462 631 c 1,53,-1
 449 491 l 1,54,-1
 394 494 l 1,55,56
 394 507 394 507 395 514 c 2,0,-1
441 112 m 1,57,58
 281.949152542 257.796610169 281.949152542 257.796610169 211 338 c 1,59,60
 139 283 139 283 139 197 c 0,61,62
 139 134 139 134 177.5 92 c 128,-1,63
 216 50 216 50 277 50 c 0,64,65
 384 50 384 50 441 112 c 1,57,58
EndSplineSet
EndChar

StartChar: quotesingle
Encoding: 39 39 6
Width: 159
Flags: HMW
HStem: 513 21G<111 111> 736 20G<35 124 124 124>
VStem: 53 64
LayerCount: 2
Fore
SplineSet
35 756 m 1,0,-1
 124 756 l 1,1,-1
 111 513 l 1,2,-1
 53 516 l 1,3,-1
 54 610 l 1,4,5
 49 655 49 655 44 690 c 2,6,-1
 35 756 l 1,0,-1
EndSplineSet
EndChar

StartChar: parenleft
Encoding: 40 40 7
Width: 271
Flags: HMW
HStem: -135 21G<229 229> 749 20G<229 229>
VStem: 50 82<249 385 249 402.5>
LayerCount: 2
Fore
SplineSet
132 317 m 128,-1,1
 132 161 132 161 191 3 c 0,2,3
 197 -14 197 -14 218.5 -46.5 c 0,4,5
 240 -79 240 -79 261 -109 c 1,6,-1
 229 -135 l 1,7,8
 50 44 50 44 50 317 c 128,-1,9
 50 590 50 590 229 769 c 1,10,-1
 261 743 l 1,11,12
 240 713 240 713 218.5 680.5 c 0,13,14
 197 648 197 648 191 631 c 0,15,0
 132 473 132 473 132 317 c 128,-1,1
EndSplineSet
EndChar

StartChar: parenright
Encoding: 41 41 8
Width: 271
Flags: HMW
HStem: -135 21G<43 43> 749 20G<43 43>
VStem: 140 82<249 385>
LayerCount: 2
Fore
SplineSet
140 317 m 128,-1,1
 140 473 140 473 81 631 c 0,2,3
 77 642 77 642 43 695 c 1,4,-1
 11 743 l 1,5,-1
 43 769 l 1,6,7
 222 590 222 590 222 317 c 128,-1,8
 222 44 222 44 43 -135 c 1,9,-1
 11 -109 l 1,10,-1
 43 -61 l 1,11,12
 77 -8 77 -8 81 3 c 0,13,0
 140 161 140 161 140 317 c 128,-1,1
EndSplineSet
EndChar

StartChar: asterisk
Encoding: 42 42 9
Width: 409
Flags: HMW
HStem: 446 21G<177 177> 776 20G<232 232>
LayerCount: 2
Fore
SplineSet
342 510 m 1,0,-1
 325 504 l 1,1,-1
 221 588 l 1,2,-1
 226 533 l 1,3,4
 231 515 231 515 245 487 c 2,5,-1
 260 457 l 1,6,-1
 177 446 l 1,7,-1
 164 458 l 1,8,-1
 185 590 l 1,9,-1
 139 558 l 2,10,11
 132 552 132 552 108 519 c 1,12,-1
 90 491 l 1,13,-1
 39 557 l 1,14,-1
 42 575 l 1,15,-1
 167 622 l 1,16,-1
 117 646 l 1,17,18
 97 651 97 651 68 653 c 2,19,-1
 35 655 l 1,20,-1
 67 732 l 1,21,-1
 84 738 l 1,22,-1
 187 653 l 1,23,-1
 183 709 l 1,24,25
 178 727 178 727 164 755 c 2,26,-1
 149 785 l 1,27,-1
 232 796 l 1,28,-1
 245 784 l 1,29,-1
 224 652 l 1,30,-1
 270 684 l 2,31,32
 274 687 274 687 300 723 c 1,33,-1
 319 751 l 1,34,-1
 370 685 l 1,35,-1
 367 667 l 1,36,-1
 241 619 l 1,37,-1
 292 596 l 1,38,39
 306 591 306 591 340 589 c 2,40,-1
 374 587 l 1,41,-1
 342 510 l 1,0,-1
EndSplineSet
EndChar

StartChar: plus
Encoding: 43 43 10
Width: 560
Flags: HMW
HStem: 0 21G<242 317 242 242> 221 72 491 20G<242 312 312 312>
VStem: 242 73
LayerCount: 2
Fore
SplineSet
314 220 m 1,0,-1
 317 0 l 1,1,-1
 242 0 l 1,2,-1
 242 220 l 1,3,-1
 22 218 l 1,4,-1
 22 293 l 1,5,-1
 242 293 l 1,6,-1
 242 511 l 1,7,-1
 312 511 l 1,8,-1
 314 293 l 1,9,-1
 537 293 l 1,10,-1
 537 223 l 1,11,-1
 314 220 l 1,0,-1
EndSplineSet
EndChar

StartChar: comma
Encoding: 44 44 11
Width: 220
Flags: HMW
HStem: -136 21G<44 44> 109 20G<92.5 136>
VStem: 50 125<42 63.5 3 79.5>
LayerCount: 2
Fore
SplineSet
105 -10 m 1,0,1
 79 -8 79 -8 64.5 12 c 128,-1,2
 50 32 50 32 50 61 c 0,3,4
 50 90 50 90 66.5 109.5 c 128,-1,5
 83 129 83 129 112 129 c 0,6,7
 175 129 175 129 175 40 c 0,8,9
 175 -20 175 -20 140.5 -71.5 c 128,-1,10
 106 -123 106 -123 44 -136 c 1,11,-1
 34 -104 l 1,12,13
 105 -73 105 -73 105 -10 c 1,0,1
EndSplineSet
EndChar

StartChar: hyphen
Encoding: 45 45 12
Width: 282
Flags: HMW
HStem: 216 75<32 32 32 247>
VStem: 31 218
LayerCount: 2
Fore
SplineSet
32 216 m 1,0,-1
 30 291 l 1,1,-1
 252 291 l 1,2,-1
 247 216 l 1,3,-1
 32 216 l 1,0,-1
EndSplineSet
EndChar

StartChar: period
Encoding: 46 46 13
Width: 213
Flags: HMW
HStem: -10 139<83.5 124 83.5 124.5>
VStem: 40 128<38.5 79.5>
LayerCount: 2
Fore
SplineSet
104 129 m 128,-1,1
 134 129 134 129 151 110.5 c 128,-1,2
 168 92 168 92 168 60 c 0,3,4
 168 28 168 28 151 9 c 128,-1,5
 134 -10 134 -10 104 -10 c 128,-1,6
 74 -10 74 -10 57 9 c 128,-1,7
 40 28 40 28 40 59 c 128,-1,8
 40 90 40 90 57 109.5 c 128,-1,0
 74 129 74 129 104 129 c 128,-1,1
EndSplineSet
EndChar

StartChar: slash
Encoding: 47 47 14
Width: 376
Flags: HMW
HStem: -67 21G<71 71> 753 20G
LayerCount: 2
Fore
SplineSet
71 -67 m 1,0,-1
 7 -47 l 1,1,-1
 318 773 l 1,2,-1
 381 753 l 1,3,-1
 71 -67 l 1,0,-1
EndSplineSet
EndChar

StartChar: zero
Encoding: 48 48 15
Width: 560
Flags: HMW
HStem: -10 60<221.5 338.5 221.5 366.5> 602 60<221.5 338.5>
VStem: 40 99<262 390 262 416> 421 99<262 390>
LayerCount: 2
Fore
SplineSet
40 326 m 128,-1,1
 40 473 40 473 99 567.5 c 128,-1,2
 158 662 158 662 280 662 c 128,-1,3
 402 662 402 662 461 567.5 c 128,-1,4
 520 473 520 473 520 326 c 128,-1,5
 520 179 520 179 461 84.5 c 128,-1,6
 402 -10 402 -10 280 -10 c 128,-1,7
 158 -10 158 -10 99 84.5 c 128,-1,0
 40 179 40 179 40 326 c 128,-1,1
421 326 m 128,-1,9
 421 602 421 602 280 602 c 128,-1,10
 139 602 139 602 139 326 c 128,-1,11
 139 50 139 50 280 50 c 128,-1,8
 421 50 421 50 421 326 c 128,-1,9
EndSplineSet
EndChar

StartChar: one
Encoding: 49 49 16
Width: 424
Flags: HMW
HStem: -4 21G<99 99 358 358> 0 54 652 20G<234 234>
VStem: 191 83<154.5 167 167 426>
LayerCount: 2
Fore
SplineSet
77 465 m 1,0,-1
 50 507 l 1,1,-1
 111 555 l 2,2,3
 140.058823529 577.352941176 140.058823529 577.352941176 161.029411765 594.676470588 c 128,-1,4
 182 612 182 612 186 614.5 c 128,-1,5
 190 617 190 617 204 634 c 0,6,7
 228.5 663.75 228.5 663.75 234 672 c 1,8,-1
 281 660 l 1,9,-1
 277 562 l 2,10,11
 274 510 274 510 274 426 c 2,12,-1
 274 167 l 2,13,14
 274 114 274 114 277 93 c 2,15,-1
 281 57 l 1,16,-1
 364 51 l 1,17,-1
 358 -4 l 1,18,-1
 303 -2 l 2,19,20
 239 0 239 0 204.5 0 c 128,-1,21
 170 0 170 0 132 -2 c 2,22,-1
 99 -4 l 1,23,-1
 94 45 l 1,24,-1
 181 57 l 1,25,26
 182 66 182 66 186.5 91.5 c 128,-1,27
 191 117 191 117 191 137 c 2,28,-1
 191 524 l 1,29,-1
 77 465 l 1,0,-1
EndSplineSet
EndChar

StartChar: two
Encoding: 50 50 17
Width: 530
Flags: HMW
HStem: 0 73<138 326 326 328.5 45 59> 606 56<226.5 272>
VStem: 357 95<419.5 527.5>
LayerCount: 2
Fore
SplineSet
465 -3 m 1,0,-1
 335 0 l 1,1,-1
 59 0 l 1,2,-1
 45 73 l 1,3,4
 70 98 70 98 120 144.5 c 128,-1,5
 170 191 170 191 195.5 216 c 128,-1,6
 221 241 221 241 257 282 c 128,-1,7
 293 323 293 323 311 353 c 0,8,9
 357 429.666666667 357 429.666666667 357 497 c 0,10,11
 357 542 357 542 322.5 574 c 128,-1,12
 288 606 288 606 241.5 606 c 128,-1,13
 195 606 195 606 152 585 c 1,14,15
 142 558 142 558 142 536 c 2,16,-1
 144 491 l 1,17,-1
 89 488 l 1,18,-1
 76 633 l 1,19,20
 157 662 157 662 248.5 662 c 128,-1,21
 340 662 340 662 396 620 c 128,-1,22
 452 578 452 578 452 497 c 0,23,24
 452 442 452 442 432.5 392.5 c 128,-1,25
 413 343 413 343 363.5 287 c 128,-1,26
 314 231 314 231 280.5 199.5 c 0,27,28
 199.355555556 123.2 199.355555556 123.2 138 73 c 1,29,-1
 326 73 l 2,30,31
 330 73 330 73 410 81 c 1,32,33
 424 112.5 424 112.5 424 116 c 2,34,-1
 429 163 l 1,35,-1
 484 159 l 1,36,-1
 475 7 l 1,37,-1
 465 -3 l 1,0,-1
EndSplineSet
EndChar

StartChar: three
Encoding: 51 51 18
Width: 530
Flags: HMW
HStem: -105 21G<74 74> 608 54<213.5 266>
VStem: 336 94<449 521> 363 95<101 204.5>
LayerCount: 2
Fore
SplineSet
226 289 m 1,0,-1
 157 286 l 1,1,-1
 143 334 l 1,2,3
 246 348 246 348 291 385.5 c 128,-1,4
 336 423 336 423 336 482.5 c 0,5,6
 336 608 336 608 228 608 c 0,7,8
 180 608 180 608 148 585 c 1,9,10
 139 549 139 549 139 536 c 2,11,-1
 141 491 l 1,12,-1
 86 488 l 1,13,-1
 73 633 l 1,14,15
 160 662 160 662 231 662 c 0,16,17
 326 662 326 662 378 617 c 128,-1,18
 430 572 430 572 430 485 c 0,19,20
 430 379 430 379 311 335 c 1,21,22
 377 318 377 318 417.5 275.5 c 128,-1,23
 458 233 458 233 458 170.5 c 128,-1,24
 458 108 458 108 422.5 57.5 c 128,-1,25
 387 7 387 7 329.5 -25.5 c 0,26,27
 219.034285714 -87.9371428571 219.034285714 -87.9371428571 74 -105 c 1,28,-1
 58 -59 l 1,29,30
 169.66194332 -38.3218623482 169.66194332 -38.3218623482 259 13 c 0,31,32
 306 40 306 40 334.5 80 c 128,-1,33
 363 120 363 120 363 171.5 c 128,-1,34
 363 223 363 223 324.5 256 c 128,-1,35
 286 289 286 289 226 289 c 1,0,-1
EndSplineSet
EndChar

StartChar: four
Encoding: 52 52 19
Width: 537
Flags: HMW
HStem: -4 21G<216 216 485 485> 0 54 201 53<123 252 252 258 20 64> 719 20G<380 380>
VStem: 323 78<154.5 167 167 201 154.5 201 262 399 399 399> 323 170<137 268 201 268 257 268 201 399 201 399>
LayerCount: 2
Fore
SplineSet
323 399 m 1,0,-1
 401 426 l 1,1,-1
 401 262 l 1,2,-1
 465 266 l 1,3,-1
 493 268 l 1,4,-1
 493 201 l 1,5,-1
 401 201 l 1,6,-1
 401 167 l 2,7,8
 401 114 401 114 404 93 c 2,9,-1
 408 57 l 1,10,-1
 491 51 l 1,11,-1
 485 -4 l 1,12,-1
 429 -2 l 2,13,14
 365 0 365 0 330 0 c 128,-1,15
 295 0 295 0 253 -2 c 2,16,-1
 216 -4 l 1,17,-1
 211 45 l 1,18,-1
 313 57 l 1,19,20
 314 66 314 66 318.5 91.5 c 128,-1,21
 323 117 323 117 323 137 c 2,22,-1
 323 201 l 1,23,-1
 64 201 l 1,24,-1
 20 254 l 1,25,-1
 380 739 l 1,26,-1
 449 688 l 1,27,28
 405 642 405 642 388.5 623 c 128,-1,29
 372 604 372 604 354 584.5 c 0,30,31
 314.857142857 542.095238095 314.857142857 542.095238095 310 534 c 2,32,-1
 123 254 l 1,33,-1
 252 254 l 2,34,35
 291 254 291 254 323 257 c 1,36,-1
 323 399 l 1,0,-1
EndSplineSet
EndChar

StartChar: five
Encoding: 53 53 20
Width: 516
Flags: HMW
HStem: -105 21G<79 79> 357 66<212 258> 572 85 632 20G<95 176 176 176> 642 20G<399 399>
VStem: 68 69 351 95<137 255>
LayerCount: 2
Fore
SplineSet
351 217.5 m 0,0,1
 351 276 351 276 314 316.5 c 128,-1,2
 277 357 277 357 222.5 357 c 128,-1,3
 168 357 168 357 105 341 c 1,4,-1
 68 362 l 1,5,6
 72 455 72 455 81 552 c 2,7,-1
 90 647 l 1,8,-1
 95 652 l 1,9,-1
 176 652 l 1,10,-1
 399 662 l 1,11,-1
 405 595 l 1,12,13
 354 587.5 354 587.5 280 579.75 c 128,-1,14
 206 572 206 572 197 572 c 2,15,-1
 153 572 l 1,16,-1
 146 525 l 2,17,18
 138 469 138 469 137 412 c 1,19,20
 179 423 179 423 228 423 c 0,21,22
 328 423 328 423 387 370.5 c 128,-1,23
 446 318 446 318 446 222 c 0,24,25
 446 156 446 156 414.5 98 c 128,-1,26
 383 40 383 40 330.5 0 c 0,27,28
 221.706077348 -82.8906077348 221.706077348 -82.8906077348 79 -105 c 1,29,-1
 63 -59 l 1,30,31
 189.6688 -21.3952 189.6688 -21.3952 265 36 c 0,32,33
 351 101.523809524 351 101.523809524 351 217.5 c 0,0,1
EndSplineSet
EndChar

StartChar: six
Encoding: 54 54 21
Width: 542
Flags: HMW
HStem: -11 57<233 321 233 342> 344 59<277.5 322> 727 20G<475 475>
VStem: 50 94<197.5 332.5 197.5 351> 407 95<158 235.5>
LayerCount: 2
Fore
SplineSet
293 403 m 0,0,1
 386 403 386 403 444 346.5 c 128,-1,2
 502 290 502 290 502 198.5 c 128,-1,3
 502 107 502 107 438 48 c 128,-1,4
 374 -11 374 -11 272.5 -11 c 128,-1,5
 171 -11 171 -11 110.5 59.5 c 128,-1,6
 50 130 50 130 50 246 c 0,7,8
 50 412.254901961 50 412.254901961 154 555 c 0,9,10
 205 625 205 625 288 676.5 c 128,-1,11
 371 728 371 728 475 747 c 1,12,-1
 486 701 l 1,13,14
 392 673 392 673 323 622.5 c 128,-1,15
 254 572 254 572 216.5 508.5 c 0,16,17
 144 385.733333333 144 385.733333333 144 246 c 0,18,19
 144 165 144 165 179 105.5 c 128,-1,20
 214 46 214 46 276.5 46 c 128,-1,21
 339 46 339 46 373 90.5 c 128,-1,22
 407 135 407 135 407 196 c 128,-1,23
 407 257 407 257 373 300.5 c 128,-1,24
 339 344 339 344 284 344 c 0,25,26
 255 344 255 344 220 339 c 1,27,-1
 214 387 l 1,28,29
 256 403 256 403 293 403 c 0,0,1
EndSplineSet
EndChar

StartChar: seven
Encoding: 55 55 22
Width: 530
Flags: HMW
HStem: -105 21G<217 217> 579 73<226.5 234 234 397>
LayerCount: 2
Fore
SplineSet
95 661 m 1,0,1
 187.25 652 187.25 652 225 652 c 2,2,-1
 487 652 l 1,3,-1
 503 613 l 1,4,-1
 217 -105 l 1,5,-1
 139 -80 l 1,6,-1
 353 422 l 2,7,8
 361 442 361 442 397 579 c 1,9,-1
 234 579 l 2,10,11
 187 579 187 579 149 573 c 1,12,13
 136 545 136 545 135 539 c 2,14,-1
 130 489 l 1,15,-1
 75 493 l 1,16,-1
 85 651 l 1,17,-1
 95 661 l 1,0,1
EndSplineSet
EndChar

StartChar: eight
Encoding: 56 56 23
Width: 530
Flags: HMW
HStem: -10 47<227.5 299.5 227.5 323.5> 635 47<235.5 297>
VStem: 67 87<484 553.5 484 571.5> 376 87<484.5 552.5>
LayerCount: 2
Fore
SplineSet
98.5 420 m 128,-1,1
 67 460 67 460 67 527 c 128,-1,2
 67 594 67 594 125 638 c 128,-1,3
 183 682 183 682 264.5 682 c 128,-1,4
 346 682 346 682 404.5 638 c 128,-1,5
 463 594 463 594 463 519 c 0,6,7
 463 466 463 466 426.5 421.5 c 128,-1,8
 390 377 390 377 341 348 c 1,9,10
 408 312 408 312 446.5 269 c 128,-1,11
 485 226 485 226 485 162 c 0,12,13
 485 79 485 79 422 34.5 c 128,-1,14
 359 -10 359 -10 265 -10 c 128,-1,15
 171 -10 171 -10 108 34.5 c 128,-1,16
 45 79 45 79 45 164 c 0,17,18
 45 265 45 265 186 347 c 1,19,0
 130 380 130 380 98.5 420 c 128,-1,1
136 164 m 0,20,21
 136 107 136 107 172 72 c 128,-1,22
 208 37 208 37 263 37 c 128,-1,23
 318 37 318 37 356 71.5 c 128,-1,24
 394 106 394 106 394 160 c 0,25,26
 394 197 394 197 365.5 234.5 c 0,27,28
 348.726072607 256.570957096 348.726072607 256.570957096 293 289.5 c 0,29,30
 282 296 282 296 247 316 c 0,31,32
 245 316 245 316 238 320 c 1,33,34
 136 247 136 247 136 164 c 0,20,21
376 519 m 0,35,36
 376 569 376 569 344.5 602 c 128,-1,37
 313 635 313 635 266.5 635 c 128,-1,38
 220 635 220 635 187 601.5 c 128,-1,39
 154 568 154 568 154 523 c 0,40,41
 154 470.564102564 154 470.564102564 192.5 437 c 0,42,43
 232.172413793 402.413793103 232.172413793 402.413793103 293 372 c 1,44,-1
 294 371 l 1,45,46
 376 434 376 434 376 519 c 0,35,36
EndSplineSet
EndChar

StartChar: nine
Encoding: 57 57 24
Width: 545
Flags: HMW
HStem: -107 21G<77 77> 248 59<225 268.5> 605 57<218.5 307>
VStem: 40 97<411 490 411 511> 397 98<314.5 449.5>
LayerCount: 2
Fore
SplineSet
254 248 m 0,0,1
 160 248 160 248 100 303 c 128,-1,2
 40 358 40 358 40 449.5 c 128,-1,3
 40 541 40 541 103.5 601.5 c 128,-1,4
 167 662 167 662 269.5 662 c 128,-1,5
 372 662 372 662 433.5 590 c 128,-1,6
 495 518 495 518 495 401 c 0,7,8
 495 232.680412371 495 232.680412371 396.5 89.5 c 0,9,10
 348 19 348 19 265.5 -33 c 128,-1,11
 183 -85 183 -85 77 -107 c 1,12,-1
 65 -62 l 1,13,14
 159 -32 159 -32 227 20.5 c 128,-1,15
 295 73 295 73 330.5 137.5 c 0,16,17
 397 258.323943662 397 258.323943662 397 401 c 0,18,19
 397 482 397 482 361.5 543.5 c 128,-1,20
 326 605 326 605 263.5 605 c 128,-1,21
 201 605 201 605 169 560 c 128,-1,22
 137 515 137 515 137 452.5 c 128,-1,23
 137 390 137 390 172 348.5 c 128,-1,24
 207 307 207 307 255.5 307 c 128,-1,25
 304 307 304 307 325 310 c 1,26,-1
 332 263 l 1,27,28
 297 248 297 248 254 248 c 0,0,1
EndSplineSet
EndChar

StartChar: colon
Encoding: 58 58 25
Width: 203
Flags: HMW
HStem: -10 129<79.5 117.5 79.5 118.5> 343 129<79.5 117.5 79.5 118.5>
VStem: 40 118<34.5 73.5 387.5 426.5>
LayerCount: 2
Fore
SplineSet
55 454.5 m 128,-1,1
 70 472 70 472 98.5 472 c 128,-1,2
 127 472 127 472 142.5 455 c 128,-1,3
 158 438 158 438 158 407.5 c 128,-1,4
 158 377 158 377 143 360 c 128,-1,5
 128 343 128 343 99 343 c 128,-1,6
 70 343 70 343 55 360 c 128,-1,7
 40 377 40 377 40 407 c 128,-1,0
 40 437 40 437 55 454.5 c 128,-1,1
55 101.5 m 128,-1,9
 70 119 70 119 98.5 119 c 128,-1,10
 127 119 127 119 142.5 102 c 128,-1,11
 158 85 158 85 158 54.5 c 128,-1,12
 158 24 158 24 143 7 c 128,-1,13
 128 -10 128 -10 99 -10 c 128,-1,14
 70 -10 70 -10 55 7 c 128,-1,15
 40 24 40 24 40 54 c 128,-1,8
 40 84 40 84 55 101.5 c 128,-1,9
EndSplineSet
EndChar

StartChar: semicolon
Encoding: 59 59 26
Width: 220
Flags: HMW
HStem: 343 129<91.5 129.5 91.5 130.5>
VStem: 52 118<387.5 426.5>
LayerCount: 2
Fore
SplineSet
67 454.5 m 128,-1,1
 82 472 82 472 110.5 472 c 128,-1,2
 139 472 139 472 154.5 455 c 128,-1,3
 170 438 170 438 170 407.5 c 128,-1,4
 170 377 170 377 155 360 c 128,-1,5
 140 343 140 343 111 343 c 128,-1,6
 82 343 82 343 67 360 c 128,-1,7
 52 377 52 377 52 407 c 128,-1,0
 52 437 52 437 67 454.5 c 128,-1,1
105 -10 m 1,8,9
 79 -8 79 -8 64.5 12 c 128,-1,10
 50 32 50 32 50 61 c 128,-1,11
 50 90 50 90 66.5 109.5 c 128,-1,12
 83 129 83 129 112 129 c 0,13,14
 175 129 175 129 175 40 c 0,15,16
 175 -20 175 -20 140.5 -71.5 c 128,-1,17
 106 -123 106 -123 44 -136 c 1,18,-1
 34 -104 l 1,19,20
 105 -73 105 -73 105 -10 c 1,8,9
EndSplineSet
EndChar

StartChar: less
Encoding: 60 60 27
Width: 560
Flags: HMW
HStem: -15 21G<405 405> 493 20G<404 404>
LayerCount: 2
Fore
SplineSet
102 247 m 1,0,-1
 404 513 l 1,1,-1
 457 460 l 1,2,-1
 204 248 l 1,3,-1
 458 38 l 1,4,-1
 405 -15 l 1,5,-1
 102 247 l 1,0,-1
EndSplineSet
EndChar

StartChar: equal
Encoding: 61 61 28
Width: 560
Flags: HMW
HStem: 119 68 309 69
LayerCount: 2
Fore
SplineSet
507 312 m 1,0,-1
 52 307 l 1,1,-1
 52 378 l 1,2,-1
 507 378 l 1,3,-1
 507 312 l 1,0,-1
52 185 m 1,4,-1
 507 190 l 1,5,-1
 507 119 l 1,6,-1
 52 119 l 1,7,-1
 52 185 l 1,4,-1
EndSplineSet
EndChar

StartChar: greater
Encoding: 62 62 29
Width: 560
Flags: HMW
HStem: -15 21G<155 155> 493 20G<156 156>
LayerCount: 2
Fore
SplineSet
156 513 m 1,0,-1
 458 247 l 1,1,-1
 155 -15 l 1,2,-1
 102 38 l 1,3,-1
 356 248 l 1,4,-1
 103 460 l 1,5,-1
 156 513 l 1,0,-1
EndSplineSet
EndChar

StartChar: question
Encoding: 63 63 30
Width: 403
Flags: HMW
HStem: -10 129<141.5 179.5> 294 58<197 197> 670 57<165.5 230>
VStem: 111 89 316 94<471 551>
LayerCount: 2
Fore
SplineSet
204 7.5 m 128,-1,1
 189 -10 189 -10 160.5 -10 c 128,-1,2
 132 -10 132 -10 116.5 7 c 128,-1,3
 101 24 101 24 101 54.5 c 128,-1,4
 101 85 101 85 116 102 c 128,-1,5
 131 119 131 119 160 119 c 128,-1,6
 189 119 189 119 204 102 c 128,-1,7
 219 85 219 85 219 55 c 128,-1,0
 219 25 219 25 204 7.5 c 128,-1,1
316 511 m 128,-1,9
 316 578 316 578 283 624 c 128,-1,10
 250 670 250 670 180 670 c 0,11,12
 134 670 134 670 98 640 c 1,13,14
 91 622 91 622 91 586 c 1,15,-1
 93 550 l 1,16,-1
 35 547 l 1,17,-1
 23 688 l 1,18,19
 108 727 108 727 180 727 c 0,20,21
 292 727 292 727 351 668 c 128,-1,22
 410 609 410 609 410 511.5 c 128,-1,23
 410 414 410 414 356 356.5 c 128,-1,24
 302 299 302 299 197 294 c 1,25,-1
 203 196 l 1,26,-1
 195 186 l 1,27,-1
 169 189 l 1,28,29
 130 192 130 192 113 189 c 1,30,-1
 110 332 l 1,31,-1
 139 358 l 1,32,33
 157 352 157 352 180 352 c 0,34,35
 250 352 250 352 283 398 c 128,-1,8
 316 444 316 444 316 511 c 128,-1,9
EndSplineSet
EndChar

StartChar: at
Encoding: 64 64 31
Width: 912
Flags: HMW
HStem: -213 63<439 442.5 439 456 439 461 439 466> -171 20G<452.5 461.5> -162 20G -10 21G<405 412.5> 480 20G<421 422.5 815 815> 483 20G<485 495 495 498.5> 617 49<436.5 438 434.5 440 434.5 476 434.5 491> 645 20G<412.5 416> 647 20G<457 467>
VStem: 40 91<224.5 247.5 213.5 256> 569 81<167 227 227 227 278 291> 791 81<276 301 276 303.5>
LayerCount: 2
Fore
SplineSet
461 667 m 2,0,-1
 497 666 l 1,1,-1
 533 663 l 1,2,-1
 567 657 l 2,3,4
 636 645 636 645 687 617 c 0,5,6
 689 616 689 616 693.5 614 c 128,-1,7
 698 612 698 612 701.5 609.5 c 0,8,9
 719 597 719 597 725 594 c 1,10,-1
 760 567 l 2,11,12
 761 565 761 565 763 563.5 c 128,-1,13
 765 562 765 562 770 557 c 2,14,-1
 780 546 l 2,15,16
 783 544 783 544 794.5 529.5 c 128,-1,17
 806 515 806 515 815 500 c 2,18,-1
 823 488 l 1,19,20
 829 476 829 476 837.5 459 c 0,21,22
 854.615384615 424.769230769 854.615384615 424.769230769 858.307692308 401.384615385 c 128,-1,23
 862 378 862 378 864 372 c 2,24,-1
 867 356 l 1,25,26
 872 321 872 321 872 287 c 2,27,-1
 872 276 l 1,28,29
 868 171 868 171 803.5 91.5 c 128,-1,30
 739 12 739 12 627 -2 c 2,31,-1
 602 -5 l 1,32,-1
 593 0 l 1,33,-1
 579 79 l 1,34,35
 574.2 69.4 574.2 69.4 561 54 c 1,36,-1
 545 38 l 1,37,38
 527 23 527 23 507 14 c 1,39,-1
 498 9 l 1,40,-1
 484 3 l 1,41,-1
 463 -3 l 1,42,-1
 448 -6 l 2,43,44
 447 -7 447 -7 442 -7 c 2,45,-1
 432 -9 l 1,46,-1
 426 -9 l 1,47,48
 421 -10 421 -10 408 -10 c 0,49,50
 370 -10 370 -10 344 3 c 1,51,52
 316 15 316 15 296 45 c 1,53,-1
 293 49 l 1,54,-1
 284 67 l 1,55,-1
 281 77 l 1,56,-1
 279 83 l 1,57,-1
 277 93 l 1,58,-1
 276 105 l 2,59,60
 275 108 275 108 275 117 c 2,61,-1
 275 138 l 1,62,-1
 281 165 l 1,63,64
 287 178 287 178 290 184 c 0,65,66
 310.626666667 219.36 310.626666667 219.36 355 236 c 1,67,-1
 384 245 l 1,68,-1
 390 247 l 1,69,70
 403 250.25 403 250.25 471 263 c 1,71,-1
 491 266 l 2,72,73
 506 269 506 269 529.5 272 c 0,74,75
 558.875 275.75 558.875 275.75 569 278 c 1,76,-1
 569 322 l 1,77,78
 567 357 567 357 565 364.5 c 128,-1,79
 563 372 563 372 563 374 c 2,80,-1
 557 392 l 2,81,82
 549.2 412.8 549.2 412.8 540 422 c 1,83,84
 536 428 536 428 528 433 c 1,85,86
 520 440 520 440 509 443 c 128,-1,87
 498 446 498 446 496 447 c 2,88,-1
 486 448 l 2,89,90
 483 449 483 449 475 449 c 2,91,-1
 465 449 l 1,92,-1
 449 448 l 1,93,-1
 432 445 l 1,94,95
 426 445 426 445 412 441 c 2,96,-1
 398 437 l 1,97,-1
 397 436 l 1,98,-1
 382 430 l 1,99,-1
 382 429 l 1,100,101
 381 428 381 428 381 424 c 1,102,-1
 380 422 l 1,103,-1
 377 407 l 1,104,-1
 374 394 l 1,105,-1
 374 392 l 1,106,107
 373 388 373 388 373 383 c 2,108,-1
 373 347 l 1,109,-1
 315 344 l 1,110,-1
 304 479 l 1,111,112
 346 489 346 489 367 493 c 1,113,-1
 390 496 l 1,114,115
 397 498 397 498 421 500 c 2,116,-1
 431 501 l 1,117,-1
 485 503 l 1,118,-1
 495 503 l 2,119,120
 499 503 499 503 513 501 c 2,121,-1
 538 498 l 1,122,123
 574 490 574 490 596 471 c 1,124,-1
 610 457 l 1,125,-1
 618 447 l 1,126,-1
 624 436 l 2,127,128
 650 387 650 387 650 291 c 2,129,-1
 650 137 l 2,130,131
 650 115 650 115 652 111 c 1,132,-1
 661 48 l 1,133,-1
 661 46 l 1,134,-1
 662 46 l 1,135,136
 730.140993789 61.7248447205 730.140993789 61.7248447205 760.570496894 134.86242236 c 128,-1,137
 791 208 791 208 791 287 c 2,138,-1
 791 301 l 1,139,-1
 790 316 l 1,140,-1
 787 344 l 2,141,142
 787 347 787 347 785 357 c 2,143,-1
 783 371 l 1,144,145
 771.631578947 417.736842105 771.631578947 417.736842105 758 445 c 1,146,-1
 753 456 l 1,147,-1
 741 478 l 1,148,149
 721 510 721 510 694 534 c 2,150,-1
 676 550 l 1,151,152
 644 574 644 574 623.5 583 c 128,-1,153
 603 592 603 592 599 594 c 2,154,-1
 574 602 l 2,155,156
 563 606 563 606 561 606 c 2,157,-1
 520 614 l 1,158,-1
 506 616 l 1,159,160
 494 616 494 616 491 617 c 1,161,-1
 476 617 l 1,162,-1
 461 618 l 2,163,164
 447 618 447 618 440 617 c 2,165,-1
 420 616 l 1,166,-1
 401 614 l 1,167,-1
 382 610 l 2,168,169
 327 599 327 599 289 575 c 1,170,171
 274 567 274 567 264 558 c 1,172,173
 176.064285714 492.611904762 176.064285714 492.611904762 142 345 c 1,174,175
 131 286 131 286 131 225.5 c 128,-1,176
 131 165 131 165 139 127 c 1,177,-1
 145 93 l 1,178,-1
 147 87 l 1,179,180
 171.013157895 -10.0131578947 171.013157895 -10.0131578947 235 -74 c 0,181,182
 239 -78 239 -78 247 -84 c 0,183,184
 320 -144 320 -144 439 -150 c 2,185,-1
 456 -151 l 1,186,187
 489.285714286 -151 489.285714286 -151 597 -125 c 2,188,-1
 655 -111 l 1,189,-1
 658 -117 l 1,190,191
 659 -116 659 -116 660 -116 c 2,192,-1
 661 -116 l 1,193,-1
 668 -136 l 1,194,-1
 671 -142 l 1,195,-1
 670 -142 l 1,196,-1
 672 -148 l 1,197,-1
 626 -166 l 1,198,199
 583 -184 583 -184 530 -198 c 1,200,201
 485 -213 485 -213 466 -213 c 2,202,-1
 456 -213 l 2,203,204
 344 -213 344 -213 257 -172 c 1,205,-1
 237 -162 l 1,206,207
 234 -159 234 -159 229 -158 c 1,208,209
 108 -89 108 -89 62 64 c 0,210,211
 59 72 59 72 54.5 90.5 c 128,-1,212
 50 109 50 109 44 159 c 2,213,-1
 41 189 l 2,214,215
 40 204 40 204 40 232 c 0,216,217
 40 310 40 310 58 375 c 2,218,-1
 67 406 l 1,219,220
 76 429 76 429 78 435 c 2,221,-1
 85 450 l 2,222,223
 106 496 106 496 135 530 c 0,224,225
 136 531 136 531 148 544.5 c 128,-1,226
 160 558 160 558 167 564.5 c 0,227,228
 175.555555556 572.444444444 175.555555556 572.444444444 205 596 c 1,229,-1
 219 605 l 1,230,-1
 234 613 l 2,231,232
 256 625 256 625 265 629 c 2,233,-1
 282 636 l 1,234,235
 324 652 324 652 374 660 c 2,236,-1
 395 663 l 2,237,238
 416 666 416 666 431 666.5 c 128,-1,239
 446 667 446 667 461 667 c 2,0,-1
365 149 m 1,240,241
 363 137 363 137 363 126.5 c 0,242,243
 363 107.666666667 363 107.666666667 367.5 95.8333333333 c 128,-1,244
 372 84 372 84 373 84 c 2,245,-1
 375 81 l 1,246,-1
 380 75 l 1,247,-1
 388 68 l 1,248,-1
 392 65 l 2,249,250
 393.222222222 63.1666666667 393.222222222 63.1666666667 400.611111111 60.0833333333 c 0,251,252
 415.189189189 54 415.189189189 54 436 54 c 2,253,-1
 441 54 l 2,254,255
 448 54 448 54 451.5 54.5 c 0,256,257
 469.538461538 57.0769230769 469.538461538 57.0769230769 489.769230769 65.5384615385 c 0,258,259
 523.847166362 79.7915904936 523.847166362 79.7915904936 546 110 c 1,260,-1
 558 130 l 1,261,262
 566 151 566 151 569 167 c 1,263,-1
 569 227 l 1,264,-1
 567 226 l 1,265,266
 562 226 562 226 560 225 c 2,267,-1
 538 222 l 2,268,269
 521 220 521 220 517 218 c 1,270,-1
 501 216 l 1,271,-1
 477 211 l 1,272,-1
 460 208 l 1,273,-1
 447 205 l 1,274,275
 440 202 440 202 426 200 c 1,276,-1
 415 197 l 1,277,278
 383.405405405 183.459459459 383.405405405 183.459459459 374 167 c 1,279,-1
 371 163 l 1,280,-1
 365 149 l 1,240,241
EndSplineSet
EndChar

StartChar: A
Encoding: 65 65 32
Width: 686
Flags: HMW
HStem: -4 21G<8 8 230 230 447 447 678 678> 0 21G<56.5 77.5 505.5 521> 231 51 696 20G<366 366>
LayerCount: 2
Fore
SplineSet
312 705 m 1,0,-1
 366 716 l 1,1,-1
 476 430 l 2,2,3
 500 369 500 369 528.5 293.5 c 0,4,5
 587.810810811 136.378378378 587.810810811 136.378378378 592 128 c 1,6,7
 600 104 600 104 630 54 c 1,8,-1
 681 49 l 1,9,-1
 678 -4 l 1,10,-1
 609 -2 l 2,11,12
 535 0 535 0 516 0 c 128,-1,13
 497 0 497 0 471 -2 c 2,14,-1
 447 -4 l 1,15,-1
 442 49 l 1,16,-1
 513 56 l 1,17,18
 506 105 506 105 498 129 c 1,19,-1
 458 233 l 1,20,-1
 209 230 l 1,21,-1
 168 115 l 1,22,23
 161 84 161 84 157 57 c 1,24,-1
 158 57 l 1,25,-1
 236 49 l 1,26,-1
 230 -4 l 1,27,-1
 168 -2 l 2,28,29
 98 0 98 0 73.5 0 c 128,-1,30
 49 0 49 0 27 -2 c 2,31,-1
 8 -4 l 1,32,-1
 5 48 l 1,33,-1
 62 56 l 1,34,35
 117 157 117 157 118 161 c 2,36,-1
 312 705 l 1,0,-1
228 284 m 1,37,38
 282 282 282 282 305 282 c 128,-1,39
 328 282 328 282 372.5 283.5 c 128,-1,40
 417 285 417 285 438 285 c 1,41,-1
 329 569 l 1,42,-1
 228 284 l 1,37,38
EndSplineSet
EndChar

StartChar: B
Encoding: 66 66 33
Width: 592
Flags: HMW
HStem: -10 59<322.5 360 298 407> 337 57<273 278 266 281> 661 54<293.5 345>
VStem: 117 92<147 167 167 538> 435 95<499 571> 462 68
LayerCount: 2
Fore
SplineSet
135 705 m 1,0,-1
 329 715 l 1,1,2
 414 715 414 715 472 668.5 c 128,-1,3
 530 622 530 622 530 550 c 128,-1,4
 530 478 530 478 489 431.5 c 128,-1,5
 448 385 448 385 381 370 c 1,6,-1
 381 363 l 1,7,8
 463 350 463 350 511.5 304.5 c 128,-1,9
 560 259 560 259 560 177.5 c 128,-1,10
 560 96 560 96 499.5 43 c 128,-1,11
 439 -10 439 -10 348 -10 c 1,12,-1
 182 0 l 1,13,-1
 150 0 l 2,14,15
 116 0 116 0 78 -5 c 1,16,-1
 37 -9 l 1,17,-1
 30 48 l 1,18,-1
 107 57 l 1,19,20
 108 66 108 66 112.5 91.5 c 128,-1,21
 117 117 117 117 117 137 c 2,22,-1
 117 568 l 2,23,24
 117 583 117 583 112.5 608.5 c 128,-1,25
 108 634 108 634 107 648 c 1,26,-1
 30 660 l 1,27,-1
 35 710 l 1,28,-1
 67 707 l 1,29,30
 105 705 105 705 130 705 c 2,31,-1
 135 705 l 1,0,-1
215 655 m 1,32,-1
 209 538 l 1,33,-1
 209 167 l 2,34,35
 209 92 209 92 215 56 c 1,36,37
 262 49 262 49 322.5 49 c 128,-1,38
 383 49 383 49 422.5 86 c 128,-1,39
 462 123 462 123 462 192.5 c 128,-1,40
 462 262 462 262 408.5 299.5 c 128,-1,41
 355 337 355 337 278 337 c 2,42,-1
 266 337 l 1,43,-1
 273 394 l 1,44,-1
 281 394 l 2,45,46
 348 394 348 394 391.5 430.5 c 128,-1,47
 435 467 435 467 435 528.5 c 128,-1,48
 435 590 435 590 399.5 625.5 c 128,-1,49
 364 661 364 661 311 661 c 128,-1,50
 258 661 258 661 215 655 c 1,32,-1
EndSplineSet
EndChar

StartChar: C
Encoding: 67 67 34
Width: 643
Flags: HMW
HStem: -15 58<303.5 401.5 303.5 422.5> 540 180
VStem: 45 107<266.5 439.5 266.5 461>
LayerCount: 2
Fore
SplineSet
602 170 m 1,0,-1
 608 19 l 1,1,2
 464 -15 464 -15 379 -15 c 0,3,4
 217 -15 217 -15 131 84 c 128,-1,5
 45 183 45 183 45 351.5 c 128,-1,6
 45 520 45 520 131 620 c 128,-1,7
 217 720 217 720 379 720 c 0,8,9
 460 720 460 720 540 700 c 0,10,11
 590 687.5 590 687.5 599 686 c 1,12,-1
 588 538 l 1,13,-1
 527 542 l 1,14,-1
 527 589 l 2,15,16
 527 605 527 605 515 639 c 1,17,18
 439 662 439 662 380 662 c 0,19,20
 270 662 270 662 211 575.5 c 128,-1,21
 152 489 152 489 152 353 c 128,-1,22
 152 217 152 217 211 130 c 128,-1,23
 270 43 270 43 380 43 c 0,24,25
 448 43 448 43 524 65 c 1,26,27
 539 108 539 108 540 121.5 c 128,-1,28
 541 135 541 135 541 148 c 2,29,-1
 541 168 l 1,30,-1
 602 170 l 1,0,-1
EndSplineSet
EndChar

StartChar: D
Encoding: 68 68 35
Width: 701
Flags: HMW
HStem: -11 60<299.5 405.5 299.5 429> -1 21G<119 154.5> 655 60<298 405.5> 685 20G<130 134 134 134>
VStem: 117 92<146 167 167 538> 567 99<268.5 435.5>
LayerCount: 2
Fore
SplineSet
321 -11 m 1,0,-1
 119 -1 l 1,1,2
 80 -3 80 -3 64 -6 c 1,3,-1
 37 -9 l 1,4,-1
 30 48 l 1,5,-1
 107 57 l 1,6,7
 108 66 108 66 112.5 91.5 c 128,-1,8
 117 117 117 117 117 137 c 2,9,-1
 117 568 l 2,10,11
 117 583 117 583 112.5 608.5 c 128,-1,12
 108 634 108 634 107 648 c 1,13,-1
 30 660 l 1,14,-1
 35 710 l 1,15,-1
 67 707 l 1,16,17
 105 705 105 705 130 705 c 2,18,-1
 134 705 l 2,19,20
 163 705 163 705 224 710 c 128,-1,21
 285 715 285 715 321 715 c 0,22,23
 486 715 486 715 576 618 c 128,-1,24
 666 521 666 521 666 354.5 c 128,-1,25
 666 188 666 188 573.5 88.5 c 128,-1,26
 481 -11 481 -11 321 -11 c 1,0,-1
209 167 m 1,27,-1
 215 53 l 1,28,29
 251 49 251 49 322 49 c 0,30,31
 442 49 442 49 504.5 134 c 128,-1,32
 567 219 567 219 567 352 c 128,-1,33
 567 485 567 485 504.5 570 c 128,-1,34
 442 655 442 655 322 655 c 0,35,36
 257 655 257 655 215 650 c 1,37,38
 209 612 209 612 209 538 c 2,39,-1
 209 167 l 1,27,-1
EndSplineSet
EndChar

StartChar: E
Encoding: 69 69 36
Width: 562
Flags: HMW
HStem: -9 21G<37 37> 0 57<107 150 215 359 359 374.5> 340 52<246.5 324 251 304> 649 56<215 346 215 215>
VStem: 117 92<147 167 167 338 394 538>
LayerCount: 2
Fore
SplineSet
351 337 m 1,0,-1
 304 340 l 1,1,-1
 251 340 l 2,2,3
 241 340 241 340 209 338 c 1,4,-1
 209 167 l 2,5,6
 209 99 209 99 215 57 c 1,7,-1
 359 57 l 2,8,9
 400 57 400 57 446 65 c 1,10,11
 460 84 460 84 467 103 c 1,12,13
 468 111 468 111 474.5 137.5 c 128,-1,14
 481 164 481 164 482 170 c 1,15,-1
 537 165 l 1,16,-1
 522 7 l 1,17,-1
 512 -4 l 1,18,-1
 458 -2 l 2,19,20
 402 0 402 0 389 0 c 2,21,-1
 150 0 l 2,22,23
 116 0 116 0 78 -5 c 1,24,-1
 37 -9 l 1,25,-1
 30 48 l 1,26,-1
 107 57 l 1,27,28
 108 66 108 66 112.5 91.5 c 128,-1,29
 117 117 117 117 117 137 c 2,30,-1
 117 568 l 2,31,32
 117 583 117 583 112.5 608.5 c 128,-1,33
 108 634 108 634 107 648 c 1,34,-1
 30 660 l 1,35,-1
 35 710 l 1,36,-1
 63 707 l 1,37,38
 95 705 95 705 120 705 c 2,39,-1
 376 705 l 2,40,41
 401.5 705 401.5 705 499 715 c 1,42,-1
 509 704 l 1,43,-1
 516 561 l 1,44,-1
 458 556 l 1,45,46
 450 599 450 599 446 612 c 128,-1,47
 442 625 442 625 427 644 c 1,48,49
 389 649 389 649 346 649 c 2,50,-1
 215 649 l 1,51,52
 209 609 209 609 209 538 c 2,53,-1
 209 394 l 1,54,55
 243 392 243 392 251 392 c 2,56,-1
 324 392 l 2,57,58
 348 392 348 392 384 401 c 1,59,-1
 393 467 l 1,60,-1
 439 462 l 1,61,62
 438 450 438 450 438 429 c 2,63,-1
 438 382 l 2,64,65
 438 330 438 330 439 309 c 2,66,-1
 441 273 l 1,67,-1
 393 267 l 1,68,-1
 384 334 l 1,69,-1
 351 337 l 1,0,-1
EndSplineSet
EndChar

StartChar: F
Encoding: 70 70 37
Width: 541
Flags: HMW
HStem: -9 21G<37 37> 0 58 330 52<246.5 324 251 304> 649 56<215 346 215 215>
VStem: 117 92<154.5 167 167 328 384 538>
LayerCount: 2
Fore
SplineSet
351 327 m 1,0,-1
 304 330 l 1,1,-1
 251 330 l 2,2,3
 243 330 243 330 209 328 c 1,4,-1
 209 167 l 2,5,6
 209 111.5 209 111.5 218 62 c 1,7,-1
 314 55 l 1,8,-1
 309 -4 l 1,9,-1
 255 -2 l 2,10,11
 193 0 193 0 154.5 0 c 128,-1,12
 116 0 116 0 78 -5 c 1,13,-1
 37 -9 l 1,14,-1
 30 48 l 1,15,-1
 107 57 l 1,16,17
 108 66 108 66 112.5 91.5 c 128,-1,18
 117 117 117 117 117 137 c 2,19,-1
 117 568 l 2,20,21
 117 583 117 583 112.5 608.5 c 128,-1,22
 108 634 108 634 107 648 c 1,23,-1
 30 660 l 1,24,-1
 35 710 l 1,25,-1
 63 707 l 1,26,27
 95 705 95 705 120 705 c 2,28,-1
 376 705 l 2,29,30
 401.5 705 401.5 705 499 715 c 1,31,-1
 509 704 l 1,32,-1
 516 561 l 1,33,-1
 458 556 l 1,34,35
 450 599 450 599 446 612 c 128,-1,36
 442 625 442 625 427 644 c 1,37,38
 389 649 389 649 346 649 c 2,39,-1
 215 649 l 1,40,41
 209 605 209 605 209 538 c 2,42,-1
 209 384 l 1,43,44
 243 382 243 382 251 382 c 2,45,-1
 324 382 l 2,46,47
 348 382 348 382 384 391 c 1,48,-1
 393 457 l 1,49,-1
 439 452 l 1,50,51
 438 440 438 440 438 419 c 2,52,-1
 438 372 l 2,53,54
 438 320 438 320 439 299 c 2,55,-1
 441 263 l 1,56,-1
 393 257 l 1,57,-1
 384 324 l 1,58,-1
 351 327 l 1,0,-1
EndSplineSet
EndChar

StartChar: G
Encoding: 71 71 38
Width: 653
Flags: HMW
HStem: -15 58<299.5 397 299.5 422.5> 662 58<299.5 398.5>
VStem: 45 103<266.5 439.5 266.5 461> 528 65 528 80<128 166 19 196 19 201.5>
LayerCount: 2
Fore
SplineSet
618 330 m 1,0,1
 608 225 608 225 608 166 c 2,2,-1
 608 19 l 1,3,4
 464 -15 464 -15 379 -15 c 0,5,6
 217 -15 217 -15 131 84 c 128,-1,7
 45 183 45 183 45 351.5 c 128,-1,8
 45 520 45 520 131 620 c 128,-1,9
 217 720 217 720 379 720 c 0,10,11
 460 720 460 720 540 700 c 0,12,13
 590 687.5 590 687.5 599 686 c 1,14,-1
 588 538 l 1,15,-1
 530 544 l 1,16,-1
 530 589 l 2,17,18
 530 604 530 604 518 638 c 1,19,20
 437 662 437 662 377 662 c 0,21,22
 265 662 265 662 206.5 576 c 128,-1,23
 148 490 148 490 148 353 c 128,-1,24
 148 216 148 216 206.5 129.5 c 128,-1,25
 265 43 265 43 377 43 c 0,26,27
 441 43 441 43 516 63 c 1,28,29
 528 109 528 109 528 128 c 2,30,-1
 528 196 l 2,31,32
 528 211 528 211 523.5 236.5 c 128,-1,33
 519 262 519 262 518 276 c 1,34,-1
 432 284 l 1,35,-1
 437 341 l 1,36,-1
 486 337 l 1,37,38
 522 333 522 333 554.5 333 c 128,-1,39
 587 333 587 333 596 334 c 2,40,-1
 612 336 l 1,41,-1
 618 330 l 1,0,1
EndSplineSet
EndChar

StartChar: H
Encoding: 72 72 39
Width: 749
Flags: HMW
HStem: -9 21G<37 37> 0 54 326 52 651 54 693 20G<288 288 713 713>
VStem: 117 92<154.5 167 167 325 382 538> 541 93<154.5 167 167 328 328 328 382 538>
LayerCount: 2
Fore
SplineSet
329 378 m 1,0,-1
 541 382 l 1,1,-1
 541 568 l 2,2,3
 541 583 541 583 536.5 608.5 c 128,-1,4
 532 634 532 634 531 648 c 1,5,-1
 454 656 l 1,6,-1
 459 710 l 1,7,-1
 491 707 l 1,8,9
 529 705 529 705 573.5 705 c 128,-1,10
 618 705 618 705 659 709 c 2,11,-1
 713 713 l 1,12,-1
 719 654 l 1,13,-1
 641 648 l 1,14,-1
 637 612 l 2,15,16
 634 591 634 591 634 538 c 2,17,-1
 634 167 l 2,18,19
 634 114 634 114 637 93 c 2,20,-1
 641 57 l 1,21,-1
 719 51 l 1,22,-1
 713 -4 l 1,23,-1
 659 -2 l 2,24,25
 597 0 597 0 563 0 c 128,-1,26
 529 0 529 0 491 -2 c 2,27,-1
 459 -4 l 1,28,-1
 454 51 l 1,29,-1
 531 57 l 1,30,31
 532 66 532 66 536.5 91.5 c 128,-1,32
 541 117 541 117 541 137 c 2,33,-1
 541 328 l 1,34,-1
 209 325 l 1,35,-1
 209 167 l 2,36,37
 209 114 209 114 212 93 c 2,38,-1
 216 57 l 1,39,-1
 294 51 l 1,40,-1
 288 -4 l 1,41,-1
 240 -2 l 2,42,43
 184 0 184 0 146 0 c 128,-1,44
 108 0 108 0 73 -5 c 1,45,-1
 37 -9 l 1,46,-1
 30 48 l 1,47,-1
 107 57 l 1,48,49
 108 66 108 66 112.5 91.5 c 128,-1,50
 117 117 117 117 117 137 c 2,51,-1
 117 568 l 2,52,53
 117 583 117 583 112.5 608.5 c 128,-1,54
 108 634 108 634 107 648 c 1,55,-1
 30 660 l 1,56,-1
 35 710 l 1,57,-1
 67 707 l 1,58,59
 105 705 105 705 149.5 705 c 128,-1,60
 194 705 194 705 235 709 c 2,61,-1
 288 713 l 1,62,-1
 294 654 l 1,63,-1
 216 648 l 1,64,-1
 212 612 l 2,65,66
 209 591 209 591 209 538 c 2,67,-1
 209 382 l 1,68,69
 234 378 234 378 329 378 c 1,0,-1
EndSplineSet
EndChar

StartChar: I
Encoding: 73 73 40
Width: 343
Flags: HMW
HStem: -4 21G<45 45 297 297> 0 54 651 54 693 20G<297 297>
VStem: 127 91<154.5 167 167 538>
LayerCount: 2
Fore
SplineSet
127 137 m 2,0,-1
 127 568 l 2,1,2
 127 583 127 583 122.5 608.5 c 0,3,4
 118 634 118 634 117 648 c 1,5,-1
 40 657 l 1,6,-1
 45 710 l 1,7,-1
 77 707 l 1,8,9
 115 705 115 705 159 705 c 0,10,11
 203 705 203 705 244 709 c 2,12,-1
 297 713 l 1,13,-1
 303 654 l 1,14,-1
 225 648 l 1,15,-1
 221 612 l 2,16,17
 218 591 218 591 218 538 c 2,18,-1
 218 167 l 2,19,20
 218 114 218 114 221 93 c 2,21,-1
 225 57 l 1,22,-1
 303 51 l 1,23,-1
 297 -4 l 1,24,-1
 244 -2 l 2,25,26
 182 0 182 0 148.5 0 c 0,27,28
 115 0 115 0 77 -2 c 2,29,-1
 45 -4 l 1,30,-1
 40 48 l 1,31,-1
 117 57 l 1,32,33
 118 66 118 66 122.5 91.5 c 0,34,35
 127 117 127 117 127 137 c 2,0,-1
EndSplineSet
EndChar

StartChar: J
Encoding: 74 74 41
Width: 343
Flags: HMW
HStem: -200 21G<81 81> 651 54 693 20G<297 297>
VStem: 127 91<11 538>
LayerCount: 2
Fore
SplineSet
47 -178 m 1,0,1
 127 -8 127 -8 127 11 c 2,2,-1
 127 568 l 2,3,4
 127 583 127 583 122.5 608.5 c 128,-1,5
 118 634 118 634 117 648 c 1,6,-1
 40 657 l 1,7,-1
 45 710 l 1,8,-1
 77 707 l 1,9,10
 115 705 115 705 159 705 c 128,-1,11
 203 705 203 705 244 709 c 2,12,-1
 297 713 l 1,13,-1
 303 654 l 1,14,-1
 225 648 l 1,15,-1
 221 612 l 2,16,17
 218 591 218 591 218 538 c 2,18,-1
 218 -10 l 2,19,20
 218 -31 218 -31 149 -116 c 0,21,22
 125 -147 125 -147 81 -200 c 1,23,-1
 47 -178 l 1,0,1
EndSplineSet
EndChar

StartChar: K
Encoding: 75 75 42
Width: 680
Flags: HMW
HStem: -4 21G<35 35 287 287 417 417 669 669> 0 54 651 54 693 20G<287 287 623 623>
VStem: 117 91<154.5 167 167 538>
LayerCount: 2
Fore
SplineSet
218 353 m 1,0,-1
 400 577 l 1,1,-1
 441 649 l 1,2,-1
 387 657 l 1,3,-1
 392 710 l 1,4,-1
 422 707 l 1,5,6
 456 705 456 705 499 705 c 128,-1,7
 542 705 542 705 578 709 c 2,8,-1
 623 713 l 1,9,-1
 629 654 l 1,10,-1
 555 648 l 1,11,12
 523 620 523 620 449 546 c 1,13,-1
 316 370 l 1,14,15
 332 352 332 352 406.5 264 c 128,-1,16
 481 176 481 176 523 129 c 1,17,18
 569 83 569 83 605 56 c 1,19,-1
 675 51 l 1,20,-1
 669 -4 l 1,21,-1
 616 -2 l 2,22,23
 554 0 554 0 520.5 0 c 128,-1,24
 487 0 487 0 449 -2 c 2,25,-1
 417 -4 l 1,26,-1
 412 48 l 1,27,-1
 457 53 l 1,28,29
 413 127 413 127 384 164 c 1,30,31
 370.857142857 177.142857143 370.857142857 177.142857143 339.428571429 213.571428571 c 128,-1,32
 308 250 308 250 293 267 c 2,33,-1
 218 353 l 1,0,-1
117 137 m 2,34,-1
 117 568 l 2,35,36
 117 583 117 583 112.5 608.5 c 128,-1,37
 108 634 108 634 107 648 c 1,38,-1
 30 657 l 1,39,-1
 35 710 l 1,40,-1
 67 707 l 1,41,42
 105 705 105 705 149 705 c 128,-1,43
 193 705 193 705 234 709 c 2,44,-1
 287 713 l 1,45,-1
 293 654 l 1,46,-1
 215 648 l 1,47,-1
 211 612 l 2,48,49
 208 591 208 591 208 538 c 2,50,-1
 208 167 l 2,51,52
 208 114 208 114 211 93 c 2,53,-1
 215 57 l 1,54,-1
 293 51 l 1,55,-1
 287 -4 l 1,56,-1
 234 -2 l 2,57,58
 172 0 172 0 138.5 0 c 128,-1,59
 105 0 105 0 67 -2 c 2,60,-1
 35 -4 l 1,61,-1
 30 48 l 1,62,-1
 107 57 l 1,63,64
 108 66 108 66 112.5 91.5 c 128,-1,65
 117 117 117 117 117 137 c 2,34,-1
EndSplineSet
EndChar

StartChar: L
Encoding: 76 76 43
Width: 516
Flags: HMW
HStem: -4 21G<35 35 486 486> 0 57<107 130 215 333 333 348.5> 651 54 693 20G<287 287>
VStem: 117 91<154.5 167 167 538>
LayerCount: 2
Fore
SplineSet
208 538 m 2,0,-1
 208 167 l 2,1,2
 208 114 208 114 211 93 c 2,3,-1
 215 57 l 1,4,-1
 333 57 l 2,5,6
 368 57 368 57 420 66 c 1,7,8
 435 86 435 86 441 103 c 1,9,10
 442 111 442 111 448.5 137.5 c 128,-1,11
 455 164 455 164 456 170 c 1,12,-1
 511 165 l 1,13,-1
 496 7 l 1,14,-1
 486 -4 l 1,15,-1
 432 -2 l 2,16,17
 376 0 376 0 363 0 c 2,18,-1
 130 0 l 2,19,20
 105 0 105 0 67 -2 c 2,21,-1
 35 -4 l 1,22,-1
 30 48 l 1,23,-1
 107 57 l 1,24,25
 108 66 108 66 112.5 91.5 c 0,26,27
 117 117 117 117 117 137 c 2,28,-1
 117 568 l 2,29,30
 117 583 117 583 112.5 608.5 c 0,31,32
 108 634 108 634 107 648 c 1,33,-1
 30 657 l 1,34,-1
 35 710 l 1,35,-1
 67 707 l 1,36,37
 105 705 105 705 149 705 c 0,38,39
 193 705 193 705 234 709 c 2,40,-1
 287 713 l 1,41,-1
 293 654 l 1,42,-1
 215 648 l 1,43,-1
 211 612 l 2,44,45
 208 591 208 591 208 538 c 2,0,-1
EndSplineSet
EndChar

StartChar: M
Encoding: 77 77 44
Width: 941
Flags: HMW
HStem: -4 21G<33 33 268 268 644 644 908 908> 0 54 651 54 693 20G<68 68 862 862>
VStem: 136 64 710 91
LayerCount: 2
Fore
SplineSet
716 57 m 1,0,-1
 721 162 l 1,1,-1
 700 529 l 1,2,-1
 473 0 l 1,3,-1
 436 0 l 1,4,-1
 209 530 l 1,5,-1
 191 162 l 2,6,7
 191 143 191 143 193 97 c 1,8,-1
 196 57 l 1,9,-1
 274 51 l 1,10,-1
 268 -4 l 1,11,-1
 224 -2 l 2,12,13
 170 0 170 0 136.5 0 c 128,-1,14
 103 0 103 0 65 -2 c 2,15,-1
 33 -4 l 1,16,-1
 28 48 l 1,17,-1
 105 57 l 1,18,19
 106 60 106 60 108.5 71 c 128,-1,20
 111 82 111 82 113 88.5 c 128,-1,21
 115 95 115 95 118 110.5 c 128,-1,22
 121 126 121 126 123 132 c 1,23,-1
 149 569 l 2,24,25
 149 584 149 584 144.5 609.5 c 128,-1,26
 140 635 140 635 139 649 c 1,27,-1
 63 657 l 1,28,-1
 68 713 l 1,29,-1
 115 709 l 2,30,31
 151 705 151 705 177 705 c 128,-1,32
 203 705 203 705 233 707 c 2,33,-1
 259 709 l 1,34,-1
 265 703 l 1,35,-1
 288 621 l 2,36,37
 314 529 314 529 317 521 c 2,38,-1
 474 144 l 1,39,-1
 633 537 l 2,40,41
 639 551 639 551 659.5 618 c 128,-1,42
 680 685 680 685 685 703 c 1,43,-1
 691 709 l 1,44,-1
 709 707 l 2,45,46
 731 705 731 705 757.5 705 c 128,-1,47
 784 705 784 705 817 709 c 1,48,-1
 862 713 l 1,49,-1
 868 654 l 1,50,-1
 790 648 l 1,51,-1
 787 616 l 1,52,53
 784 599 784 599 784 569 c 1,54,-1
 818 132 l 2,55,56
 819 124 819 124 824.5 103 c 128,-1,57
 830 82 830 82 832.5 71 c 128,-1,58
 835 60 835 60 836 57 c 1,59,-1
 913 48 l 1,60,-1
 908 -4 l 1,61,-1
 875 -2 l 2,62,63
 837 0 837 0 802.5 0 c 128,-1,64
 768 0 768 0 702 -2 c 2,65,-1
 644 -4 l 1,66,-1
 638 51 l 1,67,-1
 716 57 l 1,0,-1
EndSplineSet
EndChar

StartChar: N
Encoding: 78 78 45
Width: 764
Flags: HMW
HStem: -9 21G<37 37> -7 21G<578 638 578 578> 0 54 651 54 693 20G<728 728>
VStem: 117 67<154.5 167 167 556> 572 67<286.5 297 297 528>
LayerCount: 2
Fore
SplineSet
639 297 m 1,0,-1
 638 130 l 1,1,-1
 638 -7 l 1,2,-1
 578 -7 l 1,3,-1
 184 556 l 1,4,-1
 184 167 l 2,5,6
 184 114 184 114 187 93 c 2,7,-1
 191 57 l 1,8,-1
 269 51 l 1,9,-1
 263 -4 l 1,10,-1
 227 -2 l 2,11,12
 181 0 181 0 144.5 0 c 128,-1,13
 108 0 108 0 73 -5 c 1,14,-1
 37 -9 l 1,15,-1
 30 48 l 1,16,-1
 107 57 l 1,17,18
 108 66 108 66 112.5 91.5 c 128,-1,19
 117 117 117 117 117 137 c 2,20,-1
 117 568 l 2,21,22
 117 584 117 584 112.5 611 c 128,-1,23
 108 638 108 638 107 649 c 1,24,-1
 31 657 l 1,25,-1
 36 710 l 1,26,-1
 78 707 l 1,27,28
 124 705 124 705 146 705 c 128,-1,29
 168 705 168 705 198 707 c 2,30,-1
 223 709 l 1,31,-1
 228 703 l 1,32,33
 243 667 243 667 272.5 604 c 128,-1,34
 302 541 302 541 310 530 c 2,35,-1
 572 163 l 1,36,-1
 572 558 l 2,37,38
 572 577 572 577 567.5 605 c 128,-1,39
 563 633 563 633 562 648 c 1,40,-1
 485 656 l 1,41,-1
 490 710 l 1,42,-1
 522 707 l 1,43,44
 560 705 560 705 603 705 c 128,-1,45
 646 705 646 705 682 709 c 2,46,-1
 728 713 l 1,47,-1
 734 654 l 1,48,-1
 656 648 l 1,49,-1
 647 607 l 1,50,51
 639 559 639 559 639 528 c 2,52,-1
 639 297 l 1,0,-1
EndSplineSet
EndChar

StartChar: O
Encoding: 79 79 46
Width: 746
Flags: HMW
HStem: -15 53<298.5 447.5 298.5 481.5> 667 53<298.5 447.5>
VStem: 45 107<265 439.5 265 461> 594 107<265 439.5>
LayerCount: 2
Fore
SplineSet
616.5 620 m 128,-1,1
 701 520 701 520 701 352.5 c 128,-1,2
 701 185 701 185 616.5 85 c 128,-1,3
 532 -15 532 -15 373 -15 c 128,-1,4
 214 -15 214 -15 129.5 85 c 128,-1,5
 45 185 45 185 45 352.5 c 128,-1,6
 45 520 45 520 129.5 620 c 128,-1,7
 214 720 214 720 373 720 c 128,-1,0
 532 720 532 720 616.5 620 c 128,-1,1
152 352 m 128,-1,9
 152 214 152 214 209 126 c 128,-1,10
 266 38 266 38 373 38 c 128,-1,11
 480 38 480 38 537 126 c 128,-1,12
 594 214 594 214 594 352 c 128,-1,13
 594 490 594 490 537 578.5 c 128,-1,14
 480 667 480 667 373 667 c 128,-1,15
 266 667 266 667 209 578.5 c 128,-1,8
 152 490 152 490 152 352 c 128,-1,9
EndSplineSet
EndChar

StartChar: P
Encoding: 80 80 47
Width: 557
Flags: HMW
HStem: -9 21G<37 37> 0 58 291 50<282.5 329 268.5 364> 665 50<293.5 330>
VStem: 117 92<154.5 167 167 292 345 538> 449 94<448 556>
LayerCount: 2
Fore
SplineSet
136 705 m 1,0,-1
 320 715 l 1,1,2
 426 715 426 715 484.5 661 c 128,-1,3
 543 607 543 607 543 505.5 c 128,-1,4
 543 404 543 404 472.5 347.5 c 128,-1,5
 402 291 402 291 297 291 c 0,6,7
 237 291 237 291 209 292 c 1,8,-1
 209 167 l 2,9,10
 209 111.5 209 111.5 218 62 c 1,11,-1
 314 55 l 1,12,-1
 308 -4 l 1,13,-1
 255 -2 l 2,14,15
 193 0 193 0 154.5 0 c 128,-1,16
 116 0 116 0 78 -5 c 1,17,-1
 37 -9 l 1,18,-1
 30 48 l 1,19,-1
 107 57 l 1,20,21
 108 66 108 66 112.5 91.5 c 128,-1,22
 117 117 117 117 117 137 c 2,23,-1
 117 568 l 2,24,25
 117 583 117 583 112.5 608.5 c 128,-1,26
 108 634 108 634 107 648 c 1,27,-1
 30 660 l 1,28,-1
 35 710 l 1,29,-1
 67 707 l 1,30,31
 105 705 105 705 130 705 c 2,32,-1
 136 705 l 1,0,-1
277 341 m 0,33,34
 357 341 357 341 403 382 c 128,-1,35
 449 423 449 423 449 502 c 128,-1,36
 449 581 449 581 403.5 623 c 128,-1,37
 358 665 358 665 278 665 c 0,38,39
 256 665 256 665 216 660 c 1,40,-1
 216 658 l 1,41,-1
 212 617 l 2,42,43
 209 593 209 593 209 538 c 2,44,-1
 209 345 l 1,45,46
 242 341 242 341 277 341 c 0,33,34
EndSplineSet
EndChar

StartChar: Q
Encoding: 81 81 48
Width: 751
Flags: HMW
HStem: -224 21G<672 672> -15 53<298.5 379.5> 667 53<298.5 447.5>
VStem: 45 107<265 439.5 265 461> 594 107<265 439.5>
LayerCount: 2
Fore
SplineSet
701 352 m 0,0,1
 701 218 701 218 645.5 126 c 128,-1,2
 590 34 590 34 486 1 c 1,3,-1
 573 -60 l 2,4,5
 580 -66 580 -66 643 -94 c 0,6,7
 706 -122 706 -122 731 -132 c 1,8,-1
 672 -224 l 1,9,-1
 410 -13 l 1,10,11
 386 -15 386 -15 373 -15 c 0,12,13
 214 -15 214 -15 129.5 85 c 128,-1,14
 45 185 45 185 45 352.5 c 0,15,16
 45 520 45 520 129.5 620 c 128,-1,17
 214 720 214 720 373 720 c 128,-1,18
 532 720 532 720 616.5 620 c 128,-1,19
 701 520 701 520 701 352 c 0,0,1
152 352 m 128,-1,21
 152 214 152 214 209 126 c 128,-1,22
 266 38 266 38 373 38 c 128,-1,23
 480 38 480 38 537 126 c 128,-1,24
 594 214 594 214 594 352 c 128,-1,25
 594 490 594 490 537 578.5 c 128,-1,26
 480 667 480 667 373 667 c 128,-1,27
 266 667 266 667 209 578.5 c 128,-1,20
 152 490 152 490 152 352 c 128,-1,21
EndSplineSet
EndChar

StartChar: R
Encoding: 82 82 49
Width: 617
Flags: HMW
HStem: -9 21G<37 37> 0 21G<140 167.5 456 456 497 515> 320 51<282.5 297> 665 50<293.5 328>
VStem: 117 92<154.5 167 167 321 374 538> 443 97<469 567.5>
LayerCount: 2
Fore
SplineSet
136 705 m 1,0,-1
 320 715 l 1,1,2
 424 715 424 715 482 664.5 c 128,-1,3
 540 614 540 614 540 517 c 0,4,5
 540 448 540 448 498.5 400 c 128,-1,6
 457 352 457 352 389 332 c 1,7,8
 468 175 468 175 495 131 c 0,9,10
 495 130 495 130 545 59 c 1,11,-1
 612 48 l 1,12,-1
 608 -4 l 1,13,-1
 571 -2 l 2,14,15
 529 0 529 0 513.5 0 c 128,-1,16
 498 0 498 0 462 -4 c 1,17,-1
 456 0 l 1,18,19
 416.111111111 91.1746031746 416.111111111 91.1746031746 401 116 c 1,20,-1
 297 320 l 1,21,22
 237 320 237 320 209 321 c 1,23,-1
 209 167 l 2,24,25
 209 115 209 115 212 94 c 2,26,-1
 216 58 l 1,27,-1
 284 51 l 1,28,-1
 278 -4 l 1,29,-1
 240 -2 l 2,30,31
 194 0 194 0 155 0 c 128,-1,32
 116 0 116 0 78 -5 c 1,33,-1
 37 -9 l 1,34,-1
 30 48 l 1,35,-1
 107 57 l 1,36,37
 108 66 108 66 112.5 91.5 c 128,-1,38
 117 117 117 117 117 137 c 2,39,-1
 117 568 l 2,40,41
 117 583 117 583 112.5 608.5 c 128,-1,42
 108 634 108 634 107 648 c 1,43,-1
 30 660 l 1,44,-1
 35 710 l 1,45,-1
 67 707 l 1,46,47
 105 705 105 705 130 705 c 2,48,-1
 136 705 l 1,0,-1
277 371 m 0,49,50
 354 371 354 371 398.5 408.5 c 128,-1,51
 443 446 443 446 443 518 c 128,-1,52
 443 590 443 590 399 627.5 c 128,-1,53
 355 665 355 665 278 665 c 0,54,55
 256 665 256 665 216 660 c 1,56,-1
 216 658 l 1,57,-1
 212 617 l 2,58,59
 209 593 209 593 209 538 c 2,60,-1
 209 374 l 1,61,62
 234 371 234 371 277 371 c 0,49,50
EndSplineSet
EndChar

StartChar: S
Encoding: 83 83 50
Width: 549
Flags: HMW
HStem: -15 60<241.5 307 241.5 331> 665 55<234 287.5>
VStem: 51 100<514.5 591 514.5 595> 399 105<129.5 212>
LayerCount: 2
Fore
SplineSet
349 263 m 0,0,1
 316.307692308 287.846153846 316.307692308 287.846153846 274.153846154 308.923076923 c 2,2,-1
 229 331.5 l 2,3,4
 226 333 226 333 223 334 c 0,5,6
 141 374 141 374 96 418.5 c 128,-1,7
 51 463 51 463 51 542.5 c 128,-1,8
 51 622 51 622 111.5 671 c 128,-1,9
 172 720 172 720 257 720 c 128,-1,10
 342 720 342 720 470 688 c 1,11,-1
 456 541 l 1,12,-1
 397 547 l 1,13,-1
 397 587 l 2,14,15
 397 597 397 597 383 643 c 1,16,17
 330 665 330 665 273 665 c 128,-1,18
 216 665 216 665 183.5 636 c 128,-1,19
 151 607 151 607 151 554 c 0,20,21
 151 501.5 151 501.5 201 464.5 c 0,22,23
 235.723685537 438.804472702 235.723685537 438.804472702 275.361842769 419.402236351 c 128,-1,24
 315 400 315 400 317 399 c 0,25,26
 364.428571429 375.285714286 364.428571429 375.285714286 391.214285714 358.142857143 c 128,-1,27
 418 341 418 341 447 315.5 c 0,28,29
 504 265.379310345 504 265.379310345 504 175.689655172 c 128,-1,30
 504 86 504 86 437 35.5 c 128,-1,31
 370 -15 370 -15 276.5 -15 c 128,-1,32
 183 -15 183 -15 105 11 c 0,33,34
 72 21.5 72 21.5 45 38 c 1,35,-1
 60 192 l 1,36,-1
 126 186 l 1,37,-1
 126 138 l 2,38,39
 126 123 126 123 137 72 c 1,40,41
 200 45 200 45 264 45 c 128,-1,42
 328 45 328 45 363.5 77.5 c 128,-1,43
 399 110 399 110 399 167.5 c 128,-1,44
 399 225 399 225 349 263 c 0,0,1
EndSplineSet
EndChar

StartChar: T
Encoding: 84 84 51
Width: 606
Flags: HMW
HStem: -4 21G<176 176 438 438> 0 21G<261 288.5> 649 56<170 248 170 170 355 355 355 436>
VStem: 258 91<154.5 167 167 538>
LayerCount: 2
Fore
SplineSet
355 649 m 1,0,-1
 349 538 l 1,1,-1
 349 167 l 2,2,3
 349 115 349 115 352 94 c 2,4,-1
 356 59 l 1,5,-1
 444 51 l 1,6,-1
 438 -4 l 1,7,-1
 380 -2 l 2,8,9
 314 0 314 0 280 0 c 128,-1,10
 246 0 246 0 208 -2 c 2,11,-1
 176 -4 l 1,12,-1
 171 48 l 1,13,-1
 248 57 l 1,14,15
 249 66 249 66 253.5 91.5 c 128,-1,16
 258 117 258 117 258 137 c 2,17,-1
 258 568 l 2,18,19
 258 580 258 580 254 611.5 c 128,-1,20
 250 643 250 643 248 649 c 1,21,-1
 170 649 l 1,22,23
 123 647 123 647 103 644 c 1,24,25
 85 618 85 618 83 608.5 c 128,-1,26
 81 599 81 599 73 556 c 1,27,-1
 15 561 l 1,28,-1
 22 704 l 1,29,-1
 32 715 l 1,30,31
 129.5 705 129.5 705 155 705 c 2,32,-1
 451 705 l 2,33,34
 476.5 705 476.5 705 574 715 c 1,35,-1
 584 704 l 1,36,-1
 591 561 l 1,37,-1
 533 556 l 1,38,39
 525 599 525 599 521 612 c 128,-1,40
 517 625 517 625 502 644 c 1,41,42
 483 647 483 647 436 649 c 1,43,-1
 355 649 l 1,0,-1
EndSplineSet
EndChar

StartChar: U
Encoding: 85 85 52
Width: 749
Flags: HMW
HStem: -15 64<327 444 327 460.5> 651 54 693 20G<291 291 713 713>
VStem: 117 95<280 533> 562 72<275 533>
LayerCount: 2
Fore
SplineSet
562 275 m 2,0,-1
 562 563 l 2,1,2
 562 575 562 575 557 604.5 c 0,3,4
 552 634 552 634 551 648 c 1,5,-1
 475 656 l 1,6,-1
 480 710 l 1,7,-1
 504 707 l 1,8,9
 534 705 534 705 582 705 c 0,10,11
 630 705 630 705 667 709 c 2,12,-1
 713 713 l 1,13,-1
 719 654 l 1,14,-1
 641 648 l 1,15,-1
 637 609 l 2,16,17
 634 586 634 586 634 533 c 2,18,-1
 634 275 l 2,19,20
 634 143 634 143 567 64 c 128,-1,21
 500 -15 500 -15 375.5 -15 c 0,22,23
 251 -15 251 -15 184 66 c 128,-1,24
 117 147 117 147 117 280 c 2,25,-1
 117 563 l 2,26,27
 117 581 117 581 112.5 607.5 c 0,28,29
 108 634 108 634 107 648 c 1,30,-1
 30 660 l 1,31,-1
 35 710 l 1,32,-1
 67 707 l 1,33,34
 105 705 105 705 150.5 705 c 0,35,36
 196 705 196 705 237 709 c 2,37,-1
 291 713 l 1,38,-1
 297 654 l 1,39,-1
 219 648 l 1,40,-1
 215 609 l 2,41,42
 212 586 212 586 212 533 c 2,43,-1
 212 275 l 2,44,45
 212 175 212 175 257 112 c 128,-1,46
 302 49 302 49 386 49 c 0,47,48
 470 49 470 49 516 112.5 c 128,-1,49
 562 176 562 176 562 275 c 2,0,-1
EndSplineSet
EndChar

StartChar: V
Encoding: 86 86 53
Width: 685
Flags: HMW
HStem: 0 21G<326 386 326 326> 685 20G<104.5 132.5 533.5 561.5> 692 20G<250 250 679 679>
LayerCount: 2
Fore
SplineSet
386 0 m 1,0,-1
 326 0 l 1,1,-1
 100 559 l 1,2,3
 75 606 75 606 50 647 c 1,4,-1
 5 651 l 1,5,-1
 9 710 l 1,6,-1
 49 707 l 1,7,8
 95 705 95 705 134.25 705 c 0,9,10
 173.5 705 173.5 705 211 708 c 2,11,-1
 250 712 l 1,12,-1
 252 649 l 1,13,-1
 182 642 l 1,14,15
 211 530 211 530 213 526 c 2,16,-1
 365 151 l 1,17,-1
 509 578 l 1,18,19
 513 597 513 597 519 644 c 1,20,-1
 444 654 l 1,21,-1
 449 711 l 1,22,-1
 484 708 l 1,23,24
 503 705 503 705 552.75 705 c 0,25,26
 602.5 705 602.5 705 640 708 c 2,27,-1
 679 712 l 1,28,-1
 680 651 l 1,29,-1
 620 643 l 1,30,31
 573 565 573 565 569 545 c 1,32,-1
 386 6 l 1,33,-1
 386 0 l 1,0,-1
EndSplineSet
EndChar

StartChar: W
Encoding: 87 87 54
Width: 995
Flags: HMW
HStem: 0 21G<290 341 290 290 670 721 670 670> 685 20G<104.5 132.5 843.5 871.5> 692 20G<250 250 989 989>
LayerCount: 2
Fore
SplineSet
330 167 m 1,0,-1
 481 696 l 1,1,-1
 527 696 l 1,2,-1
 709 167 l 1,3,-1
 817 578 l 2,4,5
 821 597 821 597 827 644 c 1,6,-1
 754 654 l 1,7,-1
 759 711 l 1,8,-1
 794 708 l 1,9,10
 813 705 813 705 862.75 705 c 0,11,12
 912.5 705 912.5 705 950 708 c 2,13,-1
 989 712 l 1,14,-1
 990 651 l 1,15,-1
 933 644 l 1,16,17
 887 571 887 571 883 545 c 1,18,-1
 721 0 l 1,19,-1
 670 0 l 1,20,-1
 490 507 l 1,21,22
 469 438 469 438 421 266.5 c 128,-1,23
 373 95 373 95 341 0 c 1,24,-1
 290 0 l 1,25,-1
 94 559 l 1,26,27
 61 619 61 619 45 647 c 1,28,-1
 5 651 l 1,29,-1
 9 710 l 1,30,-1
 49 707 l 1,31,32
 95 705 95 705 134.25 705 c 0,33,34
 173.5 705 173.5 705 211 708 c 2,35,-1
 250 712 l 1,36,-1
 252 649 l 1,37,-1
 177 642 l 1,38,39
 202 538 202 538 207 526 c 2,40,-1
 330 167 l 1,0,-1
EndSplineSet
EndChar

StartChar: X
Encoding: 88 88 55
Width: 703
Flags: HMW
HStem: -9 21G<262 262 691 691> 0 53 647 58 692 20G<269 269 672 672>
LayerCount: 2
Fore
SplineSet
5 51 m 1,0,-1
 62 55 l 1,1,2
 69 63 69 63 110.5 107 c 128,-1,3
 152 151 152 151 162 164 c 2,4,-1
 295 358 l 1,5,-1
 158 558 l 1,6,-1
 94 644 l 1,7,-1
 11 650 l 1,8,-1
 15 710 l 1,9,-1
 47 707 l 1,10,11
 85 705 85 705 135 705 c 0,12,13
 185 705 185 705 216 708 c 2,14,-1
 269 712 l 1,15,-1
 271 650 l 1,16,-1
 222 644 l 1,17,18
 236 602 236 602 265 555 c 1,19,-1
 356 423 l 1,20,-1
 457 578 l 2,21,22
 466 590 466 590 491 645 c 1,23,-1
 412 655 l 1,24,-1
 417 710 l 1,25,-1
 449 707 l 1,26,27
 487 705 487 705 537 705 c 0,28,29
 587 705 587 705 618 708 c 2,30,-1
 672 712 l 1,31,-1
 676 652 l 1,32,-1
 603 643 l 1,33,34
 555 601 555 601 528 569 c 1,35,-1
 394 368 l 1,36,-1
 559 132 l 1,37,38
 581 105 581 105 625 56 c 1,39,-1
 698 48 l 1,40,-1
 691 -9 l 1,41,-1
 636 -5 l 1,42,43
 583 0 583 0 543 0 c 0,44,45
 503 0 503 0 469 -2 c 2,46,-1
 440 -4 l 1,47,-1
 434 51 l 1,48,-1
 491 55 l 1,49,50
 463 118 463 118 444 142 c 1,51,-1
 332 303 l 1,52,-1
 217 132 l 2,53,54
 204 113 204 113 179 57 c 1,55,-1
 269 48 l 1,56,-1
 262 -9 l 1,57,-1
 207 -5 l 1,58,59
 154 0 154 0 114 0 c 0,60,61
 74 0 74 0 40 -2 c 2,62,-1
 11 -4 l 1,63,-1
 5 51 l 1,0,-1
EndSplineSet
EndChar

StartChar: Y
Encoding: 89 89 56
Width: 645
Flags: HMW
HStem: -4 21G<189 189 443 443> 0 54 685 20G<104.5 132.5 493.5 521.5> 692 20G<250 250 639 639>
LayerCount: 2
Fore
SplineSet
184 48 m 1,0,-1
 261 57 l 1,1,2
 262 66 262 66 266.5 91.5 c 0,3,4
 271 117 271 117 271 137 c 2,5,-1
 271 270 l 1,6,-1
 119 559 l 1,7,8
 94 592 94 592 45 647 c 1,9,-1
 5 651 l 1,10,-1
 9 710 l 1,11,-1
 49 707 l 1,12,13
 95 705 95 705 134.25 705 c 0,14,15
 173.5 705 173.5 705 211 708 c 2,16,-1
 250 712 l 1,17,-1
 252 649 l 1,18,-1
 189 643 l 1,19,20
 225 543 225 543 234 526 c 2,21,-1
 326 346 l 1,22,-1
 444 578 l 2,23,24
 449 588 449 588 468 646 c 1,25,-1
 404 654 l 1,26,-1
 409 711 l 1,27,-1
 444 708 l 1,28,29
 463 705 463 705 512.75 705 c 0,30,31
 562.5 705 562.5 705 600 708 c 2,32,-1
 639 712 l 1,33,-1
 640 651 l 1,34,-1
 572 642 l 1,35,-1
 496 546 l 1,36,-1
 364 292 l 1,37,-1
 364 167 l 2,38,39
 364 114 364 114 367 93 c 2,40,-1
 371 57 l 1,41,-1
 449 51 l 1,42,-1
 443 -4 l 1,43,-1
 390 -2 l 2,44,45
 328 0 328 0 293.5 0 c 0,46,47
 259 0 259 0 221 -2 c 2,48,-1
 189 -4 l 1,49,-1
 184 48 l 1,0,-1
EndSplineSet
EndChar

StartChar: Z
Encoding: 90 90 57
Width: 551
Flags: HMW
HStem: -4 21G<506 506> 0 59<157 353 353 359.5 157 383> 646 59<207 214 214 399>
LayerCount: 2
Fore
SplineSet
61 715 m 1,0,1
 158.5 705 158.5 705 184 705 c 2,2,-1
 515 705 l 1,3,-1
 522 649 l 1,4,5
 438 530 438 530 413 494 c 1,6,-1
 227 191 l 1,7,-1
 157 59 l 1,8,-1
 353 59 l 2,9,10
 382 59 382 59 444 71 c 1,11,12
 456 89 456 89 461 103 c 1,13,-1
 476 180 l 1,14,-1
 531 175 l 1,15,-1
 516 7 l 1,16,-1
 506 -4 l 1,17,-1
 452 -2 l 2,18,19
 396 0 396 0 383 0 c 2,20,-1
 27 0 l 1,21,-1
 20 57 l 1,22,-1
 72 123 l 2,23,24
 127 194 127 194 143 219 c 2,25,-1
 332 520 l 1,26,-1
 399 646 l 1,27,-1
 214 646 l 2,28,29
 200 646 200 646 128 638 c 1,30,31
 114 617 114 617 112.5 609 c 128,-1,32
 111 601 111 601 107 575.5 c 128,-1,33
 103 550 103 550 102 546 c 1,34,-1
 44 551 l 1,35,-1
 51 704 l 1,36,-1
 61 715 l 1,0,1
EndSplineSet
EndChar

StartChar: bracketleft
Encoding: 91 91 58
Width: 265
Flags: HMW
HStem: -141 20G<88 105.5> -125 21G<252 252> 746 20G<252 252>
VStem: 85 69<90 551 551 556.5>
LayerCount: 2
Fore
SplineSet
75 -108 m 1,0,-1
 85 90 l 1,1,-1
 85 551 l 1,2,-1
 75 749 l 1,3,-1
 88 762 l 1,4,5
 132 762 132 762 196 764 c 2,6,-1
 252 766 l 1,7,-1
 255 723 l 1,8,-1
 168 711 l 1,9,10
 154 655 154 655 154 601 c 2,11,-1
 154 40 l 2,12,13
 154 -14 154 -14 168 -70 c 1,14,-1
 255 -82 l 1,15,-1
 252 -125 l 1,16,-1
 196 -123 l 2,17,18
 132 -121 132 -121 88 -121 c 1,19,-1
 75 -108 l 1,0,-1
EndSplineSet
EndChar

StartChar: backslash
Encoding: 92 92 59
Width: 398
Flags: HMW
HStem: -67 21G<317 317> 753 20G
LayerCount: 2
Fore
SplineSet
381 -47 m 1,0,-1
 317 -67 l 1,1,-1
 7 753 l 1,2,-1
 70 773 l 1,3,-1
 381 -47 l 1,0,-1
EndSplineSet
EndChar

StartChar: bracketright
Encoding: 93 93 60
Width: 265
Flags: HMW
HStem: -125 21G<13 13> 742 20G<159.5 177> 746 20G<13 13>
VStem: 111 69<84.5 90 90 551>
LayerCount: 2
Fore
SplineSet
180 551 m 2,0,-1
 180 90 l 2,1,2
 180 63 180 63 185 -17 c 2,3,-1
 190 -108 l 1,4,-1
 177 -121 l 1,5,6
 133 -121 133 -121 69 -123 c 2,7,-1
 13 -125 l 1,8,-1
 10 -82 l 1,9,-1
 97 -70 l 1,10,11
 101 -46 101 -46 104 -34 c 1,12,13
 111 15 111 15 111 40 c 2,14,-1
 111 601 l 2,15,16
 111 626 111 626 104 675 c 1,17,18
 101 687 101 687 97 711 c 1,19,-1
 10 723 l 1,20,-1
 13 766 l 1,21,-1
 69 764 l 2,22,23
 133 762 133 762 177 762 c 1,24,-1
 190 749 l 1,25,-1
 185 657 l 2,26,27
 180 579 180 579 180 551 c 2,0,-1
EndSplineSet
EndChar

StartChar: asciicircum
Encoding: 94 94 61
Width: 560
Flags: HMW
HStem: 313 21G<73 73 487 487> 708 20G<280 280>
LayerCount: 2
Fore
SplineSet
280 615 m 1,0,-1
 73 313 l 1,1,-1
 10 357 l 1,2,-1
 280 728 l 1,3,-1
 550 357 l 1,4,-1
 487 313 l 1,5,-1
 280 615 l 1,0,-1
EndSplineSet
EndChar

StartChar: underscore
Encoding: 95 95 62
Width: 504
Flags: HMW
HStem: -232 75<2 2 2 499>
LayerCount: 2
Fore
SplineSet
2 -232 m 1,0,-1
 0 -157 l 1,1,-1
 504 -157 l 1,2,-1
 499 -232 l 1,3,-1
 2 -232 l 1,0,-1
EndSplineSet
EndChar

StartChar: grave
Encoding: 96 96 63
Width: 241
Flags: HMW
HStem: 564 21G<208 208> 745 20G<49 49>
LayerCount: 2
Fore
SplineSet
0 703 m 1,0,-1
 49 765 l 1,1,-1
 241 605 l 1,2,-1
 208 564 l 1,3,-1
 134 625 l 1,4,5
 119.5 632.25 119.5 632.25 61 668 c 1,6,-1
 0 703 l 1,0,-1
EndSplineSet
EndChar

StartChar: a
Encoding: 97 97 64
Width: 513
Flags: HMW
HStem: -10 64<177.5 212> 0 21G<358 379.5> 449 54<219.5 278>
VStem: 40 88<104.5 142 104.5 158.5> 334 81<167 227 227 227 278 291>
LayerCount: 2
Fore
SplineSet
80 344 m 1,0,-1
 69 479 l 1,1,2
 159 503 159 503 251.5 503 c 128,-1,3
 344 503 344 503 379.5 451 c 128,-1,4
 415 399 415 399 415 291 c 2,5,-1
 415 137 l 2,6,7
 415 114.5 415 114.5 425 57 c 1,8,-1
 494 52 l 1,9,-1
 488 -4 l 1,10,-1
 455 -2 l 2,11,12
 409 0 409 0 358 0 c 1,13,-1
 344 79 l 1,14,15
 324 42 324 42 276.5 16 c 128,-1,16
 229 -10 229 -10 171 -10 c 128,-1,17
 113 -10 113 -10 76.5 25.5 c 128,-1,18
 40 61 40 61 40 117.5 c 128,-1,19
 40 174 40 174 69 203 c 128,-1,20
 98 232 98 232 142 243.5 c 128,-1,21
 186 255 186 255 334 278 c 1,22,-1
 334 311 l 2,23,24
 334 449 334 449 240 449 c 0,25,26
 185 449 185 449 147 430 c 1,27,28
 138 385 138 385 138 383 c 2,29,-1
 138 347 l 1,30,-1
 80 344 l 1,0,-1
128 128 m 0,31,32
 128 54 128 54 209 54 c 0,33,34
 252 54 252 54 289 86 c 128,-1,35
 326 118 326 118 334 167 c 1,36,-1
 334 227 l 1,37,38
 329 226 329 226 276.5 217 c 128,-1,39
 224 208 224 208 191 200 c 0,40,41
 128 184 128 184 128 128 c 0,31,32
EndSplineSet
EndChar

StartChar: b
Encoding: 98 98 65
Width: 549
Flags: HMW
HStem: -10 56<255 327.5 255 350.5> 442 61<272 344.5> 736 20G<119 134.5> 746 20G<10 10>
VStem: 91 81<145 167 167 297 428 589> 419 90<199 303.5>
LayerCount: 2
Fore
SplineSet
446 67.5 m 128,-1,1
 383 -10 383 -10 279.8 -10 c 128,-1,2
 176.6 -10 176.6 -10 83 26 c 1,3,-1
 87 73 l 1,4,5
 91 106 91 106 91 136 c 2,6,-1
 91 620 l 2,7,8
 91 635 91 635 86.5 660.5 c 128,-1,9
 82 686 82 686 81 700 c 1,10,-1
 5 712 l 1,11,-1
 10 766 l 1,12,13
 87.5 756 87.5 756 113.75 756 c 128,-1,14
 140 756 140 756 158 758 c 2,15,-1
 173 760 l 1,16,-1
 179 754 l 1,17,-1
 175 690 l 2,18,19
 172 655 172 655 172 589 c 2,20,-1
 172 428 l 1,21,22
 190 456 190 456 225.5 479.5 c 128,-1,23
 261 503 261 503 304 503 c 0,24,25
 406 503 406 503 457.5 435.5 c 128,-1,26
 509 368 509 368 509 256.5 c 128,-1,0
 509 145 509 145 446 67.5 c 128,-1,1
172 167 m 1,27,-1
 178 58 l 1,28,29
 226 46 226 46 273 46 c 0,30,31
 349 46 349 46 384 104 c 128,-1,32
 419 162 419 162 419 254 c 0,33,34
 419 442 419 442 296 442 c 0,35,36
 236 442 236 442 204.5 396.5 c 128,-1,37
 173 351 173 351 173 284 c 1,38,-1
 172 297 l 1,39,-1
 172 167 l 1,27,-1
EndSplineSet
EndChar

StartChar: c
Encoding: 99 99 66
Width: 483
Flags: HMW
HStem: -10 65<220 289.5 220 295> 446 57<220 284.5>
VStem: 40 94<196 296 196 322.5>
LayerCount: 2
Fore
SplineSet
167 109 m 128,-1,1
 200 55 200 55 270.636363636 55 c 128,-1,2
 341.272727273 55 341.272727273 55 410 91 c 1,3,-1
 438 44 l 1,4,5
 419 28 419 28 392 17 c 1,6,7
 340 -10 340 -10 269 -10 c 0,8,9
 158 -10 158 -10 99 59 c 128,-1,10
 40 128 40 128 40 246 c 128,-1,11
 40 364 40 364 99 433.5 c 128,-1,12
 158 503 158 503 270 503 c 0,13,14
 305.6 503 305.6 503 330.8 497 c 0,15,16
 363 489.333333333 363 489.333333333 427 468 c 1,17,-1
 417 343 l 1,18,-1
 359 346 l 1,19,-1
 359 382 l 2,20,21
 359 390 359 390 352 416 c 1,22,23
 316 446 316 446 270 446 c 0,24,25
 200 446 200 446 167 388 c 128,-1,26
 134 330 134 330 134 246.5 c 128,-1,0
 134 163 134 163 167 109 c 128,-1,1
EndSplineSet
EndChar

StartChar: d
Encoding: 100 100 67
Width: 561
Flags: HMW
HStem: -10 64<203 280> 0 21G<399 420.5> 442 61<212 272 179.5 285.5> 736 20G<401 416.5> 746 20G<282 282>
VStem: 40 92<201 295 201 318.5> 375 81<207 407 407 407 479 590>
LayerCount: 2
Fore
SplineSet
282 766 m 1,0,1
 369.5 756 369.5 756 396.25 756 c 128,-1,2
 423 756 423 756 441 758 c 2,3,-1
 457 760 l 1,4,-1
 463 754 l 1,5,-1
 459 691 l 2,6,7
 456 656 456 656 456 590 c 2,8,-1
 456 137 l 2,9,10
 456 114.5 456 114.5 466 57 c 1,11,-1
 535 52 l 1,12,-1
 529 -4 l 1,13,-1
 496 -2 l 2,14,15
 450 0 450 0 399 0 c 1,16,-1
 386 81 l 1,17,18
 375 53 375 53 334 21.5 c 128,-1,19
 293 -10 293 -10 241 -10 c 0,20,21
 141 -10 141 -10 90.5 62.5 c 128,-1,22
 40 135 40 135 40 247.5 c 128,-1,23
 40 360 40 360 94 431.5 c 128,-1,24
 148 503 148 503 250 503 c 0,25,26
 305 503 305 503 375 479 c 1,27,-1
 375 620 l 2,28,29
 375 635 375 635 370.5 660.5 c 128,-1,30
 366 686 366 686 365 700 c 1,31,-1
 277 712 l 1,32,-1
 282 766 l 1,0,1
248 54 m 0,33,34
 310 54 310 54 342.5 95.5 c 128,-1,35
 375 137 375 137 375 207 c 2,36,-1
 375 407 l 1,37,38
 319 442 319 442 256 442 c 128,-1,39
 193 442 193 442 162.5 385.5 c 128,-1,40
 132 329 132 329 132 246 c 0,41,42
 132 196 132 196 141.5 155.5 c 128,-1,43
 151 115 151 115 178.5 84.5 c 128,-1,44
 206 54 206 54 248 54 c 0,33,34
EndSplineSet
EndChar

StartChar: e
Encoding: 101 101 68
Width: 475
Flags: HMW
HStem: -10 65<225 291.5 225 298> 450 52<212.5 290.5>
VStem: 40 94<237 237 237 320> 358 92<322.5 340.5 270 360.5>
LayerCount: 2
Fore
SplineSet
447 50 m 1,0,1
 375 -10 375 -10 267 -10 c 128,-1,2
 159 -10 159 -10 99.5 59 c 128,-1,3
 40 128 40 128 40 245 c 128,-1,4
 40 362 40 362 95.5 432 c 128,-1,5
 151 502 151 502 258 502 c 0,6,7
 450 502 450 502 450 270 c 1,8,-1
 433 237 l 1,9,-1
 134 237 l 1,10,11
 136 163 136 163 171.5 109 c 128,-1,12
 207 55 207 55 270 55 c 0,13,14
 350.666666667 55 350.666666667 55 419 96 c 1,15,-1
 447 50 l 1,0,1
357 312 m 1,16,-1
 358 324 l 1,17,18
 358 382 358 382 332.5 416 c 128,-1,19
 307 450 307 450 254 450 c 0,20,21
 151 450 151 450 135 288 c 1,22,23
 324 304 324 304 357 304 c 1,24,-1
 357 312 l 1,16,-1
EndSplineSet
EndChar

StartChar: f
Encoding: 102 102 69
Width: 365
Flags: HMW
HStem: -4 21G<35 35 287 287> 440 54<189 322 187 327> 717 53<236.5 285.5>
VStem: 106 81<154.5 167 167 440 566 597 597 611>
LayerCount: 2
Fore
SplineSet
106 511 m 1,0,-1
 106 597 l 2,1,2
 106 677 106 677 151.5 723.5 c 128,-1,3
 197 770 197 770 282 770 c 0,4,5
 314 770 314 770 343.5 765.5 c 128,-1,6
 373 761 373 761 385 760 c 1,7,-1
 374 625 l 1,8,-1
 321 628 l 1,9,-1
 321 664 l 2,10,11
 321 678 321 678 308 715 c 1,12,13
 294 717 294 717 274.5 717 c 128,-1,14
 255 717 255 717 237 709.5 c 128,-1,15
 219 702 219 702 209 690.5 c 128,-1,16
 199 679 199 679 194 657 c 0,17,18
 187 626.2 187 626.2 187 566 c 1,19,-1
 189 494 l 1,20,-1
 327 494 l 1,21,-1
 322 440 l 1,22,-1
 187 440 l 1,23,-1
 187 167 l 2,24,25
 187 115 187 115 190 92 c 2,26,-1
 194 55 l 1,27,-1
 293 47 l 1,28,-1
 287 -4 l 1,29,-1
 232 -2 l 2,30,31
 168 0 168 0 130.5 0 c 128,-1,32
 93 0 93 0 61 -2 c 2,33,-1
 35 -4 l 1,34,-1
 30 47 l 1,35,-1
 96 57 l 1,36,37
 97 66 97 66 101.5 91.5 c 128,-1,38
 106 117 106 117 106 137 c 2,39,-1
 106 440 l 1,40,-1
 29 440 l 1,41,-1
 26 482 l 1,42,43
 36 485 36 485 54.5 490.5 c 0,44,45
 93.1140939597 501.979865772 93.1140939597 501.979865772 106 511 c 1,0,-1
EndSplineSet
EndChar

StartChar: g
Encoding: 103 103 70
Width: 509
Flags: HMW
HStem: -235 57<207.5 282> 141 51<234.5 285.5 208 302.5> 452 51<208 265 191.5 286> 486 20G<462 462>
VStem: 24 86<-114.5 -78.5> 54 87<284.5 360.5 283.5 379> 353 87<282.5 342.5 264.5 360.5>
LayerCount: 2
Fore
SplineSet
247 141 m 0,0,1
 210 141 210 141 179 150 c 1,2,3
 152 116 152 116 152 107 c 128,-1,4
 152 98 152 98 160 91 c 128,-1,5
 168 84 168 84 186.5 80 c 128,-1,6
 205 76 205 76 221.5 74 c 128,-1,7
 238 72 238 72 267 69 c 0,8,9
 393.403587444 55.9237668161 393.403587444 55.9237668161 431 43 c 1,10,11
 476 29 476 29 476 -50 c 128,-1,12
 476 -129 476 -129 397.5 -182 c 128,-1,13
 319 -235 319 -235 222 -235 c 0,14,15
 24 -235 24 -235 24 -90 c 0,16,17
 24 -59 24 -59 117 10 c 1,18,19
 72 34 72 34 72 84 c 0,20,21
 72 105 72 105 143 165 c 1,22,23
 54 211 54 211 54 322 c 0,24,25
 54 406 54 406 108 454.5 c 128,-1,26
 162 503 162 503 247 503 c 0,27,28
 302 503 302 503 347 481 c 1,29,-1
 462 506 l 1,30,-1
 471 455 l 1,31,-1
 435 443 l 2,32,33
 429 441 429 441 410 427 c 1,34,35
 440 383.5 440 383.5 440 322 c 0,36,37
 440 238 440 238 386 189.5 c 128,-1,38
 332 141 332 141 247 141 c 0,0,1
247 192 m 128,-1,40
 353 192 353 192 353 322 c 128,-1,41
 353 452 353 452 247 452 c 128,-1,42
 141 452 141 452 141 322 c 128,-1,39
 141 192 141 192 247 192 c 128,-1,40
383.5 -43.5 m 128,-1,44
 376 -35 376 -35 351.5 -30 c 128,-1,45
 327 -25 327 -25 249.5 -16 c 128,-1,46
 172 -7 172 -7 154 -2 c 1,47,48
 110 -59 110 -59 110 -72 c 0,49,50
 110 -132 110 -132 145.5 -155 c 128,-1,51
 181 -178 181 -178 244 -178 c 128,-1,52
 307 -178 307 -178 349 -151 c 128,-1,53
 391 -124 391 -124 391 -75 c 0,54,43
 391 -52 391 -52 383.5 -43.5 c 128,-1,44
EndSplineSet
EndChar

StartChar: h
Encoding: 104 104 71
Width: 604
Flags: HMW
HStem: -4 21G<35 35 266 266 347 347 579 579> 0 54 438 65<294.5 351.5> 736 20G<132 147.5> 746 20G<25 25>
VStem: 106 81<154.5 167 167 302 434 590> 418 81<154.5 167 167 277>
LayerCount: 2
Fore
SplineSet
25 766 m 1,0,1
 102.5 756 102.5 756 128.25 756 c 128,-1,2
 154 756 154 756 172 758 c 2,3,-1
 188 760 l 1,4,-1
 194 754 l 1,5,-1
 190 691 l 2,6,7
 187 656 187 656 187 590 c 2,8,-1
 187 434 l 1,9,10
 239 503 239 503 334.5 503 c 128,-1,11
 430 503 430 503 464.5 446.5 c 128,-1,12
 499 390 499 390 499 277 c 2,13,-1
 499 167 l 2,14,15
 499 114 499 114 502 93 c 2,16,-1
 506 57 l 1,17,-1
 585 51 l 1,18,-1
 579 -4 l 1,19,-1
 535 -2 l 2,20,21
 481 0 481 0 443.5 0 c 128,-1,22
 406 0 406 0 374 -2 c 2,23,-1
 347 -4 l 1,24,-1
 342 47 l 1,25,-1
 408 57 l 1,26,27
 409 66 409 66 413.5 91.5 c 128,-1,28
 418 117 418 117 418 137 c 2,29,-1
 418 311 l 2,30,31
 418 369 418 369 392.5 403.5 c 128,-1,32
 367 438 367 438 313.5 438 c 128,-1,33
 260 438 260 438 225.5 398.5 c 128,-1,34
 191 359 191 359 187 302 c 1,35,-1
 187 167 l 2,36,37
 187 114 187 114 190 93 c 2,38,-1
 194 57 l 1,39,-1
 272 51 l 1,40,-1
 266 -4 l 1,41,-1
 218 -2 l 2,42,43
 162 0 162 0 127.5 0 c 128,-1,44
 93 0 93 0 61 -2 c 2,45,-1
 35 -4 l 1,46,-1
 30 47 l 1,47,-1
 96 57 l 1,48,49
 97 66 97 66 101.5 91.5 c 128,-1,50
 106 117 106 117 106 137 c 2,51,-1
 106 620 l 2,52,53
 106 635 106 635 101.5 660.5 c 128,-1,54
 97 686 97 686 96 700 c 1,55,-1
 20 712 l 1,56,-1
 25 766 l 1,0,1
EndSplineSet
EndChar

StartChar: i
Encoding: 105 105 72
Width: 299
Flags: HMW
HStem: -4 21G<31 31 273 273> 474 20G<139 154.5> 591 129<124.5 162.5 124.5 163.5>
VStem: 85 118<635.5 674.5> 113 81<154.5 167 167 327>
LayerCount: 2
Fore
SplineSet
100 702.5 m 128,-1,1
 115 720 115 720 143.5 720 c 128,-1,2
 172 720 172 720 187.5 703 c 128,-1,3
 203 686 203 686 203 655.5 c 128,-1,4
 203 625 203 625 188 608 c 128,-1,5
 173 591 173 591 144 591 c 128,-1,6
 115 591 115 591 100 608 c 128,-1,7
 85 625 85 625 85 655 c 128,-1,0
 85 685 85 685 100 702.5 c 128,-1,1
32 503 m 1,8,9
 101.75 494 101.75 494 135.875 494 c 128,-1,10
 170 494 170 494 179 495 c 2,11,-1
 195 497 l 1,12,-1
 201 491 l 1,13,-1
 197 428 l 2,14,15
 194 393 194 393 194 327 c 2,16,-1
 194 167 l 2,17,18
 194 114 194 114 197 93 c 2,19,-1
 201 57 l 1,20,-1
 279 51 l 1,21,-1
 273 -4 l 1,22,-1
 225 -2 l 2,23,24
 169 0 169 0 135 0 c 128,-1,25
 101 0 101 0 63 -2 c 2,26,-1
 31 -4 l 1,27,-1
 26 45 l 1,28,-1
 103 57 l 1,29,30
 104 66 104 66 108.5 91.5 c 128,-1,31
 113 117 113 117 113 137 c 2,32,-1
 113 357 l 2,33,34
 113 372 113 372 108.5 397.5 c 128,-1,35
 104 423 104 423 103 437 c 1,36,-1
 27 449 l 1,37,-1
 32 503 l 1,8,9
EndSplineSet
EndChar

StartChar: j
Encoding: 106 106 73
Width: 271
Flags: HMW
HStem: -235 21G 474 20G<130 145.5> 483 20G<23 23>
VStem: 104 81<21 327>
LayerCount: 2
Fore
SplineSet
28 -214 m 1,0,1
 104 -16.4 104 -16.4 104 21 c 2,2,-1
 104 357 l 2,3,4
 104 372 104 372 99.5 397.5 c 128,-1,5
 95 423 95 423 94 437 c 1,6,-1
 18 449 l 1,7,-1
 23 503 l 1,8,9
 92.75 494 92.75 494 126.875 494 c 128,-1,10
 161 494 161 494 170 495 c 2,11,-1
 186 497 l 1,12,-1
 192 491 l 1,13,-1
 188 428 l 2,14,15
 185 393 185 393 185 327 c 2,16,-1
 185 -10 l 2,17,18
 185 -31 185 -31 143 -105 c 128,-1,19
 101 -179 101 -179 64 -235 c 1,20,-1
 28 -214 l 1,0,1
91 702.5 m 128,-1,22
 106 720 106 720 134.5 720 c 128,-1,23
 163 720 163 720 178.5 703 c 128,-1,24
 194 686 194 686 194 655.5 c 128,-1,25
 194 625 194 625 179 608 c 128,-1,26
 164 591 164 591 135 591 c 128,-1,27
 106 591 106 591 91 608 c 128,-1,28
 76 625 76 625 76 655 c 128,-1,21
 76 685 76 685 91 702.5 c 128,-1,22
EndSplineSet
EndChar

StartChar: k
Encoding: 107 107 74
Width: 583
Flags: HMW
HStem: -4 21G<35 35 266 266 342 342 574 574> 0 54 474 20G<433 448.5> 736 20G<132 147.5> 746 20G<25 25>
VStem: 106 81<154.5 167 167 590>
LayerCount: 2
Fore
SplineSet
25 766 m 1,0,1
 102.5 756 102.5 756 128.25 756 c 128,-1,2
 154 756 154 756 172 758 c 2,3,-1
 188 760 l 1,4,-1
 194 754 l 1,5,-1
 190 691 l 2,6,7
 187 656 187 656 187 590 c 2,8,-1
 187 167 l 2,9,10
 187 114 187 114 190 93 c 2,11,-1
 194 57 l 1,12,-1
 272 51 l 1,13,-1
 266 -4 l 1,14,-1
 218 -2 l 2,15,16
 162 0 162 0 127.5 0 c 128,-1,17
 93 0 93 0 61 -2 c 2,18,-1
 35 -4 l 1,19,-1
 30 47 l 1,20,-1
 96 57 l 1,21,22
 97 66 97 66 101.5 91.5 c 128,-1,23
 106 117 106 117 106 137 c 2,24,-1
 106 620 l 2,25,26
 106 635 106 635 101.5 660.5 c 128,-1,27
 97 686 97 686 96 700 c 1,28,-1
 20 712 l 1,29,-1
 25 766 l 1,0,1
395 55 m 1,30,31
 245.967741935 223.903225806 245.967741935 223.903225806 199 265 c 1,32,-1
 366 440 l 1,33,-1
 322 449 l 1,34,-1
 327 503 l 1,35,36
 396.75 494 396.75 494 435.875 494 c 128,-1,37
 475 494 475 494 495 497 c 2,38,-1
 533 501 l 1,39,-1
 538 446 l 1,40,-1
 478 439 l 1,41,42
 393 396 393 396 369 366 c 1,43,-1
 287 278 l 1,44,-1
 425 129 l 1,45,46
 451 103 451 103 521 55 c 1,47,-1
 578 49 l 1,48,-1
 574 -4 l 1,49,-1
 521 -2 l 2,50,51
 459 0 459 0 424.5 0 c 128,-1,52
 390 0 390 0 364 -2 c 2,53,-1
 342 -4 l 1,54,-1
 337 47 l 1,55,-1
 395 55 l 1,30,31
EndSplineSet
EndChar

StartChar: l
Encoding: 108 108 75
Width: 295
Flags: HMW
HStem: -4 21G<25 25 269 269> 0 54 736 20G<134 149.5>
VStem: 107 83<154.5 167 167 590>
LayerCount: 2
Fore
SplineSet
26 766 m 1,0,1
 103.5 756 103.5 756 130.25 756 c 128,-1,2
 157 756 157 756 175 758 c 2,3,-1
 191 760 l 1,4,-1
 197 754 l 1,5,-1
 193 691 l 2,6,7
 190 656 190 656 190 590 c 2,8,-1
 190 167 l 2,9,10
 190 114 190 114 193 93 c 2,11,-1
 197 57 l 1,12,-1
 275 51 l 1,13,-1
 269 -4 l 1,14,-1
 221 -2 l 2,15,16
 163 0 163 0 129 0 c 128,-1,17
 95 0 95 0 57 -2 c 2,18,-1
 25 -4 l 1,19,-1
 20 45 l 1,20,-1
 97 57 l 1,21,22
 98 66 98 66 102.5 91.5 c 128,-1,23
 107 117 107 117 107 137 c 2,24,-1
 107 620 l 2,25,26
 107 635 107 635 102.5 660.5 c 128,-1,27
 98 686 98 686 97 700 c 1,28,-1
 21 712 l 1,29,-1
 26 766 l 1,0,1
EndSplineSet
EndChar

StartChar: m
Encoding: 109 109 76
Width: 890
Flags: HMW
HStem: -4 21G<41 41 269 269 341 341 565 565 637 637 865 865> 0 54 438 65<292 347.5 584 643.5> 480 20G<114 129.5> 486 20G<31 31>
VStem: 112 81<154.5 167 167 274> 408 81<154.5 167 167 267 267 280> 704 81<154.5 167 167 277>
CounterMasks: 1 07
LayerCount: 2
Fore
SplineSet
408 137 m 2,0,-1
 408 311 l 2,1,2
 408 438 408 438 313 438 c 0,3,4
 263 438 263 438 228 387 c 128,-1,5
 193 336 193 336 193 274 c 2,6,-1
 193 167 l 2,7,8
 193 114 193 114 196 93 c 2,9,-1
 200 57 l 1,10,-1
 275 51 l 1,11,-1
 269 -4 l 1,12,-1
 226 -2 l 2,13,14
 172 0 172 0 135.5 0 c 128,-1,15
 99 0 99 0 67 -2 c 2,16,-1
 41 -4 l 1,17,-1
 36 47 l 1,18,-1
 102 57 l 1,19,20
 103 66 103 66 107.5 91.5 c 128,-1,21
 112 117 112 117 112 137 c 2,22,-1
 112 357 l 2,23,24
 112 363 112 363 107 391 c 128,-1,25
 102 419 102 419 98 443 c 1,26,-1
 26 455 l 1,27,-1
 31 506 l 1,28,-1
 62 503 l 1,29,30
 81 500 81 500 112.5 500 c 128,-1,31
 144 500 144 500 151 501 c 2,32,-1
 163 503 l 1,33,-1
 169 497 l 1,34,-1
 182 418 l 1,35,36
 232 503 232 503 337 503 c 128,-1,37
 442 503 442 503 472 407 c 1,38,39
 490 445 490 445 529 474 c 128,-1,40
 568 503 568 503 629 503 c 0,41,42
 721 503 721 503 753 446.5 c 128,-1,43
 785 390 785 390 785 277 c 2,44,-1
 785 167 l 2,45,46
 785 114 785 114 788 93 c 2,47,-1
 792 57 l 1,48,-1
 871 51 l 1,49,-1
 865 -4 l 1,50,-1
 821 -2 l 2,51,52
 767 0 767 0 730 0 c 128,-1,53
 693 0 693 0 663 -2 c 2,54,-1
 637 -4 l 1,55,-1
 632 47 l 1,56,-1
 694 57 l 1,57,58
 695 66 695 66 699.5 91.5 c 128,-1,59
 704 117 704 117 704 137 c 2,60,-1
 704 311 l 2,61,62
 704 438 704 438 609 438 c 0,63,64
 560 438 560 438 525.5 389.5 c 128,-1,65
 491 341 491 341 489 280 c 1,66,-1
 489 167 l 2,67,68
 489 114 489 114 492 93 c 2,69,-1
 496 57 l 1,70,-1
 571 51 l 1,71,-1
 565 -4 l 1,72,-1
 523 -2 l 2,73,74
 469 0 469 0 433 0 c 128,-1,75
 397 0 397 0 367 -2 c 2,76,-1
 341 -4 l 1,77,-1
 336 47 l 1,78,-1
 398 57 l 1,79,80
 399 66 399 66 403.5 91.5 c 128,-1,81
 408 117 408 117 408 137 c 2,0,-1
EndSplineSet
EndChar

StartChar: n
Encoding: 110 110 77
Width: 610
Flags: HMW
HStem: -4 21G<41 41 273 273 353 353 585 585> 0 54 438 65<294 357.5> 480 20G<114 129.5> 486 20G<31 31>
VStem: 112 81<154.5 167 167 302> 424 81<154.5 167 167 277>
LayerCount: 2
Fore
SplineSet
26 455 m 1,0,-1
 31 506 l 1,1,-1
 62 503 l 1,2,3
 81 500 81 500 112.5 500 c 0,4,5
 144 500 144 500 151 501 c 2,6,-1
 163 503 l 1,7,-1
 169 497 l 1,8,-1
 182 418 l 1,9,10
 201 451 201 451 240 477 c 128,-1,11
 279 503 279 503 339 503 c 0,12,13
 436 503 436 503 470.5 446.5 c 128,-1,14
 505 390 505 390 505 277 c 2,15,-1
 505 167 l 2,16,17
 505 114 505 114 508 93 c 2,18,-1
 512 57 l 1,19,-1
 591 51 l 1,20,-1
 585 -4 l 1,21,-1
 541 -2 l 2,22,23
 487 0 487 0 449.5 0 c 0,24,25
 412 0 412 0 380 -2 c 2,26,-1
 353 -4 l 1,27,-1
 348 47 l 1,28,-1
 414 57 l 1,29,30
 415 66 415 66 419.5 91.5 c 0,31,32
 424 117 424 117 424 137 c 2,33,-1
 424 311 l 2,34,35
 424 369 424 369 398.5 403.5 c 128,-1,36
 373 438 373 438 319.5 438 c 0,37,38
 266 438 266 438 231.5 398.5 c 128,-1,39
 197 359 197 359 193 302 c 1,40,-1
 193 167 l 2,41,42
 193 114 193 114 196 93 c 2,43,-1
 200 57 l 1,44,-1
 279 51 l 1,45,-1
 273 -4 l 1,46,-1
 228 -2 l 2,47,48
 174 0 174 0 136.5 0 c 0,49,50
 99 0 99 0 67 -2 c 2,51,-1
 41 -4 l 1,52,-1
 36 47 l 1,53,-1
 102 57 l 1,54,55
 103 66 103 66 107.5 91.5 c 0,56,57
 112 117 112 117 112 137 c 2,58,-1
 112 357 l 2,59,60
 112 363 112 363 107 391 c 0,61,62
 102 419 102 419 98 443 c 1,63,-1
 26 455 l 1,0,-1
EndSplineSet
EndChar

StartChar: o
Encoding: 111 111 78
Width: 540
Flags: HMW
HStem: -10 57<218.5 321.5 218.5 346> 446 57<218.5 321.5>
VStem: 40 94<194.5 297.5 194.5 322.5> 406 94<194.5 297.5>
LayerCount: 2
Fore
SplineSet
441.5 434 m 128,-1,1
 500 365 500 365 500 247 c 128,-1,2
 500 129 500 129 440.5 59.5 c 128,-1,3
 381 -10 381 -10 270 -10 c 128,-1,4
 159 -10 159 -10 99.5 59.5 c 128,-1,5
 40 129 40 129 40 246.5 c 128,-1,6
 40 364 40 364 99.5 433.5 c 128,-1,7
 159 503 159 503 271 503 c 128,-1,0
 383 503 383 503 441.5 434 c 128,-1,1
406 246 m 128,-1,9
 406 333 406 333 374 389.5 c 128,-1,10
 342 446 342 446 270 446 c 128,-1,11
 198 446 198 446 166 389.5 c 128,-1,12
 134 333 134 333 134 246 c 128,-1,13
 134 159 134 159 166 103 c 128,-1,14
 198 47 198 47 270 47 c 128,-1,15
 342 47 342 47 374 103 c 128,-1,8
 406 159 406 159 406 246 c 128,-1,9
EndSplineSet
EndChar

StartChar: p
Encoding: 112 112 79
Width: 559
Flags: HMW
HStem: -248 20G<103 133> -235 21G<283 283> -10 60<269 337.5 263.5 360.5> 442 61<277 354.5> 480 20G<103 118.5>
VStem: 101 81<-75.5 -63 -63 14 86 290> 429 90<199.5 303.5>
LayerCount: 2
Fore
SplineSet
15 455 m 1,0,-1
 20 506 l 1,1,-1
 51 503 l 1,2,3
 70 500 70 500 102.5 500 c 0,4,5
 135 500 135 500 144 501 c 2,6,-1
 160 503 l 1,7,-1
 166 497 l 1,8,-1
 175 416 l 1,9,10
 190 445 190 445 227.5 474 c 128,-1,11
 265 503 265 503 314 503 c 0,12,13
 416 503 416 503 467.5 435.5 c 128,-1,14
 519 368 519 368 519 256.5 c 0,15,16
 519 145 519 145 456 67.5 c 128,-1,17
 393 -10 393 -10 289 -10 c 0,18,19
 232 -10 232 -10 182 14 c 1,20,-1
 182 -63 l 2,21,22
 182 -115 182 -115 185 -136 c 2,23,-1
 189 -172 l 1,24,-1
 289 -181 l 1,25,-1
 283 -235 l 1,26,-1
 228 -232 l 1,27,28
 184 -228 184 -228 136 -228 c 0,29,30
 88 -228 88 -228 56 -230 c 2,31,-1
 30 -232 l 1,32,-1
 25 -183 l 1,33,-1
 92 -173 l 1,34,-1
 96 -141 l 1,35,36
 101 -113 101 -113 101 -93 c 2,37,-1
 101 357 l 2,38,39
 101 363 101 363 96 391 c 0,40,41
 91 419 91 419 87 443 c 1,42,-1
 15 455 l 1,0,-1
306 442 m 0,43,44
 247 442 247 442 215.5 398.5 c 128,-1,45
 184 355 184 355 182 290 c 1,46,-1
 182 86 l 1,47,48
 233 50 233 50 283 50 c 0,49,50
 359 50 359 50 394 107 c 128,-1,51
 429 164 429 164 429 254 c 0,52,53
 429 442 429 442 306 442 c 0,43,44
EndSplineSet
EndChar

StartChar: q
Encoding: 113 113 80
Width: 542
Flags: HMW
HStem: -248 20G<377 407> -10 64<203 272.5> 447 56<221 286 189.5 288.5>
VStem: 40 92<201 295.5 201 318.5> 375 81<-75.5 -63 -63 62 62 62 207 326 326 348.5>
LayerCount: 2
Fore
SplineSet
98.5 430.5 m 128,-1,1
 157 503 157 503 259.071428571 503 c 128,-1,2
 361.142857143 503 361.142857143 503 464 467 c 1,3,-1
 460 419 l 1,4,5
 456 386 456 386 456 357 c 2,6,-1
 456 -63 l 2,7,8
 456 -116 456 -116 459 -137 c 2,9,-1
 463 -173 l 1,10,-1
 532 -179 l 1,11,-1
 526 -235 l 1,12,-1
 486 -232 l 1,13,14
 453 -228 453 -228 407.5 -228 c 128,-1,15
 362 -228 362 -228 316 -230 c 2,16,-1
 275 -232 l 1,17,-1
 270 -183 l 1,18,-1
 367 -173 l 1,19,-1
 371 -141 l 1,20,21
 375 -118 375 -118 375 -93 c 2,22,-1
 375 62 l 1,23,24
 355 34 355 34 319.5 12 c 128,-1,25
 284 -10 284 -10 241 -10 c 0,26,27
 141 -10 141 -10 90.5 62.5 c 128,-1,28
 40 135 40 135 40 246.5 c 128,-1,0
 40 358 40 358 98.5 430.5 c 128,-1,1
248 54 m 0,29,30
 310 54 310 54 342.5 95.5 c 128,-1,31
 375 137 375 137 375 207 c 2,32,-1
 375 326 l 2,33,34
 375 330 375 330 368 435 c 1,35,36
 318 447 318 447 269 447 c 0,37,38
 202 447 202 447 167 387.5 c 128,-1,39
 132 328 132 328 132 246 c 0,40,41
 132 196 132 196 141.5 155.5 c 128,-1,42
 151 115 151 115 178.5 84.5 c 128,-1,43
 206 54 206 54 248 54 c 0,29,30
EndSplineSet
EndChar

StartChar: r
Encoding: 114 114 81
Width: 418
Flags: HMW
HStem: -4 21G<41 41 293 293> 0 21G<114 144> 434 69<309 331> 480 20G<114 129.5> 486 20G<31 31>
VStem: 112 81<154.5 167 167 284> 345 63
LayerCount: 2
Fore
SplineSet
193 284 m 1,0,-1
 193 167 l 2,1,2
 193 114 193 114 196 93 c 2,3,-1
 200 57 l 1,4,-1
 299 49 l 1,5,-1
 293 -4 l 1,6,-1
 238 -2 l 2,7,8
 174 0 174 0 136.5 0 c 0,9,10
 99 0 99 0 67 -2 c 2,11,-1
 41 -4 l 1,12,-1
 36 47 l 1,13,-1
 102 57 l 1,14,15
 103 66 103 66 107.5 91.5 c 0,16,17
 112 117 112 117 112 137 c 2,18,-1
 112 357 l 2,19,20
 112 363 112 363 107 391 c 0,21,22
 102 419 102 419 98 443 c 1,23,-1
 26 455 l 1,24,-1
 31 506 l 1,25,-1
 62 503 l 1,26,27
 81 500 81 500 112.5 500 c 0,28,29
 144 500 144 500 151 501 c 2,30,-1
 163 503 l 1,31,-1
 169 497 l 1,32,-1
 184 409 l 1,33,34
 241 503 241 503 345 503 c 0,35,36
 373 503 373 503 393 498 c 2,37,-1
 413 493 l 1,38,-1
 403 328 l 1,39,-1
 346 331 l 1,40,-1
 345 384 l 2,41,42
 345 392 345 392 331 434 c 1,43,44
 261 434 261 434 228.5 396.5 c 128,-1,45
 196 359 196 359 193 284 c 1,0,-1
EndSplineSet
EndChar

StartChar: s
Encoding: 115 115 82
Width: 417
Flags: HMW
HStem: -10 51<190 234 190 257.5> 451 52<178.5 217>
VStem: 42 80<335 406.5 335 412> 297 82<90.5 169.5>
LayerCount: 2
Fore
SplineSet
203 -10 m 0,0,1
 109.5 -10 109.5 -10 38 29 c 1,2,-1
 49 165 l 1,3,-1
 107 162 l 1,4,-1
 107 124 l 2,5,6
 107 112 107 112 121 64 c 1,7,8
 149 41 149 41 206 41 c 0,9,10
 297 41 297 41 297 117 c 0,11,12
 297 146 297 146 270.5 167.5 c 128,-1,13
 244 189 244 189 207 205.5 c 128,-1,14
 170 222 170 222 132.5 240.5 c 128,-1,15
 95 259 95 259 68.5 292 c 128,-1,16
 42 325 42 325 42 370 c 0,17,18
 42 432 42 432 87.5 467.5 c 128,-1,19
 133 503 133 503 206.5 503 c 128,-1,20
 280 503 280 503 354 486 c 1,21,-1
 342 343 l 1,22,-1
 284 346 l 1,23,-1
 284 382 l 2,24,25
 284 393 284 393 270 439 c 1,26,27
 242 451 242 451 204 451 c 128,-1,28
 166 451 166 451 144 433.5 c 128,-1,29
 122 416 122 416 122 387 c 128,-1,30
 122 358 122 358 148.5 336.5 c 128,-1,31
 175 315 175 315 212.5 298.5 c 128,-1,32
 250 282 250 282 288 263.5 c 128,-1,33
 326 245 326 245 352.5 212.5 c 128,-1,34
 379 180 379 180 379 136 c 0,35,36
 379 -10 379 -10 203 -10 c 0,0,1
EndSplineSet
EndChar

StartChar: t
Encoding: 116 116 83
Width: 342
Flags: HMW
HStem: -10 64<211.5 239.5 211.5 242.5> 440 54<176 311 176 316> 581 20G<136 136>
VStem: 90 86<156 440>
LayerCount: 2
Fore
SplineSet
230 54 m 0,0,1
 265.5 54 265.5 54 309 83 c 1,2,-1
 337 42 l 1,3,4
 270 -10 270 -10 217 -10 c 0,5,6
 148 -10 148 -10 119 30 c 128,-1,7
 90 70 90 70 90 156 c 2,8,-1
 90 440 l 1,9,-1
 13 440 l 1,10,-1
 10 482 l 1,11,12
 20 485 20 485 38.5 490.5 c 0,13,14
 77.1140939597 501.979865772 77.1140939597 501.979865772 90 511 c 0,15,16
 91 512 91 512 116 560 c 1,17,-1
 136 601 l 1,18,-1
 176 597 l 1,19,-1
 176 494 l 1,20,-1
 316 494 l 1,21,-1
 311 440 l 1,22,-1
 176 440 l 1,23,-1
 176 132 l 2,24,25
 176 54 176 54 230 54 c 0,0,1
EndSplineSet
EndChar

StartChar: u
Encoding: 117 117 84
Width: 589
Flags: HMW
HStem: -10 64<240 305> 0 21G<427 448.5> 474 20G<121 136.5 429 444.5> 483 20G<24 24>
VStem: 95 81<217 327> 403 81<204 327>
LayerCount: 2
Fore
SplineSet
24 503 m 1,0,1
 84.75 494 84.75 494 118.375 494 c 128,-1,2
 152 494 152 494 161 495 c 2,3,-1
 177 497 l 1,4,-1
 183 491 l 1,5,-1
 179 428 l 2,6,7
 176 393 176 393 176 327 c 2,8,-1
 176 183 l 2,9,10
 176 54 176 54 277 54 c 0,11,12
 334 54 334 54 367.5 98 c 128,-1,13
 401 142 401 142 403 204 c 1,14,-1
 403 357 l 2,15,16
 403 372 403 372 398.5 397.5 c 128,-1,17
 394 423 394 423 393 437 c 1,18,-1
 307 449 l 1,19,-1
 312 500 l 1,20,-1
 360 497 l 1,21,22
 387 494 387 494 423.5 494 c 128,-1,23
 460 494 460 494 469 495 c 2,24,-1
 485 497 l 1,25,-1
 491 491 l 1,26,-1
 487 428 l 2,27,28
 484 393 484 393 484 327 c 2,29,-1
 484 137 l 2,30,31
 484 114.5 484 114.5 494 57 c 1,32,-1
 563 52 l 1,33,-1
 557 -4 l 1,34,-1
 524 -2 l 2,35,36
 478 0 478 0 427 0 c 1,37,-1
 414 77 l 1,38,39
 364 -10 364 -10 259 -10 c 0,40,41
 158.215384615 -10 158.215384615 -10 125 53.5 c 0,42,43
 95 110.852941176 95 110.852941176 95 217 c 2,44,-1
 95 357 l 2,45,46
 95 372 95 372 90.5 397.5 c 128,-1,47
 86 423 86 423 85 437 c 1,48,-1
 19 449 l 1,49,-1
 24 503 l 1,0,1
EndSplineSet
EndChar

StartChar: v
Encoding: 118 118 85
Width: 547
Flags: HMW
HStem: 0 21G<244 311 244 244> 474 20G<116 131.5 456 471.5> 483 20G<10 10 349 349>
LayerCount: 2
Fore
SplineSet
10 503 m 1,0,1
 79.75 494 79.75 494 117.875 494 c 128,-1,2
 156 494 156 494 175 497 c 2,3,-1
 209 501 l 1,4,-1
 214 446 l 1,5,-1
 157 439 l 1,6,-1
 186 349 l 1,7,-1
 288 103 l 1,8,-1
 383 351 l 2,9,10
 385 356 385 356 394.5 388 c 128,-1,11
 404 420 404 420 410 439 c 1,12,-1
 344 449 l 1,13,-1
 349 503 l 1,14,15
 418.75 494 418.75 494 455.875 494 c 128,-1,16
 493 494 493 494 509 497 c 1,17,-1
 538 500 l 1,18,-1
 542 446 l 1,19,-1
 498 440 l 1,20,21
 447 345 447 345 439 319 c 1,22,-1
 311 0 l 1,23,-1
 244 0 l 1,24,-1
 173 164 l 1,25,26
 104 316 104 316 98 336.5 c 128,-1,27
 92 357 92 357 45 441 c 1,28,-1
 5 449 l 1,29,-1
 10 503 l 1,0,1
EndSplineSet
EndChar

StartChar: w
Encoding: 119 119 86
Width: 800
Flags: HMW
HStem: 0 21G<223 290 223 223 524 591 524 524> 474 20G<109 124.5 389 429 429 429 714 729.5> 483 20G<5 5 607 607>
LayerCount: 2
Fore
SplineSet
5 503 m 1,0,1
 68 494 68 494 109 494 c 128,-1,2
 150 494 150 494 169 497 c 2,3,-1
 204 501 l 1,4,-1
 209 446 l 1,5,-1
 152 439 l 1,6,-1
 179 349 l 1,7,-1
 264 105 l 1,8,-1
 389 494 l 1,9,-1
 429 494 l 1,10,-1
 566 105 l 1,11,-1
 644 351 l 1,12,13
 649 378 649 378 666 439 c 1,14,-1
 602 449 l 1,15,-1
 607 503 l 1,16,17
 676.75 494 676.75 494 713.875 494 c 128,-1,18
 751 494 751 494 767 497 c 1,19,-1
 796 500 l 1,20,-1
 800 446 l 1,21,-1
 748 439 l 1,22,23
 700 335 700 335 698 319 c 1,24,-1
 591 0 l 1,25,-1
 524 0 l 1,26,-1
 399 324 l 1,27,-1
 290 0 l 1,28,-1
 223 0 l 1,29,-1
 159 164 l 2,30,31
 94 330 94 330 89.5 345 c 128,-1,32
 85 360 85 360 47 440 c 1,33,-1
 0 449 l 1,34,-1
 5 503 l 1,0,1
EndSplineSet
EndChar

StartChar: x
Encoding: 120 120 87
Width: 541
Flags: HMW
HStem: -9 21G<205 205 531 531> 0 21G<75.5 91 406.5 422> 474 20G<126 141.5 430 445.5> 483 20G<20 20 321 321>
LayerCount: 2
Fore
SplineSet
20 503 m 1,0,1
 89.75 494 89.75 494 128.875 494 c 128,-1,2
 168 494 168 494 188 497 c 2,3,-1
 226 501 l 1,4,-1
 231 446 l 1,5,-1
 183 440 l 1,6,7
 209 396 209 396 215 387 c 2,8,-1
 274 302 l 1,9,-1
 329 387 l 2,10,11
 333 394 333 394 343.5 414 c 128,-1,12
 354 434 354 434 359 442 c 1,13,-1
 316 449 l 1,14,-1
 321 503 l 1,15,16
 390.75 494 390.75 494 428.875 494 c 128,-1,17
 467 494 467 494 483 497 c 1,18,-1
 512 500 l 1,19,-1
 516 446 l 1,20,-1
 444 437 l 1,21,22
 432 423 432 423 417.5 405.5 c 128,-1,23
 403 388 403 388 389 372 c 128,-1,24
 375 356 375 356 373 353 c 2,25,-1
 311 258 l 1,26,-1
 392 149 l 1,27,28
 408 125 408 125 486 54 c 1,29,-1
 536 47 l 1,30,-1
 531 -9 l 1,31,-1
 486 -5 l 1,32,33
 444 0 444 0 415 0 c 128,-1,34
 386 0 386 0 359 -4 c 1,35,-1
 322 -7 l 1,36,-1
 317 48 l 1,37,-1
 360 53 l 1,38,39
 341 90 341 90 324 115 c 2,40,-1
 262 201 l 1,41,-1
 202 115 l 2,42,43
 199 111 199 111 165 51 c 1,44,-1
 210 45 l 1,45,-1
 205 -9 l 1,46,-1
 158 -5 l 1,47,48
 113 0 113 0 81 0 c 1,49,-1
 37 -3 l 1,50,-1
 9 -6 l 1,51,-1
 5 48 l 1,52,-1
 69 56 l 1,53,54
 143 130 143 130 155 149 c 1,55,-1
 223 246 l 1,56,-1
 145 353 l 1,57,-1
 68 439 l 1,58,-1
 15 449 l 1,59,-1
 20 503 l 1,0,1
EndSplineSet
EndChar

StartChar: y
Encoding: 121 121 88
Width: 539
Flags: HMW
HStem: -235 21G<226 226> -187 20G<87 111 111 117.5> 474 20G<116 131.5 448 463.5> 483 20G<10 10 341 341>
LayerCount: 2
Fore
SplineSet
341 503 m 1,0,1
 410.75 494 410.75 494 447.875 494 c 128,-1,2
 485 494 485 494 501 497 c 1,3,-1
 530 500 l 1,4,-1
 534 446 l 1,5,-1
 496 441 l 1,6,7
 438 324 438 324 436 319 c 2,8,-1
 310 0 l 1,9,-1
 226 -235 l 1,10,-1
 63 -224 l 1,11,-1
 71 -166 l 1,12,13
 76 -167 76 -167 87 -167 c 2,14,-1
 111 -167 l 2,15,16
 127 -167 127 -167 177 -155 c 1,17,18
 209 -107 209 -107 216 -89 c 2,19,-1
 244 -9 l 1,20,-1
 96 344 l 1,21,22
 92 357 92 357 45 441 c 1,23,-1
 5 449 l 1,24,-1
 10 503 l 1,25,26
 79.75 494 79.75 494 118.375 494 c 128,-1,27
 157 494 157 494 176 497 c 2,28,-1
 211 501 l 1,29,-1
 216 446 l 1,30,-1
 154 438 l 1,31,32
 170 382 170 382 181 349 c 1,33,-1
 283 96 l 1,34,-1
 375 351 l 2,35,36
 390 395 390 395 401 439 c 1,37,-1
 336 449 l 1,38,-1
 341 503 l 1,0,1
EndSplineSet
EndChar

StartChar: z
Encoding: 122 122 89
Width: 457
Flags: HMW
HStem: 0 52<152 277 277 279.5 152 285> 442 52<179.5 183 183 305>
LayerCount: 2
Fore
SplineSet
403 -3 m 1,0,-1
 285 0 l 1,1,-1
 42 0 l 1,2,-1
 35 58 l 1,3,-1
 77 105 l 2,4,5
 119 151 119 151 130 168 c 2,6,-1
 255 352 l 1,7,8
 295 422 295 422 305 442 c 1,9,-1
 183 442 l 2,10,11
 176 442 176 442 130 436 c 1,12,13
 106 388 106 388 106 374 c 1,14,-1
 102 339 l 1,15,-1
 44 343 l 1,16,-1
 50 489 l 1,17,-1
 58 497 l 1,18,-1
 102 495 l 2,19,20
 125 494 125 494 162 494 c 2,21,-1
 404 494 l 1,22,-1
 411 436 l 1,23,-1
 393 414 l 2,24,25
 343.846153846 353.923076923 343.846153846 353.923076923 325 327 c 2,26,-1
 202 142 l 1,27,28
 190 128 190 128 152 52 c 1,29,-1
 277 52 l 2,30,31
 288 52 288 52 336 58 c 1,32,33
 356.032258065 99.1774193548 356.032258065 99.1774193548 358.016129032 110.088709677 c 0,34,35
 361.6 129.8 361.6 129.8 364 149 c 1,36,-1
 422 143 l 1,37,-1
 413 7 l 1,38,-1
 403 -3 l 1,0,-1
EndSplineSet
EndChar

StartChar: braceleft
Encoding: 123 123 90
Width: 272
Flags: HMW
HStem: -141 20G<90 107.5> -125 21G<259 259> 746 20G<259 259>
VStem: 107 60
LayerCount: 2
Fore
SplineSet
176 284 m 2,0,-1
 167 40 l 1,1,2
 167 10 167 10 171 -23 c 1,3,-1
 175 -70 l 1,4,-1
 262 -82 l 1,5,-1
 259 -125 l 1,6,-1
 200 -123 l 2,7,8
 130 -121 130 -121 90 -121 c 1,9,-1
 77 -108 l 1,10,-1
 92 31 l 2,11,12
 107 175 107 175 107 261 c 1,13,14
 99 274 99 274 72.5 290 c 128,-1,15
 46 306 46 306 35 306 c 1,16,-1
 39 335 l 1,17,18
 48 335 48 335 74 350.5 c 128,-1,19
 100 366 100 366 107 380 c 1,20,21
 107 465 107 465 92 609 c 2,22,-1
 77 749 l 1,23,-1
 90 762 l 1,24,25
 130 762 130 762 200 764 c 2,26,-1
 259 766 l 1,27,-1
 262 723 l 1,28,-1
 175 711 l 1,29,-1
 171 663 l 1,30,31
 167 630 167 630 167 601 c 1,32,-1
 176 357 l 2,33,34
 175 357 175 357 140 334 c 1,35,-1
 120 325 l 1,36,-1
 120 316 l 1,37,-1
 140 307 l 1,38,39
 175 284 175 284 176 284 c 2,0,-1
EndSplineSet
EndChar

StartChar: bar
Encoding: 124 124 91
Width: 275
Flags: HMW
HStem: -122 21G<175 175> 740 20G<107 107>
VStem: 103 70
LayerCount: 2
Fore
SplineSet
175 -122 m 1,0,-1
 100 -113 l 1,1,-1
 107 760 l 1,2,-1
 172 752 l 1,3,-1
 175 -122 l 1,0,-1
EndSplineSet
EndChar

StartChar: braceright
Encoding: 125 125 92
Width: 272
Flags: HMW
HStem: -125 21G<13 13> 742 20G<164.5 182> 746 20G<13 13>
VStem: 105 60
LayerCount: 2
Fore
SplineSet
96 357 m 1,0,-1
 105 601 l 1,1,2
 105 630 105 630 101 663 c 1,3,-1
 97 711 l 1,4,-1
 10 723 l 1,5,-1
 13 766 l 1,6,-1
 72 764 l 2,7,8
 142 762 142 762 182 762 c 1,9,-1
 195 749 l 1,10,11
 186 678 186 678 175.5 571.5 c 128,-1,12
 165 465 165 465 165 380 c 1,13,14
 172 366 172 366 198 350.5 c 128,-1,15
 224 335 224 335 233 335 c 1,16,-1
 237 306 l 1,17,18
 226 306 226 306 199.5 290 c 128,-1,19
 173 274 173 274 165 261 c 1,20,21
 165 175 165 175 175.5 67.5 c 128,-1,22
 186 -40 186 -40 195 -108 c 1,23,-1
 182 -121 l 1,24,25
 142 -121 142 -121 72 -123 c 2,26,-1
 13 -125 l 1,27,-1
 10 -82 l 1,28,-1
 97 -70 l 1,29,-1
 101 -23 l 1,30,31
 105 10 105 10 105 40 c 1,32,-1
 96 284 l 1,33,34
 107 293 107 293 131 307 c 1,35,-1
 152 316 l 1,36,-1
 152 325 l 1,37,-1
 131 334 l 1,38,39
 107 348 107 348 96 357 c 1,0,-1
EndSplineSet
EndChar

StartChar: asciitilde
Encoding: 126 126 93
Width: 560
Flags: HMW
HStem: 235 22 235 82<151.5 186>
LayerCount: 2
Fore
SplineSet
284 287 m 128,-1,1
 376 257 376 257 402.15625 257 c 128,-1,2
 428.3125 257 428.3125 257 473 312 c 1,3,-1
 513 279 l 1,4,5
 492 246 492 246 477 227 c 0,6,7
 437 175 437 175 405 175 c 128,-1,8
 373 175 373 175 279 205 c 128,-1,9
 185 235 185 235 162.5 235 c 128,-1,10
 140 235 140 235 112 207 c 1,11,-1
 87 180 l 1,12,-1
 47 213 l 1,13,14
 68 246 68 246 83 265 c 0,15,16
 123 317 123 317 157.5 317 c 128,-1,0
 192 317 192 317 284 287 c 128,-1,1
EndSplineSet
EndChar

StartChar: exclamdown
Encoding: 161 161 94
Width: 229
Flags: HMW
HStem: -250 20G<103.5 113.5> 374 129<80.5 118.5 80.5 119.5>
VStem: 41 118<418.5 457.5>
LayerCount: 2
Fore
SplineSet
56 485.5 m 128,-1,1
 71 503 71 503 99.5 503 c 128,-1,2
 128 503 128 503 143.5 486 c 128,-1,3
 159 469 159 469 159 438.5 c 128,-1,4
 159 408 159 408 144 391 c 128,-1,5
 129 374 129 374 100 374 c 128,-1,6
 71 374 71 374 56 391 c 128,-1,7
 41 408 41 408 41 438 c 128,-1,0
 41 468 41 468 56 485.5 c 128,-1,1
66 207 m 1,8,-1
 63 300 l 1,9,-1
 70 306 l 1,10,-1
 81 304 l 2,11,12
 95 302 95 302 108.5 302 c 0,13,14
 132 302 132 302 138 304 c 1,15,-1
 142 301 l 1,16,17
 141 294 141 294 141 280 c 2,18,-1
 141 237 l 1,19,-1
 145 -228 l 1,20,-1
 141 -231 l 1,21,-1
 130 -231 l 1,22,-1
 111 -230 l 2,23,24
 104 -230 104 -230 68 -233 c 2,25,-1
 47 -235 l 1,26,-1
 40 -228 l 1,27,28
 45 -179 45 -179 53 -69 c 1,29,30
 66 162 66 162 66 207 c 1,8,-1
EndSplineSet
EndChar

StartChar: brokenbar
Encoding: 166 166 95
Width: 255
Flags: HMW
HStem: -122 21G<165 165> 740 20G<97 97>
VStem: 95 67
LayerCount: 2
Fore
SplineSet
163 392 m 1,0,-1
 94 400 l 1,1,-1
 97 760 l 1,2,-1
 162 752 l 1,3,-1
 163 392 l 1,0,-1
92 212 m 1,4,-1
 164 205 l 1,5,-1
 165 -122 l 1,6,-1
 90 -113 l 1,7,-1
 92 212 l 1,4,-1
EndSplineSet
EndChar

StartChar: dieresis
Encoding: 168 168 96
Width: 348
Flags: HMW
HStem: 594 119<38 74 274 310>
VStem: 2 108<635 671> 238 108<635 671>
LayerCount: 2
Fore
SplineSet
56 713 m 0,0,1
 110 713 110 713 110 653.5 c 0,2,3
 110 594 110 594 56 594 c 128,-1,4
 2 594 2 594 2 653 c 0,5,6
 2 681 2 681 16 697 c 128,-1,7
 30 713 30 713 56 713 c 0,0,1
292 713 m 0,8,9
 346 713 346 713 346 653.5 c 0,10,11
 346 594 346 594 292 594 c 128,-1,12
 238 594 238 594 238 653 c 0,13,14
 238 681 238 681 252 697 c 128,-1,15
 266 713 266 713 292 713 c 0,8,9
EndSplineSet
EndChar

StartChar: copyright
Encoding: 169 169 97
Width: 845
Flags: HMW
HStem: -122 51<334 511.5 334 524.5> 29 45<388.5 443 388.5 456> 425 45<388.5 442.5> 571 51<334 510>
VStem: 50 51<162 340 162 353> 225 79<200.5 299.5 200.5 314.5> 743 52<162 337.5>
LayerCount: 2
Fore
SplineSet
521 116 m 2,0,-1
 522 135 l 1,1,-1
 522 149 l 1,2,-1
 564 150 l 1,3,-1
 567 49 l 1,4,5
 478 29 478 29 430 29 c 0,6,7
 330 29 330 29 277.5 88.5 c 128,-1,8
 225 148 225 148 225 249 c 128,-1,9
 225 350 225 350 278 410 c 128,-1,10
 331 470 331 470 430 470 c 0,11,12
 473 470 473 470 562 450 c 1,13,-1
 555 351 l 1,14,-1
 514 354 l 1,15,-1
 514 386 l 2,16,17
 514 393 514 393 507 414 c 1,18,19
 469 425 469 425 431 425 c 0,20,21
 370 425 370 425 337 376.5 c 128,-1,22
 304 328 304 328 304 250 c 128,-1,23
 304 172 304 172 337 123 c 128,-1,24
 370 74 370 74 431 74 c 0,25,26
 476 74 476 74 512 84 c 1,27,28
 521 104 521 104 521 116 c 2,0,-1
686.5 514 m 128,-1,30
 795 406 795 406 795 252 c 128,-1,31
 795 98 795 98 685.5 -12 c 128,-1,32
 576 -122 576 -122 422 -122 c 128,-1,33
 268 -122 268 -122 159 -14.5 c 128,-1,34
 50 93 50 93 50 248.5 c 128,-1,35
 50 404 50 404 159.5 513 c 128,-1,36
 269 622 269 622 423.5 622 c 128,-1,29
 578 622 578 622 686.5 514 c 128,-1,30
649.5 23 m 128,-1,38
 743 117 743 117 743 249 c 128,-1,39
 743 381 743 381 648.5 476 c 128,-1,40
 554 571 554 571 421.5 571 c 128,-1,41
 289 571 289 571 195 477.5 c 128,-1,42
 101 384 101 384 101 251 c 128,-1,43
 101 118 101 118 195.5 23.5 c 128,-1,44
 290 -71 290 -71 423 -71 c 128,-1,37
 556 -71 556 -71 649.5 23 c 128,-1,38
EndSplineSet
EndChar

StartChar: ordfeminine
Encoding: 170 170 98
Width: 337
Flags: HMW
HStem: 360 20G<232 247.5> 373 47<114.5 138.5> 675 40<142.5 178.5>
VStem: 20 66<449.5 472.5 449.5 484> 213 63<493 527 527 527 566 573>
LayerCount: 2
Fore
SplineSet
48 608 m 1,0,-1
 40 699 l 1,1,2
 100 715 100 715 164 715 c 128,-1,3
 228 715 228 715 252 680.5 c 128,-1,4
 276 646 276 646 276 573 c 2,5,-1
 276 476 l 2,6,7
 276 456 276 456 279 445 c 2,8,-1
 283 424 l 1,9,-1
 332 419 l 1,10,-1
 327 376 l 1,11,-1
 302 378 l 2,12,13
 270 380 270 380 232 380 c 1,14,-1
 223 436 l 1,15,16
 209 411 209 411 179 392 c 128,-1,17
 149 373 149 373 110 373 c 128,-1,18
 71 373 71 373 45.5 396 c 128,-1,19
 20 419 20 419 20 460 c 0,20,21
 20 525 20 525 95 544 c 0,22,23
 115 550 115 550 162 557.5 c 128,-1,24
 209 565 209 565 213 566 c 1,25,-1
 213 580 l 2,26,27
 213 675 213 675 156 675 c 0,28,29
 129 675 129 675 98 661 c 1,30,-1
 94 645 l 2,31,32
 91 633 91 633 91 632 c 2,33,-1
 91 610 l 1,34,-1
 48 608 l 1,0,-1
129 420 m 0,35,36
 162 420 162 420 185 440 c 128,-1,37
 208 460 208 460 213 493 c 1,38,-1
 213 527 l 1,39,40
 159 518 159 518 124 511 c 1,41,42
 86 501 86 501 86 464 c 0,43,44
 86 420 86 420 129 420 c 0,35,36
EndSplineSet
EndChar

StartChar: guillemotleft
Encoding: 171 171 99
Width: 416
Flags: HMW
HStem: 20 21G<178 178> 444 20G<178 178>
LayerCount: 2
Fore
SplineSet
25 242 m 1,0,-1
 178 464 l 1,1,-1
 215 439 l 1,2,-1
 108 242 l 1,3,-1
 215 45 l 1,4,-1
 178 20 l 1,5,-1
 25 242 l 1,0,-1
188 242 m 1,6,-1
 338 460 l 1,7,-1
 374 435 l 1,8,-1
 270 242 l 1,9,-1
 374 49 l 1,10,-1
 338 24 l 1,11,-1
 188 242 l 1,6,-1
EndSplineSet
EndChar

StartChar: logicalnot
Encoding: 172 172 100
Width: 560
Flags: HMW
HStem: 69 238<436 507 436 436> 238 69
VStem: 437 70
LayerCount: 2
Fore
SplineSet
52 307 m 1,0,-1
 507 307 l 1,1,-1
 507 69 l 1,2,-1
 436 69 l 1,3,-1
 438 240 l 1,4,-1
 52 236 l 1,5,-1
 52 307 l 1,0,-1
EndSplineSet
EndChar

StartChar: registered
Encoding: 174 174 101
Width: 845
Flags: HMW
HStem: -122 51<334 511.5 334 524.5> 256 166<406.5 410 410 410> 571 51<334 510>
VStem: 50 51<162 340 162 353> 374 130<133 367 257 367 311 351> 743 52<162 337.5>
LayerCount: 2
Fore
SplineSet
686.5 514 m 128,-1,1
 795 406 795 406 795 252 c 128,-1,2
 795 98 795 98 685.5 -12 c 128,-1,3
 576 -122 576 -122 422 -122 c 128,-1,4
 268 -122 268 -122 159 -14.5 c 128,-1,5
 50 93 50 93 50 248.5 c 128,-1,6
 50 404 50 404 159.5 513 c 128,-1,7
 269 622 269 622 423.5 622 c 128,-1,0
 578 622 578 622 686.5 514 c 128,-1,1
649.5 23 m 128,-1,9
 743 117 743 117 743 249 c 128,-1,10
 743 381 743 381 648.5 476 c 128,-1,11
 554 571 554 571 421.5 571 c 128,-1,12
 289 571 289 571 195 477.5 c 128,-1,13
 101 384 101 384 101 251 c 128,-1,14
 101 118 101 118 195.5 23.5 c 128,-1,15
 290 -71 290 -71 423 -71 c 128,-1,8
 556 -71 556 -71 649.5 23 c 128,-1,9
306 86 m 1,16,-1
 309 115 l 1,17,-1
 309 369 l 1,18,-1
 304 413 l 1,19,-1
 261 419 l 1,20,-1
 264 454 l 1,21,-1
 283 452 l 2,22,23
 294 451 294 451 321 451 c 2,24,-1
 325 451 l 1,25,-1
 435 457 l 1,26,27
 500 457 500 457 536 427 c 128,-1,28
 572 397 572 397 572 338 c 0,29,30
 572 297 572 297 547.5 268.5 c 128,-1,31
 523 240 523 240 482 227 c 1,32,33
 510.569767442 167.662790698 510.569767442 167.662790698 534.5 125.5 c 2,34,-1
 545 107 l 1,35,-1
 573 68 l 1,36,-1
 612 62 l 1,37,-1
 608 26 l 1,38,39
 593 26 593 26 586 27 c 2,40,-1
 544 28 l 1,41,-1
 516 26 l 1,42,-1
 512 28 l 1,43,-1
 498 58 l 2,44,45
 485 87 485 87 479 98 c 2,46,-1
 417 220 l 1,47,48
 385 220 385 220 374 221 c 1,49,-1
 374 133 l 2,50,51
 374 113 374 113 376 89 c 2,52,-1
 378 68 l 1,53,-1
 420 64 l 1,54,-1
 415 26 l 1,55,56
 401 26 401 26 393 27 c 2,57,-1
 333 28 l 2,58,59
 328 28 328 28 289 25 c 2,60,-1
 266 23 l 1,61,-1
 260 62 l 1,62,-1
 303 67 l 1,63,-1
 306 86 l 1,16,-1
387 256 m 2,64,-1
 410 256 l 1,65,66
 454 255 454 255 479 276.5 c 128,-1,67
 504 298 504 298 504 339 c 128,-1,68
 504 380 504 380 479 401 c 128,-1,69
 454 422 454 422 410 422 c 0,70,71
 388 422 388 422 377 419 c 1,72,-1
 377 418 l 1,73,-1
 375 395 l 2,74,75
 374 382 374 382 374 351 c 2,76,-1
 374 257 l 1,77,78
 379 256 379 256 387 256 c 2,64,-1
EndSplineSet
EndChar

StartChar: plusminus
Encoding: 177 177 102
Width: 560
Flags: HMW
HStem: 0 68 305 66 542 20G<244 309 309 309>
VStem: 244 69
LayerCount: 2
Fore
SplineSet
312 304 m 1,0,-1
 314 109 l 1,1,-1
 244 109 l 1,2,-1
 244 303 l 1,3,-1
 52 301 l 1,4,-1
 52 371 l 1,5,-1
 244 371 l 1,6,-1
 244 562 l 1,7,-1
 309 562 l 1,8,-1
 311 371 l 1,9,-1
 507 371 l 1,10,-1
 507 306 l 1,11,-1
 312 304 l 1,0,-1
52 66 m 1,12,-1
 507 71 l 1,13,-1
 507 0 l 1,14,-1
 52 0 l 1,15,-1
 52 66 l 1,12,-1
EndSplineSet
EndChar

StartChar: twosuperior
Encoding: 178 178 103
Width: 325
Flags: HMW
HStem: 326 46<127 191 191 195.5 127 198> 620 42<138.5 159>
VStem: 196 71<534 585.5>
LayerCount: 2
Fore
SplineSet
191 372 m 1,0,-1
 229 376 l 1,1,-1
 231 387 l 2,2,3
 234 399 234 399 234 401 c 2,4,-1
 236 434 l 1,5,-1
 285 432 l 1,6,-1
 280 329 l 1,7,-1
 275 324 l 1,8,9
 252 324 252 324 241 325 c 2,10,-1
 198 326 l 1,11,-1
 47 326 l 1,12,-1
 40 367 l 1,13,14
 52 379 52 379 78.5 402.5 c 128,-1,15
 105 426 105 426 117 437.5 c 128,-1,16
 129 449 129 449 147.5 469 c 128,-1,17
 166 489 166 489 174 502.5 c 0,18,19
 196 539.625 196 539.625 196 565.8125 c 128,-1,20
 196 592 196 592 181 606 c 128,-1,21
 166 620 166 620 145.75 620 c 128,-1,22
 125.5 620 125.5 620 106 608 c 1,23,24
 101 590 101 590 101 580 c 2,25,-1
 101 547 l 1,26,-1
 51 546 l 1,27,-1
 44 645 l 1,28,29
 104 662 104 662 152 662 c 128,-1,30
 200 662 200 662 233.5 639.5 c 128,-1,31
 267 617 267 617 267 571 c 0,32,33
 267 534 267 534 243 490.5 c 0,34,35
 231.069204152 468.875432526 231.069204152 468.875432526 197.534602076 436.937716263 c 128,-1,36
 164 405 164 405 127 372 c 1,37,-1
 191 372 l 1,0,-1
EndSplineSet
EndChar

StartChar: threesuperior
Encoding: 179 179 104
Width: 332
Flags: HMW
HStem: 318 41<148.5 176.5 148.5 194> 476 185<149.5 171.5>
VStem: 58 58 203 84
LayerCount: 2
Fore
SplineSet
154 476 m 1,0,-1
 133 475 l 1,1,-1
 124 475 l 1,2,-1
 117 507 l 1,3,4
 164 512 164 512 183.5 528.5 c 128,-1,5
 203 545 203 545 203 575 c 0,6,7
 203 620 203 620 154 620 c 0,8,9
 134 620 134 620 119 613 c 1,10,11
 116 604 116 604 116 585 c 2,12,-1
 116 551 l 1,13,-1
 68 549 l 1,14,-1
 60 643 l 1,15,16
 119 661 119 661 164.5 661 c 128,-1,17
 210 661 210 661 240.5 639 c 128,-1,18
 271 617 271 617 271 575 c 0,19,20
 271 522 271 522 214 501 c 1,21,22
 287 482 287 482 287 417 c 0,23,24
 287 369 287 369 251 343.5 c 128,-1,25
 215 318 215 318 157.5 318 c 128,-1,26
 100 318 100 318 55 335 c 1,27,-1
 62 425 l 1,28,-1
 112 423 l 1,29,30
 111 418 111 418 110.5 410.5 c 128,-1,31
 110 403 110 403 110 391.5 c 0,32,33
 110 379.5 110 379.5 113 366 c 1,34,35
 128 359 128 359 156.5 359 c 128,-1,36
 185 359 185 359 199.5 375 c 128,-1,37
 214 391 214 391 214 417.5 c 128,-1,38
 214 444 214 444 197 460 c 128,-1,39
 180 476 180 476 154 476 c 1,0,-1
EndSplineSet
EndChar

StartChar: acute
Encoding: 180 180 105
Width: 241
Flags: HMW
HStem: 564 21G<33 33> 745 20G<192 192>
LayerCount: 2
Fore
SplineSet
192 765 m 1,0,-1
 241 703 l 1,1,2
 191 675 191 675 180 668 c 2,3,-1
 107 625 l 1,4,-1
 33 564 l 1,5,-1
 0 605 l 1,6,-1
 192 765 l 1,0,-1
EndSplineSet
EndChar

StartChar: mu
Encoding: 181 181 106
Width: 580
Flags: HMW
HStem: -218 21G<101 101> -10 64<242.5 306.5> 474 20G<129 136.5 435.5 444.5> 477 20G<94 94 177 177 402 402 485 485>
VStem: 95 81<145.5 183 183 327> 403 81<210 327>
LayerCount: 2
Fore
SplineSet
92 -210 m 1,0,-1
 95 -47 l 1,1,-1
 95 357 l 1,2,-1
 88 491 l 1,3,-1
 94 497 l 1,4,-1
 110 495 l 2,5,6
 118 494 118 494 135 494 c 128,-1,7
 152 494 152 494 161 495 c 2,8,-1
 177 497 l 1,9,-1
 183 491 l 1,10,-1
 179 428 l 2,11,12
 176 393 176 393 176 327 c 2,13,-1
 176 183 l 2,14,15
 176 54 176 54 277 54 c 0,16,17
 336 54 336 54 369.5 100 c 128,-1,18
 403 146 403 146 403 210 c 2,19,-1
 403 357 l 1,20,-1
 396 491 l 1,21,-1
 402 497 l 1,22,-1
 416 495 l 2,23,24
 424 494 424 494 442 494 c 128,-1,25
 460 494 460 494 469 495 c 2,26,-1
 485 497 l 1,27,-1
 491 491 l 1,28,-1
 487 428 l 2,29,30
 484 393 484 393 484 327 c 2,31,-1
 484 137 l 2,32,33
 484 91 484 91 496 70 c 128,-1,34
 508 49 508 49 548 27 c 1,35,-1
 529 -15 l 1,36,37
 526 -14 526 -14 507.5 -8 c 128,-1,38
 489 -2 489 -2 472.5 5 c 128,-1,39
 456 12 456 12 436 28.5 c 128,-1,40
 416 45 416 45 408 68 c 1,41,42
 356 -10 356 -10 264 -10 c 0,43,44
 202 -10 202 -10 165 33 c 1,45,-1
 170 -77 l 2,46,47
 170 -87 170 -87 180 -149 c 2,48,-1
 190 -206 l 1,49,-1
 181 -214 l 1,50,-1
 159 -214 l 2,51,52
 143 -214 143 -214 121 -216 c 2,53,-1
 101 -218 l 1,54,-1
 92 -210 l 1,0,-1
EndSplineSet
EndChar

StartChar: paragraph
Encoding: 182 182 107
Width: 556
Flags: HMW
HStem: -94 21G<238 238> -90 59 685 20G<404.5 411> 695 20G<167.5 244>
VStem: 337 87<77 568>
LayerCount: 2
Fore
SplineSet
84.5 347.5 m 128,-1,1
 14 404 14 404 14 505.5 c 128,-1,2
 14 607 14 607 72.5 661 c 128,-1,3
 131 715 131 715 237 715 c 0,4,5
 258 715 258 715 287 712 c 1,6,-1
 287 316 l 1,7,-1
 260 291 l 1,8,0
 155 291 155 291 84.5 347.5 c 128,-1,1
423 -93 m 1,9,-1
 358 -90 l 1,10,11
 314 -90 314 -90 272 -92 c 2,12,-1
 238 -94 l 1,13,-1
 232 -35 l 1,14,-1
 328 -28 l 1,15,-1
 332 6 l 1,16,17
 337 39 337 39 337 77 c 2,18,-1
 337 699 l 1,19,-1
 349 710 l 1,20,21
 381 705 381 705 414.5 704 c 128,-1,22
 448 703 448 703 473 707 c 1,23,-1
 506 710 l 1,24,-1
 511 660 l 1,25,-1
 434 648 l 1,26,27
 424 585.5 424 585.5 424 568 c 2,28,-1
 424 47 l 2,29,30
 424 26 424 26 429 -26 c 2,31,-1
 434 -83 l 1,32,-1
 423 -93 l 1,9,-1
EndSplineSet
EndChar

StartChar: periodcentered
Encoding: 183 183 108
Width: 213
Flags: HMW
HStem: 230 139<83.5 124 83.5 124.5>
VStem: 40 128<278.5 319.5>
LayerCount: 2
Fore
SplineSet
104 369 m 128,-1,1
 134 369 134 369 151 350.5 c 128,-1,2
 168 332 168 332 168 300 c 0,3,4
 168 268 168 268 151 249 c 128,-1,5
 134 230 134 230 104 230 c 128,-1,6
 74 230 74 230 57 249 c 128,-1,7
 40 268 40 268 40 299 c 128,-1,8
 40 330 40 330 57 349.5 c 128,-1,0
 74 369 74 369 104 369 c 128,-1,1
EndSplineSet
EndChar

StartChar: cedilla
Encoding: 184 184 109
Width: 168
Flags: HMW
HStem: -235 42<47.5 70 44 96> -103 44<72 72 72 74.5> -20 20G<38 86 86 86>
VStem: 108 65<-161.5 -130.5>
LayerCount: 2
Fore
SplineSet
61 -103 m 1,0,-1
 48 -104 l 1,1,-1
 40 -104 l 1,2,-1
 29 -94 l 1,3,-1
 38 0 l 1,4,-1
 86 0 l 1,5,-1
 72 -59 l 1,6,7
 118 -60 118 -60 145.5 -83 c 128,-1,8
 173 -106 173 -106 173 -146 c 128,-1,9
 173 -186 173 -186 142.5 -210.5 c 128,-1,10
 112 -235 112 -235 66.5 -235 c 128,-1,11
 21 -235 21 -235 -17 -217 c 1,12,-1
 -4 -182 l 1,13,14
 31 -193 31 -193 55 -193 c 128,-1,15
 79 -193 79 -193 93.5 -181 c 128,-1,16
 108 -169 108 -169 108 -146 c 0,17,18
 108 -103 108 -103 61 -103 c 1,0,-1
EndSplineSet
EndChar

StartChar: onesuperior
Encoding: 185 185 110
Width: 280
Flags: HMW
HStem: 322 21G<63 63 243 243> 646 20G<159 159>
VStem: 128 63<423.5 430 430 539>
LayerCount: 2
Fore
SplineSet
123 370 m 1,0,-1
 128 415 l 1,1,-1
 128 564 l 1,2,-1
 61 532 l 1,3,-1
 40 566 l 1,4,-1
 77 593 l 2,5,6
 88 602 88 602 104.5 614 c 128,-1,7
 121 626 121 626 122 627 c 2,8,-1
 143 648 l 1,9,-1
 159 666 l 1,10,-1
 198 659 l 1,11,-1
 194 608 l 2,12,13
 191 581 191 581 191 539 c 2,14,-1
 191 430 l 2,15,16
 191 415 191 415 193 391 c 1,17,-1
 196 370 l 1,18,-1
 248 365 l 1,19,-1
 243 322 l 1,20,-1
 208 324 l 2,21,22
 166 326 166 326 142 326 c 128,-1,23
 118 326 118 326 88 324 c 2,24,-1
 63 322 l 1,25,-1
 59 362 l 1,26,-1
 123 370 l 1,0,-1
EndSplineSet
EndChar

StartChar: ordmasculine
Encoding: 186 186 111
Width: 364
Flags: HMW
HStem: 373 42<147.5 216.5 147.5 234> 673 42<147.5 216.5>
VStem: 25 71<510 578 510 594.5> 268 71<510 578>
LayerCount: 2
Fore
SplineSet
339 544 m 128,-1,1
 339 466 339 466 298.5 419.5 c 128,-1,2
 258 373 258 373 182 373 c 128,-1,3
 106 373 106 373 65.5 419.5 c 128,-1,4
 25 466 25 466 25 544 c 128,-1,5
 25 622 25 622 65.5 668.5 c 128,-1,6
 106 715 106 715 182 715 c 128,-1,7
 258 715 258 715 298.5 668.5 c 128,-1,0
 339 622 339 622 339 544 c 128,-1,1
268 544 m 128,-1,9
 268 673 268 673 182 673 c 128,-1,10
 96 673 96 673 96 544 c 128,-1,11
 96 415 96 415 182 415 c 128,-1,8
 268 415 268 415 268 544 c 128,-1,9
EndSplineSet
EndChar

StartChar: guillemotright
Encoding: 187 187 112
Width: 415
Flags: HMW
HStem: 19 21G<238 238> 443 20G<238 238>
LayerCount: 2
Fore
SplineSet
391 241 m 1,0,-1
 238 19 l 1,1,-1
 201 44 l 1,2,-1
 307 241 l 1,3,-1
 201 438 l 1,4,-1
 238 463 l 1,5,-1
 391 241 l 1,0,-1
228 241 m 1,6,-1
 78 23 l 1,7,-1
 42 48 l 1,8,-1
 146 241 l 1,9,-1
 42 434 l 1,10,-1
 78 459 l 1,11,-1
 228 241 l 1,6,-1
EndSplineSet
EndChar

StartChar: onequarter
Encoding: 188 188 113
Width: 744
Flags: HMW
HStem: -49 21G<172 172> 322 21G<55 55 235 235> 646 20G<151 151> 701 20G<555 555>
VStem: 120 63<423.5 430 430 539>
LayerCount: 2
Fore
SplineSet
172 -49 m 1,0,-1
 121 -17 l 1,1,-1
 555 721 l 1,2,-1
 605 689 l 1,3,-1
 172 -49 l 1,0,-1
115 370 m 1,4,-1
 120 415 l 1,5,-1
 120 564 l 1,6,-1
 53 532 l 1,7,-1
 32 566 l 1,8,-1
 69 593 l 2,9,10
 80 602 80 602 96.5 614 c 128,-1,11
 113 626 113 626 114 627 c 2,12,-1
 135 648 l 1,13,-1
 151 666 l 1,14,-1
 190 659 l 1,15,-1
 186 608 l 2,16,17
 183 581 183 581 183 539 c 2,18,-1
 183 430 l 2,19,20
 183 415 183 415 185 391 c 1,21,-1
 188 370 l 1,22,-1
 240 365 l 1,23,-1
 235 322 l 1,24,-1
 200 324 l 2,25,26
 158 326 158 326 134 326 c 128,-1,27
 110 326 110 326 80 324 c 2,28,-1
 55 322 l 1,29,-1
 51 362 l 1,30,-1
 115 370 l 1,4,-1
628 147 m 1,31,-1
 684 150 l 1,32,-1
 684 102 l 1,33,-1
 628 102 l 1,34,-1
 628 96 l 2,35,36
 628 65 628 65 628.5 55.5 c 128,-1,37
 629 46 629 46 630 43 c 1,38,-1
 684 38 l 1,39,-1
 679 -5 l 1,40,-1
 644 -3 l 2,41,42
 602 -1 602 -1 579 -1 c 128,-1,43
 556 -1 556 -1 530 -3 c 2,44,-1
 507 -5 l 1,45,-1
 503 35 l 1,46,-1
 566 43 l 1,47,-1
 568 58 l 2,48,49
 570 74 570 74 570 81 c 2,50,-1
 570 102 l 1,51,-1
 433 102 l 1,52,-1
 407 133 l 1,53,-1
 556 366 l 1,54,-1
 605 330 l 1,55,-1
 583 304 l 2,56,57
 577 296 577 296 567.5 284.5 c 128,-1,58
 558 273 558 273 557 271 c 2,59,-1
 485 144 l 1,60,-1
 523 144 l 2,61,62
 547 144 547 144 570 145 c 1,63,-1
 570 204 l 1,64,-1
 626 222 l 1,65,-1
 628 147 l 1,31,-1
EndSplineSet
EndChar

StartChar: onehalf
Encoding: 189 189 114
Width: 760
Flags: HMW
HStem: -49 21G<172 172> 1 46<547 611 611 615.5 547 618> 295 42<558.5 579> 322 21G<55 55 235 235> 646 20G<151 151> 701 20G<555 555>
VStem: 120 63<423.5 430 430 539> 616 71<209 260.5>
LayerCount: 2
Fore
SplineSet
115 370 m 1,0,-1
 120 415 l 1,1,-1
 120 564 l 1,2,-1
 53 532 l 1,3,-1
 32 566 l 1,4,-1
 69 593 l 2,5,6
 80 602 80 602 96.5 614 c 128,-1,7
 113 626 113 626 114 627 c 2,8,-1
 135 648 l 1,9,-1
 151 666 l 1,10,-1
 190 659 l 1,11,-1
 186 608 l 2,12,13
 183 581 183 581 183 539 c 2,14,-1
 183 430 l 2,15,16
 183 415 183 415 185 391 c 1,17,-1
 188 370 l 1,18,-1
 240 365 l 1,19,-1
 235 322 l 1,20,-1
 200 324 l 2,21,22
 158 326 158 326 134 326 c 128,-1,23
 110 326 110 326 80 324 c 2,24,-1
 55 322 l 1,25,-1
 51 362 l 1,26,-1
 115 370 l 1,0,-1
172 -49 m 1,27,-1
 121 -17 l 1,28,-1
 555 721 l 1,29,-1
 605 689 l 1,30,-1
 172 -49 l 1,27,-1
611 47 m 1,31,-1
 649 51 l 1,32,-1
 651 62 l 2,33,34
 654 74 654 74 654 76 c 2,35,-1
 656 109 l 1,36,-1
 705 107 l 1,37,-1
 700 4 l 1,38,-1
 695 -1 l 1,39,40
 672 -1 672 -1 661 0 c 2,41,-1
 618 1 l 1,42,-1
 467 1 l 1,43,-1
 460 42 l 1,44,45
 472 54 472 54 498.5 77.5 c 128,-1,46
 525 101 525 101 537 112.5 c 128,-1,47
 549 124 549 124 567.5 144 c 128,-1,48
 586 164 586 164 594 177.5 c 0,49,50
 616 214.625 616 214.625 616 240.8125 c 128,-1,51
 616 267 616 267 601 281 c 128,-1,52
 586 295 586 295 565.75 295 c 128,-1,53
 545.5 295 545.5 295 526 283 c 1,54,55
 521 265 521 265 521 255 c 2,56,-1
 521 222 l 1,57,-1
 471 221 l 1,58,-1
 464 320 l 1,59,60
 524 337 524 337 572 337 c 128,-1,61
 620 337 620 337 653.5 314.5 c 128,-1,62
 687 292 687 292 687 246 c 0,63,64
 687 209 687 209 663 165.5 c 0,65,66
 651.069204152 143.875432526 651.069204152 143.875432526 617.534602076 111.937716263 c 128,-1,67
 584 80 584 80 547 47 c 1,68,-1
 611 47 l 1,31,-1
EndSplineSet
EndChar

StartChar: threequarters
Encoding: 190 190 115
Width: 752
Flags: HMW
HStem: -49 21G<182 182> -5 21G<515 515 687 687> -1 145<493 593> 102 42<493 531 531 534.5 493 578> 318 41<133.5 161.5 133.5 179> 346 20G<98 98 564 564> 476 185<134.5 156.5> 620 41<133.5 156.5> 701 20G<565 565>
VStem: 43 58 188 68<557.5 588.5> 188 84 578 57
LayerCount: 2
Fore
SplineSet
139 476 m 1,0,-1
 118 475 l 1,1,-1
 109 475 l 1,2,-1
 102 507 l 1,3,4
 149 512 149 512 168.5 528.5 c 128,-1,5
 188 545 188 545 188 575 c 0,6,7
 188 620 188 620 139 620 c 0,8,9
 119 620 119 620 104 613 c 1,10,11
 101 604 101 604 101 585 c 2,12,-1
 101 551 l 1,13,-1
 53 549 l 1,14,-1
 45 643 l 1,15,16
 104 661 104 661 149.5 661 c 128,-1,17
 195 661 195 661 225.5 639 c 128,-1,18
 256 617 256 617 256 575 c 0,19,20
 256 522 256 522 199 501 c 1,21,22
 272 482 272 482 272 417 c 0,23,24
 272 369 272 369 236 343.5 c 128,-1,25
 200 318 200 318 142.5 318 c 128,-1,26
 85 318 85 318 40 335 c 1,27,-1
 47 425 l 1,28,-1
 97 423 l 1,29,30
 96 418 96 418 95.5 410.5 c 128,-1,31
 95 403 95 403 95 391.5 c 0,32,33
 95 379.5 95 379.5 98 366 c 1,34,35
 113 359 113 359 141.5 359 c 128,-1,36
 170 359 170 359 184.5 375 c 128,-1,37
 199 391 199 391 199 417.5 c 128,-1,38
 199 444 199 444 182 460 c 128,-1,39
 165 476 165 476 139 476 c 1,0,-1
182 -49 m 1,40,-1
 131 -17 l 1,41,-1
 565 721 l 1,42,-1
 615 689 l 1,43,-1
 182 -49 l 1,40,-1
636 147 m 1,44,-1
 692 150 l 1,45,-1
 692 102 l 1,46,-1
 636 102 l 1,47,-1
 636 96 l 2,48,49
 636 65 636 65 636.5 55.5 c 128,-1,50
 637 46 637 46 638 43 c 1,51,-1
 692 38 l 1,52,-1
 687 -5 l 1,53,-1
 652 -3 l 2,54,55
 610 -1 610 -1 587 -1 c 128,-1,56
 564 -1 564 -1 538 -3 c 2,57,-1
 515 -5 l 1,58,-1
 511 35 l 1,59,-1
 574 43 l 1,60,-1
 576 58 l 2,61,62
 578 74 578 74 578 81 c 2,63,-1
 578 102 l 1,64,-1
 441 102 l 1,65,-1
 415 133 l 1,66,-1
 564 366 l 1,67,-1
 613 330 l 1,68,-1
 591 304 l 2,69,70
 585 296 585 296 575.5 284.5 c 128,-1,71
 566 273 566 273 565 271 c 2,72,-1
 493 144 l 1,73,-1
 531 144 l 2,74,75
 555 144 555 144 578 145 c 1,76,-1
 578 204 l 1,77,-1
 634 222 l 1,78,-1
 636 147 l 1,44,-1
EndSplineSet
EndChar

StartChar: questiondown
Encoding: 191 191 116
Width: 403
Flags: HMW
HStem: -234 57<156 220.5 156 236> 141 58<189 189 189 212> 374 129<206.5 244.5 206.5 245.5>
VStem: -24 94<-58 22 -58 45.5> 186 88
LayerCount: 2
Fore
SplineSet
182 485.5 m 128,-1,1
 197 503 197 503 225.5 503 c 128,-1,2
 254 503 254 503 269.5 486 c 128,-1,3
 285 469 285 469 285 438.5 c 128,-1,4
 285 408 285 408 270 391 c 128,-1,5
 255 374 255 374 226 374 c 128,-1,6
 197 374 197 374 182 391 c 128,-1,7
 167 408 167 408 167 438 c 128,-1,0
 167 468 167 468 182 485.5 c 128,-1,1
70 -18 m 128,-1,9
 70 -85 70 -85 103 -131 c 128,-1,10
 136 -177 136 -177 206 -177 c 0,11,12
 252 -177 252 -177 288 -147 c 1,13,14
 295 -114 295 -114 295 -93 c 1,15,-1
 293 -57 l 1,16,-1
 351 -54 l 1,17,-1
 363 -195 l 1,18,19
 278 -234 278 -234 206 -234 c 0,20,21
 94 -234 94 -234 35 -175 c 128,-1,22
 -24 -116 -24 -116 -24 -18.5 c 128,-1,23
 -24 79 -24 79 30 136.5 c 128,-1,24
 84 194 84 194 189 199 c 1,25,-1
 183 297 l 1,26,-1
 191 307 l 1,27,-1
 217 304 l 1,28,29
 255 301 255 301 273 304 c 1,30,-1
 276 161 l 1,31,-1
 247 135 l 1,32,33
 229 141 229 141 206 141 c 0,34,35
 136 141 136 141 103 95 c 128,-1,8
 70 49 70 49 70 -18 c 128,-1,9
EndSplineSet
EndChar

StartChar: Agrave
Encoding: 192 192 117
Width: 686
Flags: HMW
HStem: -4 21G<8 8 230 230 447 447 678 678> 0 21G<56.5 77.5 505.5 521> 231 51 696 20G<366 366>
LayerCount: 2
Fore
SplineSet
312 705 m 1,0,-1
 366 716 l 1,1,-1
 476 430 l 2,2,3
 500 369 500 369 528.5 293.5 c 0,4,5
 587.810810811 136.378378378 587.810810811 136.378378378 592 128 c 1,6,7
 600 104 600 104 630 54 c 1,8,-1
 681 49 l 1,9,-1
 678 -4 l 1,10,-1
 609 -2 l 2,11,12
 535 0 535 0 516 0 c 128,-1,13
 497 0 497 0 471 -2 c 2,14,-1
 447 -4 l 1,15,-1
 442 49 l 1,16,-1
 513 56 l 1,17,18
 506 105 506 105 498 129 c 1,19,-1
 458 233 l 1,20,-1
 209 230 l 1,21,-1
 168 115 l 1,22,23
 161 84 161 84 157 57 c 1,24,-1
 158 57 l 1,25,-1
 236 49 l 1,26,-1
 230 -4 l 1,27,-1
 168 -2 l 2,28,29
 98 0 98 0 73.5 0 c 128,-1,30
 49 0 49 0 27 -2 c 2,31,-1
 8 -4 l 1,32,-1
 5 48 l 1,33,-1
 62 56 l 1,34,35
 117 157 117 157 118 161 c 2,36,-1
 312 705 l 1,0,-1
228 284 m 1,37,38
 282 282 282 282 305 282 c 128,-1,39
 328 282 328 282 372.5 283.5 c 128,-1,40
 417 285 417 285 438 285 c 1,41,-1
 329 569 l 1,42,-1
 228 284 l 1,37,38
161 854 m 1,43,-1
 191 927 l 1,44,-1
 420 827 l 1,45,-1
 400 779 l 1,46,-1
 312 816 l 1,47,-1
 161 854 l 1,43,-1
EndSplineSet
EndChar

StartChar: Aacute
Encoding: 193 193 118
Width: 686
Flags: HMW
HStem: -4 21G<8 8 230 230 447 447 678 678> 0 21G<56.5 77.5 505.5 521> 231 51 696 20G<366 366>
LayerCount: 2
Fore
SplineSet
312 705 m 1,0,-1
 366 716 l 1,1,-1
 476 430 l 2,2,3
 500 369 500 369 528.5 293.5 c 0,4,5
 587.810810811 136.378378378 587.810810811 136.378378378 592 128 c 1,6,7
 600 104 600 104 630 54 c 1,8,-1
 681 49 l 1,9,-1
 678 -4 l 1,10,-1
 609 -2 l 2,11,12
 535 0 535 0 516 0 c 128,-1,13
 497 0 497 0 471 -2 c 2,14,-1
 447 -4 l 1,15,-1
 442 49 l 1,16,-1
 513 56 l 1,17,18
 506 105 506 105 498 129 c 1,19,-1
 458 233 l 1,20,-1
 209 230 l 1,21,-1
 168 115 l 1,22,23
 161 84 161 84 157 57 c 1,24,-1
 158 57 l 1,25,-1
 236 49 l 1,26,-1
 230 -4 l 1,27,-1
 168 -2 l 2,28,29
 98 0 98 0 73.5 0 c 128,-1,30
 49 0 49 0 27 -2 c 2,31,-1
 8 -4 l 1,32,-1
 5 48 l 1,33,-1
 62 56 l 1,34,35
 117 157 117 157 118 161 c 2,36,-1
 312 705 l 1,0,-1
228 284 m 1,37,38
 282 282 282 282 305 282 c 128,-1,39
 328 282 328 282 372.5 283.5 c 128,-1,40
 417 285 417 285 438 285 c 1,41,-1
 329 569 l 1,42,-1
 228 284 l 1,37,38
475 927 m 1,43,-1
 505 854 l 1,44,-1
 437 837 l 2,45,46
 423 833 423 833 403 828.5 c 128,-1,47
 383 824 383 824 370.5 820.5 c 128,-1,48
 358 817 358 817 354 816 c 2,49,-1
 266 779 l 1,50,-1
 246 827 l 1,51,-1
 475 927 l 1,43,-1
EndSplineSet
EndChar

StartChar: Acircumflex
Encoding: 194 194 119
Width: 686
Flags: HMW
HStem: -4 21G<8 8 230 230 447 447 678 678> 0 21G<56.5 77.5 505.5 521> 231 51 696 20G<366 366> 776 21G<182 182 484 484> 902 20G<333 333>
LayerCount: 2
Fore
SplineSet
312 705 m 1,0,-1
 366 716 l 1,1,-1
 476 430 l 2,2,3
 500 369 500 369 528.5 293.5 c 0,4,5
 587.810810811 136.378378378 587.810810811 136.378378378 592 128 c 1,6,7
 600 104 600 104 630 54 c 1,8,-1
 681 49 l 1,9,-1
 678 -4 l 1,10,-1
 609 -2 l 2,11,12
 535 0 535 0 516 0 c 128,-1,13
 497 0 497 0 471 -2 c 2,14,-1
 447 -4 l 1,15,-1
 442 49 l 1,16,-1
 513 56 l 1,17,18
 506 105 506 105 498 129 c 1,19,-1
 458 233 l 1,20,-1
 209 230 l 1,21,-1
 168 115 l 1,22,23
 161 84 161 84 157 57 c 1,24,-1
 158 57 l 1,25,-1
 236 49 l 1,26,-1
 230 -4 l 1,27,-1
 168 -2 l 2,28,29
 98 0 98 0 73.5 0 c 128,-1,30
 49 0 49 0 27 -2 c 2,31,-1
 8 -4 l 1,32,-1
 5 48 l 1,33,-1
 62 56 l 1,34,35
 117 157 117 157 118 161 c 2,36,-1
 312 705 l 1,0,-1
228 284 m 1,37,38
 282 282 282 282 305 282 c 128,-1,39
 328 282 328 282 372.5 283.5 c 128,-1,40
 417 285 417 285 438 285 c 1,41,-1
 329 569 l 1,42,-1
 228 284 l 1,37,38
333 922 m 1,43,-1
 507 815 l 1,44,-1
 484 776 l 1,45,-1
 396 817 l 1,46,-1
 333 842 l 1,47,-1
 270 817 l 1,48,-1
 182 776 l 1,49,-1
 159 815 l 1,50,-1
 333 922 l 1,43,-1
EndSplineSet
EndChar

StartChar: Atilde
Encoding: 195 195 120
Width: 686
Flags: HMW
HStem: -4 21G<8 8 230 230 447 447 678 678> 0 21G<56.5 77.5 505.5 521> 231 51 696 20G<366 366> 789 21G 802 68<398 418.5 392 428> 843 68<246.5 267 237 274> 901 20G<465 465>
LayerCount: 2
Fore
SplineSet
312 705 m 1,0,-1
 366 716 l 1,1,-1
 476 430 l 2,2,3
 500 369 500 369 528.5 293.5 c 0,4,5
 587.810810811 136.378378378 587.810810811 136.378378378 592 128 c 1,6,7
 600 104 600 104 630 54 c 1,8,-1
 681 49 l 1,9,-1
 678 -4 l 1,10,-1
 609 -2 l 2,11,12
 535 0 535 0 516 0 c 128,-1,13
 497 0 497 0 471 -2 c 2,14,-1
 447 -4 l 1,15,-1
 442 49 l 1,16,-1
 513 56 l 1,17,18
 506 105 506 105 498 129 c 1,19,-1
 458 233 l 1,20,-1
 209 230 l 1,21,-1
 168 115 l 1,22,23
 161 84 161 84 157 57 c 1,24,-1
 158 57 l 1,25,-1
 236 49 l 1,26,-1
 230 -4 l 1,27,-1
 168 -2 l 2,28,29
 98 0 98 0 73.5 0 c 128,-1,30
 49 0 49 0 27 -2 c 2,31,-1
 8 -4 l 1,32,-1
 5 48 l 1,33,-1
 62 56 l 1,34,35
 117 157 117 157 118 161 c 2,36,-1
 312 705 l 1,0,-1
228 284 m 1,37,38
 282 282 282 282 305 282 c 128,-1,39
 328 282 328 282 372.5 283.5 c 128,-1,40
 417 285 417 285 438 285 c 1,41,-1
 329 569 l 1,42,-1
 228 284 l 1,37,38
501 900 m 1,43,44
 453.814814815 802 453.814814815 802 418 802 c 0,45,46
 398 802 398 802 336 822.5 c 128,-1,47
 274 843 274 843 257 843 c 128,-1,48
 240 843 240 843 217 816 c 1,49,50
 210 806 210 806 201 789 c 1,51,-1
 165 810 l 1,52,53
 174 832 174 832 191 860 c 0,54,55
 222 911 222 911 244.5 911 c 128,-1,56
 267 911 267 911 329.5 890.5 c 128,-1,57
 392 870 392 870 410 870 c 128,-1,58
 428 870 428 870 449 895 c 0,59,60
 456 903 456 903 465 921 c 1,61,-1
 501 900 l 1,43,44
EndSplineSet
EndChar

StartChar: Adieresis
Encoding: 196 196 121
Width: 686
Flags: HMW
HStem: -4 21G<8 8 230 230 447 447 678 678> 0 21G<56.5 77.5 505.5 521> 231 51 696 20G<366 366> 793 119<192 228 438 474>
VStem: 156 108<834 870> 402 108<834 870>
LayerCount: 2
Fore
SplineSet
312 705 m 1,0,-1
 366 716 l 1,1,-1
 476 430 l 2,2,3
 500 369 500 369 528.5 293.5 c 0,4,5
 587.810810811 136.378378378 587.810810811 136.378378378 592 128 c 1,6,7
 600 104 600 104 630 54 c 1,8,-1
 681 49 l 1,9,-1
 678 -4 l 1,10,-1
 609 -2 l 2,11,12
 535 0 535 0 516 0 c 128,-1,13
 497 0 497 0 471 -2 c 2,14,-1
 447 -4 l 1,15,-1
 442 49 l 1,16,-1
 513 56 l 1,17,18
 506 105 506 105 498 129 c 1,19,-1
 458 233 l 1,20,-1
 209 230 l 1,21,-1
 168 115 l 1,22,23
 161 84 161 84 157 57 c 1,24,-1
 158 57 l 1,25,-1
 236 49 l 1,26,-1
 230 -4 l 1,27,-1
 168 -2 l 2,28,29
 98 0 98 0 73.5 0 c 128,-1,30
 49 0 49 0 27 -2 c 2,31,-1
 8 -4 l 1,32,-1
 5 48 l 1,33,-1
 62 56 l 1,34,35
 117 157 117 157 118 161 c 2,36,-1
 312 705 l 1,0,-1
228 284 m 1,37,38
 282 282 282 282 305 282 c 128,-1,39
 328 282 328 282 372.5 283.5 c 128,-1,40
 417 285 417 285 438 285 c 1,41,-1
 329 569 l 1,42,-1
 228 284 l 1,37,38
210 912 m 0,43,44
 264 912 264 912 264 852.5 c 128,-1,45
 264 793 264 793 210 793 c 128,-1,46
 156 793 156 793 156 852 c 0,47,48
 156 880 156 880 170 896 c 128,-1,49
 184 912 184 912 210 912 c 0,43,44
456 912 m 0,50,51
 510 912 510 912 510 852.5 c 128,-1,52
 510 793 510 793 456 793 c 128,-1,53
 402 793 402 793 402 852 c 0,54,55
 402 880 402 880 416 896 c 128,-1,56
 430 912 430 912 456 912 c 0,50,51
EndSplineSet
EndChar

StartChar: Aring
Encoding: 197 197 122
Width: 686
Flags: HMW
HStem: -4 21G<8 8 230 230 447 447 678 678> 0 21G<56.5 77.5 505.5 521> 231 51 696 20G<366 366> 765 38<318.5 348.5 318.5 363> 898 38<318.5 348.5>
VStem: 243 49<837.5 863.5 837.5 876> 375 47<837.5 863.5>
LayerCount: 2
Fore
SplineSet
312 705 m 1,0,-1
 366 716 l 1,1,-1
 476 430 l 2,2,3
 500 369 500 369 528.5 293.5 c 0,4,5
 587.810810811 136.378378378 587.810810811 136.378378378 592 128 c 1,6,7
 600 104 600 104 630 54 c 1,8,-1
 681 49 l 1,9,-1
 678 -4 l 1,10,-1
 609 -2 l 2,11,12
 535 0 535 0 516 0 c 128,-1,13
 497 0 497 0 471 -2 c 2,14,-1
 447 -4 l 1,15,-1
 442 49 l 1,16,-1
 513 56 l 1,17,18
 506 105 506 105 498 129 c 1,19,-1
 458 233 l 1,20,-1
 209 230 l 1,21,-1
 168 115 l 1,22,23
 161 84 161 84 157 57 c 1,24,-1
 158 57 l 1,25,-1
 236 49 l 1,26,-1
 230 -4 l 1,27,-1
 168 -2 l 2,28,29
 98 0 98 0 73.5 0 c 128,-1,30
 49 0 49 0 27 -2 c 2,31,-1
 8 -4 l 1,32,-1
 5 48 l 1,33,-1
 62 56 l 1,34,35
 117 157 117 157 118 161 c 2,36,-1
 312 705 l 1,0,-1
228 284 m 1,37,38
 282 282 282 282 305 282 c 128,-1,39
 328 282 328 282 372.5 283.5 c 128,-1,40
 417 285 417 285 438 285 c 1,41,-1
 329 569 l 1,42,-1
 228 284 l 1,37,38
399.5 913 m 128,-1,44
 422 890 422 890 422 850.5 c 128,-1,45
 422 811 422 811 399.5 788 c 128,-1,46
 377 765 377 765 333 765 c 128,-1,47
 289 765 289 765 266 788 c 128,-1,48
 243 811 243 811 243 850.5 c 128,-1,49
 243 890 243 890 266 913 c 128,-1,50
 289 936 289 936 333 936 c 128,-1,43
 377 936 377 936 399.5 913 c 128,-1,44
375 850.5 m 128,-1,52
 375 898 375 898 333.5 898 c 128,-1,53
 292 898 292 898 292 850.5 c 128,-1,54
 292 803 292 803 333.5 803 c 128,-1,51
 375 803 375 803 375 850.5 c 128,-1,52
EndSplineSet
EndChar

StartChar: AE
Encoding: 198 198 123
Width: 913
Flags: HMW
HStem: -4 21G<8 8 230 230 415 415 863 863> 0 57<67 67 67 77.5 589 710 710 725.5> 251 51 326 56 649 56<496 677 496 496> 695 20G<830 830>
LayerCount: 2
Fore
SplineSet
707 705 m 2,0,1
 732.5 705 732.5 705 830 715 c 1,2,-1
 840 704 l 1,3,-1
 847 561 l 1,4,-1
 789 556 l 1,5,6
 781 599 781 599 777 612 c 128,-1,7
 773 625 773 625 758 644 c 1,8,9
 720 649 720 649 677 649 c 2,10,-1
 496 649 l 1,11,12
 497 644 497 644 500 603.5 c 128,-1,13
 503 563 503 563 507 541 c 2,14,-1
 531 385 l 1,15,-1
 607 382 l 1,16,-1
 655 382 l 2,17,18
 679 382 679 382 715 391 c 1,19,-1
 724 457 l 1,20,-1
 770 452 l 1,21,22
 769 440 769 440 769 419 c 2,23,-1
 769 372 l 2,24,25
 769 320 769 320 770 299 c 2,26,-1
 772 263 l 1,27,-1
 724 257 l 1,28,-1
 715 324 l 1,29,-1
 682 327 l 1,30,-1
 635 330 l 1,31,-1
 607 330 l 2,32,33
 576 330 576 330 540 326 c 1,34,-1
 564 174 l 2,35,36
 566 156 566 156 576 111.5 c 128,-1,37
 586 67 586 67 589 57 c 1,38,-1
 710 57 l 2,39,40
 745 57 745 57 797 66 c 1,41,42
 812 86 812 86 818 103 c 1,43,44
 819 111 819 111 825.5 137.5 c 128,-1,45
 832 164 832 164 833 170 c 1,46,-1
 888 165 l 1,47,-1
 873 7 l 1,48,-1
 863 -4 l 1,49,-1
 809 -2 l 2,50,51
 753 0 753 0 740 0 c 2,52,-1
 479 0 l 2,53,54
 465 0 465 0 439 -2 c 2,55,-1
 415 -4 l 1,56,-1
 410 49 l 1,57,-1
 480 56 l 1,58,-1
 480 67 l 2,59,60
 480 117 480 117 477 130 c 2,61,-1
 458 253 l 1,62,-1
 246 250 l 1,63,-1
 176 102 l 1,64,65
 172 91 172 91 162 56 c 1,66,-1
 236 49 l 1,67,-1
 230 -4 l 1,68,-1
 168 -2 l 2,69,70
 98 0 98 0 73.5 0 c 128,-1,71
 49 0 49 0 27 -2 c 2,72,-1
 8 -4 l 1,73,-1
 5 48 l 1,74,-1
 67 57 l 1,75,76
 124 133 124 133 131 153 c 1,77,-1
 367 648 l 1,78,-1
 293 660 l 1,79,-1
 298 710 l 1,80,-1
 330 707 l 1,81,82
 368 705 368 705 393 705 c 2,83,-1
 707 705 l 2,0,1
272 303 m 1,84,85
 297 302 297 302 338.5 302 c 128,-1,86
 380 302 380 302 450 304 c 1,87,-1
 412 556 l 1,88,-1
 405 584 l 1,89,-1
 272 303 l 1,84,85
EndSplineSet
EndChar

StartChar: Egrave
Encoding: 200 200 124
Width: 562
Flags: HMW
HStem: -9 21G<37 37> 0 57<107 150 215 359 359 374.5> 340 52<246.5 324 251 304> 649 56<215 346 215 215>
VStem: 117 92<147 167 167 338 394 538>
LayerCount: 2
Fore
SplineSet
351 337 m 1,0,-1
 304 340 l 1,1,-1
 251 340 l 2,2,3
 241 340 241 340 209 338 c 1,4,-1
 209 167 l 2,5,6
 209 99 209 99 215 57 c 1,7,-1
 359 57 l 2,8,9
 400 57 400 57 446 65 c 1,10,11
 460 84 460 84 467 103 c 1,12,13
 468 111 468 111 474.5 137.5 c 128,-1,14
 481 164 481 164 482 170 c 1,15,-1
 537 165 l 1,16,-1
 522 7 l 1,17,-1
 512 -4 l 1,18,-1
 458 -2 l 2,19,20
 402 0 402 0 389 0 c 2,21,-1
 150 0 l 2,22,23
 116 0 116 0 78 -5 c 1,24,-1
 37 -9 l 1,25,-1
 30 48 l 1,26,-1
 107 57 l 1,27,28
 108 66 108 66 112.5 91.5 c 128,-1,29
 117 117 117 117 117 137 c 2,30,-1
 117 568 l 2,31,32
 117 583 117 583 112.5 608.5 c 128,-1,33
 108 634 108 634 107 648 c 1,34,-1
 30 660 l 1,35,-1
 35 710 l 1,36,-1
 63 707 l 1,37,38
 95 705 95 705 120 705 c 2,39,-1
 376 705 l 2,40,41
 401.5 705 401.5 705 499 715 c 1,42,-1
 509 704 l 1,43,-1
 516 561 l 1,44,-1
 458 556 l 1,45,46
 450 599 450 599 446 612 c 128,-1,47
 442 625 442 625 427 644 c 1,48,49
 389 649 389 649 346 649 c 2,50,-1
 215 649 l 1,51,52
 209 609 209 609 209 538 c 2,53,-1
 209 394 l 1,54,55
 243 392 243 392 251 392 c 2,56,-1
 324 392 l 2,57,58
 348 392 348 392 384 401 c 1,59,-1
 393 467 l 1,60,-1
 439 462 l 1,61,62
 438 450 438 450 438 429 c 2,63,-1
 438 382 l 2,64,65
 438 330 438 330 439 309 c 2,66,-1
 441 273 l 1,67,-1
 393 267 l 1,68,-1
 384 334 l 1,69,-1
 351 337 l 1,0,-1
150 854 m 1,70,-1
 180 927 l 1,71,-1
 409 827 l 1,72,-1
 389 779 l 1,73,-1
 301 816 l 1,74,-1
 150 854 l 1,70,-1
EndSplineSet
EndChar

StartChar: Eacute
Encoding: 201 201 125
Width: 562
Flags: HMW
HStem: -9 21G<37 37> 0 57<107 150 215 359 359 374.5> 340 52<246.5 324 251 304> 649 56<215 346 215 215>
VStem: 117 92<147 167 167 338 394 538>
LayerCount: 2
Fore
SplineSet
351 337 m 1,0,-1
 304 340 l 1,1,-1
 251 340 l 2,2,3
 241 340 241 340 209 338 c 1,4,-1
 209 167 l 2,5,6
 209 99 209 99 215 57 c 1,7,-1
 359 57 l 2,8,9
 400 57 400 57 446 65 c 1,10,11
 460 84 460 84 467 103 c 1,12,13
 468 111 468 111 474.5 137.5 c 128,-1,14
 481 164 481 164 482 170 c 1,15,-1
 537 165 l 1,16,-1
 522 7 l 1,17,-1
 512 -4 l 1,18,-1
 458 -2 l 2,19,20
 402 0 402 0 389 0 c 2,21,-1
 150 0 l 2,22,23
 116 0 116 0 78 -5 c 1,24,-1
 37 -9 l 1,25,-1
 30 48 l 1,26,-1
 107 57 l 1,27,28
 108 66 108 66 112.5 91.5 c 128,-1,29
 117 117 117 117 117 137 c 2,30,-1
 117 568 l 2,31,32
 117 583 117 583 112.5 608.5 c 128,-1,33
 108 634 108 634 107 648 c 1,34,-1
 30 660 l 1,35,-1
 35 710 l 1,36,-1
 63 707 l 1,37,38
 95 705 95 705 120 705 c 2,39,-1
 376 705 l 2,40,41
 401.5 705 401.5 705 499 715 c 1,42,-1
 509 704 l 1,43,-1
 516 561 l 1,44,-1
 458 556 l 1,45,46
 450 599 450 599 446 612 c 128,-1,47
 442 625 442 625 427 644 c 1,48,49
 389 649 389 649 346 649 c 2,50,-1
 215 649 l 1,51,52
 209 609 209 609 209 538 c 2,53,-1
 209 394 l 1,54,55
 243 392 243 392 251 392 c 2,56,-1
 324 392 l 2,57,58
 348 392 348 392 384 401 c 1,59,-1
 393 467 l 1,60,-1
 439 462 l 1,61,62
 438 450 438 450 438 429 c 2,63,-1
 438 382 l 2,64,65
 438 330 438 330 439 309 c 2,66,-1
 441 273 l 1,67,-1
 393 267 l 1,68,-1
 384 334 l 1,69,-1
 351 337 l 1,0,-1
464 927 m 1,70,-1
 494 854 l 1,71,-1
 426 837 l 2,72,73
 412 833 412 833 392 828.5 c 128,-1,74
 372 824 372 824 359.5 820.5 c 128,-1,75
 347 817 347 817 343 816 c 2,76,-1
 255 779 l 1,77,-1
 235 827 l 1,78,-1
 464 927 l 1,70,-1
EndSplineSet
EndChar

StartChar: Ecircumflex
Encoding: 202 202 126
Width: 562
Flags: HMW
HStem: -9 21G<37 37> 0 57<107 150 215 359 359 374.5> 340 52<246.5 324 251 304> 649 56<215 346 215 215>
VStem: 117 92<147 167 167 338 394 538>
LayerCount: 2
Fore
SplineSet
351 337 m 1,0,-1
 304 340 l 1,1,-1
 251 340 l 2,2,3
 241 340 241 340 209 338 c 1,4,-1
 209 167 l 2,5,6
 209 99 209 99 215 57 c 1,7,-1
 359 57 l 2,8,9
 400 57 400 57 446 65 c 1,10,11
 460 84 460 84 467 103 c 1,12,13
 468 111 468 111 474.5 137.5 c 128,-1,14
 481 164 481 164 482 170 c 1,15,-1
 537 165 l 1,16,-1
 522 7 l 1,17,-1
 512 -4 l 1,18,-1
 458 -2 l 2,19,20
 402 0 402 0 389 0 c 2,21,-1
 150 0 l 2,22,23
 116 0 116 0 78 -5 c 1,24,-1
 37 -9 l 1,25,-1
 30 48 l 1,26,-1
 107 57 l 1,27,28
 108 66 108 66 112.5 91.5 c 128,-1,29
 117 117 117 117 117 137 c 2,30,-1
 117 568 l 2,31,32
 117 583 117 583 112.5 608.5 c 128,-1,33
 108 634 108 634 107 648 c 1,34,-1
 30 660 l 1,35,-1
 35 710 l 1,36,-1
 63 707 l 1,37,38
 95 705 95 705 120 705 c 2,39,-1
 376 705 l 2,40,41
 401.5 705 401.5 705 499 715 c 1,42,-1
 509 704 l 1,43,-1
 516 561 l 1,44,-1
 458 556 l 1,45,46
 450 599 450 599 446 612 c 128,-1,47
 442 625 442 625 427 644 c 1,48,49
 389 649 389 649 346 649 c 2,50,-1
 215 649 l 1,51,52
 209 609 209 609 209 538 c 2,53,-1
 209 394 l 1,54,55
 243 392 243 392 251 392 c 2,56,-1
 324 392 l 2,57,58
 348 392 348 392 384 401 c 1,59,-1
 393 467 l 1,60,-1
 439 462 l 1,61,62
 438 450 438 450 438 429 c 2,63,-1
 438 382 l 2,64,65
 438 330 438 330 439 309 c 2,66,-1
 441 273 l 1,67,-1
 393 267 l 1,68,-1
 384 334 l 1,69,-1
 351 337 l 1,0,-1
322 922 m 1,70,-1
 496 815 l 1,71,-1
 473 776 l 1,72,-1
 385 817 l 1,73,-1
 322 842 l 1,74,-1
 259 817 l 1,75,-1
 171 776 l 1,76,-1
 148 815 l 1,77,-1
 322 922 l 1,70,-1
EndSplineSet
EndChar

StartChar: Edieresis
Encoding: 203 203 127
Width: 562
Flags: HMW
HStem: -9 21G<37 37> 0 57<107 150 215 359 359 374.5> 340 52<246.5 324 251 304> 649 56<215 346 215 215>
VStem: 117 92<147 167 167 338 394 538>
LayerCount: 2
Fore
SplineSet
351 337 m 1,0,-1
 304 340 l 1,1,-1
 251 340 l 2,2,3
 241 340 241 340 209 338 c 1,4,-1
 209 167 l 2,5,6
 209 99 209 99 215 57 c 1,7,-1
 359 57 l 2,8,9
 400 57 400 57 446 65 c 1,10,11
 460 84 460 84 467 103 c 1,12,13
 468 111 468 111 474.5 137.5 c 128,-1,14
 481 164 481 164 482 170 c 1,15,-1
 537 165 l 1,16,-1
 522 7 l 1,17,-1
 512 -4 l 1,18,-1
 458 -2 l 2,19,20
 402 0 402 0 389 0 c 2,21,-1
 150 0 l 2,22,23
 116 0 116 0 78 -5 c 1,24,-1
 37 -9 l 1,25,-1
 30 48 l 1,26,-1
 107 57 l 1,27,28
 108 66 108 66 112.5 91.5 c 128,-1,29
 117 117 117 117 117 137 c 2,30,-1
 117 568 l 2,31,32
 117 583 117 583 112.5 608.5 c 128,-1,33
 108 634 108 634 107 648 c 1,34,-1
 30 660 l 1,35,-1
 35 710 l 1,36,-1
 63 707 l 1,37,38
 95 705 95 705 120 705 c 2,39,-1
 376 705 l 2,40,41
 401.5 705 401.5 705 499 715 c 1,42,-1
 509 704 l 1,43,-1
 516 561 l 1,44,-1
 458 556 l 1,45,46
 450 599 450 599 446 612 c 128,-1,47
 442 625 442 625 427 644 c 1,48,49
 389 649 389 649 346 649 c 2,50,-1
 215 649 l 1,51,52
 209 609 209 609 209 538 c 2,53,-1
 209 394 l 1,54,55
 243 392 243 392 251 392 c 2,56,-1
 324 392 l 2,57,58
 348 392 348 392 384 401 c 1,59,-1
 393 467 l 1,60,-1
 439 462 l 1,61,62
 438 450 438 450 438 429 c 2,63,-1
 438 382 l 2,64,65
 438 330 438 330 439 309 c 2,66,-1
 441 273 l 1,67,-1
 393 267 l 1,68,-1
 384 334 l 1,69,-1
 351 337 l 1,0,-1
199 912 m 0,70,71
 253 912 253 912 253 852.5 c 128,-1,72
 253 793 253 793 199 793 c 128,-1,73
 145 793 145 793 145 852 c 0,74,75
 145 880 145 880 159 896 c 128,-1,76
 173 912 173 912 199 912 c 0,70,71
445 912 m 0,77,78
 499 912 499 912 499 852.5 c 128,-1,79
 499 793 499 793 445 793 c 128,-1,80
 391 793 391 793 391 852 c 0,81,82
 391 880 391 880 405 896 c 128,-1,83
 419 912 419 912 445 912 c 0,77,78
EndSplineSet
EndChar

StartChar: Igrave
Encoding: 204 204 128
Width: 343
Flags: HMW
HStem: -4 21G<45 45 297 297> 0 54 651 54 693 20G<297 297> 779 21G<247 247> 907 20G<38 38>
VStem: 127 91<154.5 167 167 538>
LayerCount: 2
Fore
SplineSet
127 137 m 2,0,-1
 127 568 l 2,1,2
 127 583 127 583 122.5 608.5 c 0,3,4
 118 634 118 634 117 648 c 1,5,-1
 40 657 l 1,6,-1
 45 710 l 1,7,-1
 77 707 l 1,8,9
 115 705 115 705 159 705 c 0,10,11
 203 705 203 705 244 709 c 2,12,-1
 297 713 l 1,13,-1
 303 654 l 1,14,-1
 225 648 l 1,15,-1
 221 612 l 2,16,17
 218 591 218 591 218 538 c 2,18,-1
 218 167 l 2,19,20
 218 114 218 114 221 93 c 2,21,-1
 225 57 l 1,22,-1
 303 51 l 1,23,-1
 297 -4 l 1,24,-1
 244 -2 l 2,25,26
 182 0 182 0 148.5 0 c 0,27,28
 115 0 115 0 77 -2 c 2,29,-1
 45 -4 l 1,30,-1
 40 48 l 1,31,-1
 117 57 l 1,32,33
 118 66 118 66 122.5 91.5 c 0,34,35
 127 117 127 117 127 137 c 2,0,-1
8 854 m 1,36,-1
 38 927 l 1,37,-1
 267 827 l 1,38,-1
 247 779 l 1,39,-1
 159 816 l 1,40,-1
 8 854 l 1,36,-1
EndSplineSet
EndChar

StartChar: Iacute
Encoding: 205 205 129
Width: 343
Flags: HMW
HStem: -4 21G<45 45 297 297> 0 54 651 54 693 20G<297 297> 779 21G<113 113> 907 20G<322 322>
VStem: 127 91<154.5 167 167 538>
LayerCount: 2
Fore
SplineSet
127 137 m 2,0,-1
 127 568 l 2,1,2
 127 583 127 583 122.5 608.5 c 0,3,4
 118 634 118 634 117 648 c 1,5,-1
 40 657 l 1,6,-1
 45 710 l 1,7,-1
 77 707 l 1,8,9
 115 705 115 705 159 705 c 0,10,11
 203 705 203 705 244 709 c 2,12,-1
 297 713 l 1,13,-1
 303 654 l 1,14,-1
 225 648 l 1,15,-1
 221 612 l 2,16,17
 218 591 218 591 218 538 c 2,18,-1
 218 167 l 2,19,20
 218 114 218 114 221 93 c 2,21,-1
 225 57 l 1,22,-1
 303 51 l 1,23,-1
 297 -4 l 1,24,-1
 244 -2 l 2,25,26
 182 0 182 0 148.5 0 c 0,27,28
 115 0 115 0 77 -2 c 2,29,-1
 45 -4 l 1,30,-1
 40 48 l 1,31,-1
 117 57 l 1,32,33
 118 66 118 66 122.5 91.5 c 0,34,35
 127 117 127 117 127 137 c 2,0,-1
322 927 m 1,36,-1
 352 854 l 1,37,-1
 284 837 l 2,38,39
 270 833 270 833 250 828.5 c 128,-1,40
 230 824 230 824 217.5 820.5 c 128,-1,41
 205 817 205 817 201 816 c 2,42,-1
 113 779 l 1,43,-1
 93 827 l 1,44,-1
 322 927 l 1,36,-1
EndSplineSet
EndChar

StartChar: Icircumflex
Encoding: 206 206 130
Width: 343
Flags: HMW
HStem: -4 21G<45 45 297 297> 0 54 651 54 693 20G<297 297> 776 21G<29 29 331 331> 902 20G<180 180>
VStem: 127 91<154.5 167 167 538>
LayerCount: 2
Fore
SplineSet
127 137 m 2,0,-1
 127 568 l 2,1,2
 127 583 127 583 122.5 608.5 c 0,3,4
 118 634 118 634 117 648 c 1,5,-1
 40 657 l 1,6,-1
 45 710 l 1,7,-1
 77 707 l 1,8,9
 115 705 115 705 159 705 c 0,10,11
 203 705 203 705 244 709 c 2,12,-1
 297 713 l 1,13,-1
 303 654 l 1,14,-1
 225 648 l 1,15,-1
 221 612 l 2,16,17
 218 591 218 591 218 538 c 2,18,-1
 218 167 l 2,19,20
 218 114 218 114 221 93 c 2,21,-1
 225 57 l 1,22,-1
 303 51 l 1,23,-1
 297 -4 l 1,24,-1
 244 -2 l 2,25,26
 182 0 182 0 148.5 0 c 0,27,28
 115 0 115 0 77 -2 c 2,29,-1
 45 -4 l 1,30,-1
 40 48 l 1,31,-1
 117 57 l 1,32,33
 118 66 118 66 122.5 91.5 c 0,34,35
 127 117 127 117 127 137 c 2,0,-1
180 922 m 1,36,-1
 354 815 l 1,37,-1
 331 776 l 1,38,-1
 243 817 l 1,39,-1
 180 842 l 1,40,-1
 117 817 l 1,41,-1
 29 776 l 1,42,-1
 6 815 l 1,43,-1
 180 922 l 1,36,-1
EndSplineSet
EndChar

StartChar: Idieresis
Encoding: 207 207 131
Width: 343
Flags: HMW
HStem: -4 21G<45 45 297 297> 0 54 651 54 693 20G<297 297> 793 119<39 75 285 321>
VStem: 3 108<834 870> 127 91<154.5 167 167 538> 249 108<834 870>
LayerCount: 2
Fore
SplineSet
127 137 m 2,0,-1
 127 568 l 2,1,2
 127 583 127 583 122.5 608.5 c 0,3,4
 118 634 118 634 117 648 c 1,5,-1
 40 657 l 1,6,-1
 45 710 l 1,7,-1
 77 707 l 1,8,9
 115 705 115 705 159 705 c 0,10,11
 203 705 203 705 244 709 c 2,12,-1
 297 713 l 1,13,-1
 303 654 l 1,14,-1
 225 648 l 1,15,-1
 221 612 l 2,16,17
 218 591 218 591 218 538 c 2,18,-1
 218 167 l 2,19,20
 218 114 218 114 221 93 c 2,21,-1
 225 57 l 1,22,-1
 303 51 l 1,23,-1
 297 -4 l 1,24,-1
 244 -2 l 2,25,26
 182 0 182 0 148.5 0 c 0,27,28
 115 0 115 0 77 -2 c 2,29,-1
 45 -4 l 1,30,-1
 40 48 l 1,31,-1
 117 57 l 1,32,33
 118 66 118 66 122.5 91.5 c 0,34,35
 127 117 127 117 127 137 c 2,0,-1
57 912 m 0,36,37
 111 912 111 912 111 852.5 c 0,38,39
 111 793 111 793 57 793 c 128,-1,40
 3 793 3 793 3 852 c 0,41,42
 3 880 3 880 17 896 c 128,-1,43
 31 912 31 912 57 912 c 0,36,37
303 912 m 0,44,45
 357 912 357 912 357 852.5 c 0,46,47
 357 793 357 793 303 793 c 128,-1,48
 249 793 249 793 249 852 c 0,49,50
 249 880 249 880 263 896 c 128,-1,51
 277 912 277 912 303 912 c 0,44,45
EndSplineSet
EndChar

StartChar: Ntilde
Encoding: 209 209 132
Width: 764
Flags: HMW
HStem: -9 21G<37 37> -7 21G<578 638 578 578> 0 54 651 54 693 20G<728 728>
VStem: 117 67<154.5 167 167 556> 572 67<286.5 297 297 528>
LayerCount: 2
Fore
SplineSet
639 297 m 1,0,-1
 638 130 l 1,1,-1
 638 -7 l 1,2,-1
 578 -7 l 1,3,-1
 184 556 l 1,4,-1
 184 167 l 2,5,6
 184 114 184 114 187 93 c 2,7,-1
 191 57 l 1,8,-1
 269 51 l 1,9,-1
 263 -4 l 1,10,-1
 227 -2 l 2,11,12
 181 0 181 0 144.5 0 c 128,-1,13
 108 0 108 0 73 -5 c 1,14,-1
 37 -9 l 1,15,-1
 30 48 l 1,16,-1
 107 57 l 1,17,18
 108 66 108 66 112.5 91.5 c 128,-1,19
 117 117 117 117 117 137 c 2,20,-1
 117 568 l 2,21,22
 117 584 117 584 112.5 611 c 128,-1,23
 108 638 108 638 107 649 c 1,24,-1
 31 657 l 1,25,-1
 36 710 l 1,26,-1
 78 707 l 1,27,28
 124 705 124 705 146 705 c 128,-1,29
 168 705 168 705 198 707 c 2,30,-1
 223 709 l 1,31,-1
 228 703 l 1,32,33
 243 667 243 667 272.5 604 c 128,-1,34
 302 541 302 541 310 530 c 2,35,-1
 572 163 l 1,36,-1
 572 558 l 2,37,38
 572 577 572 577 567.5 605 c 128,-1,39
 563 633 563 633 562 648 c 1,40,-1
 485 656 l 1,41,-1
 490 710 l 1,42,-1
 522 707 l 1,43,44
 560 705 560 705 603 705 c 128,-1,45
 646 705 646 705 682 709 c 2,46,-1
 728 713 l 1,47,-1
 734 654 l 1,48,-1
 656 648 l 1,49,-1
 647 607 l 1,50,51
 639 559 639 559 639 528 c 2,52,-1
 639 297 l 1,0,-1
533 900 m 1,53,54
 485.814814815 802 485.814814815 802 450 802 c 0,55,56
 430 802 430 802 368 822.5 c 128,-1,57
 306 843 306 843 289 843 c 128,-1,58
 272 843 272 843 249 816 c 0,59,60
 241 806 241 806 233 789 c 1,61,-1
 197 810 l 1,62,63
 206 832 206 832 223 860 c 0,64,65
 254 911 254 911 276.5 911 c 128,-1,66
 299 911 299 911 361.5 890.5 c 128,-1,67
 424 870 424 870 442 870 c 128,-1,68
 460 870 460 870 481 895 c 0,69,70
 488 903 488 903 497 921 c 1,71,-1
 533 900 l 1,53,54
EndSplineSet
EndChar

StartChar: multiply
Encoding: 215 215 133
Width: 560
Flags: HMW
HStem: 40 21G<123 123> 437 20G<435 435>
LayerCount: 2
Fore
SplineSet
279 299 m 1,0,-1
 435 457 l 1,1,-1
 488 404 l 1,2,-1
 332 248 l 1,3,-1
 489 94 l 1,4,-1
 436 41 l 1,5,-1
 280 196 l 1,6,-1
 123 40 l 1,7,-1
 73 90 l 1,8,-1
 228 248 l 1,9,-1
 71 405 l 1,10,-1
 121 455 l 1,11,-1
 279 299 l 1,0,-1
EndSplineSet
EndChar

StartChar: Oslash
Encoding: 216 216 134
Width: 756
Flags: HMW
HStem: -136 21G<153 153> -15 53<308.5 457.5 308.5 491.5> 667 53<308.5 457.5> 818 20G<613 613>
VStem: 55 107<265 439.5 265 461> 604 107<265 439.5>
LayerCount: 2
Fore
SplineSet
613 838 m 1,0,-1
 655 815 l 1,1,-1
 153 -136 l 1,2,-1
 113 -113 l 1,3,-1
 613 838 l 1,0,-1
626.5 620 m 128,-1,5
 711 520 711 520 711 352.5 c 128,-1,6
 711 185 711 185 626.5 85 c 128,-1,7
 542 -15 542 -15 383 -15 c 128,-1,8
 224 -15 224 -15 139.5 85 c 128,-1,9
 55 185 55 185 55 352.5 c 128,-1,10
 55 520 55 520 139.5 620 c 128,-1,11
 224 720 224 720 383 720 c 128,-1,4
 542 720 542 720 626.5 620 c 128,-1,5
162 352 m 128,-1,13
 162 214 162 214 219 126 c 128,-1,14
 276 38 276 38 383 38 c 128,-1,15
 490 38 490 38 547 126 c 128,-1,16
 604 214 604 214 604 352 c 128,-1,17
 604 490 604 490 547 578.5 c 128,-1,18
 490 667 490 667 383 667 c 128,-1,19
 276 667 276 667 219 578.5 c 128,-1,12
 162 490 162 490 162 352 c 128,-1,13
EndSplineSet
EndChar

StartChar: Ugrave
Encoding: 217 217 135
Width: 749
Flags: HMW
HStem: -15 64<327 444 327 460.5> 651 54 693 20G<291 291 713 713> 779 21G<453 453> 907 20G<244 244>
VStem: 117 95<280 533> 562 72<275 533>
LayerCount: 2
Fore
SplineSet
562 275 m 2,0,-1
 562 563 l 2,1,2
 562 575 562 575 557 604.5 c 0,3,4
 552 634 552 634 551 648 c 1,5,-1
 475 656 l 1,6,-1
 480 710 l 1,7,-1
 504 707 l 1,8,9
 534 705 534 705 582 705 c 0,10,11
 630 705 630 705 667 709 c 2,12,-1
 713 713 l 1,13,-1
 719 654 l 1,14,-1
 641 648 l 1,15,-1
 637 609 l 2,16,17
 634 586 634 586 634 533 c 2,18,-1
 634 275 l 2,19,20
 634 143 634 143 567 64 c 128,-1,21
 500 -15 500 -15 375.5 -15 c 0,22,23
 251 -15 251 -15 184 66 c 128,-1,24
 117 147 117 147 117 280 c 2,25,-1
 117 563 l 2,26,27
 117 581 117 581 112.5 607.5 c 0,28,29
 108 634 108 634 107 648 c 1,30,-1
 30 660 l 1,31,-1
 35 710 l 1,32,-1
 67 707 l 1,33,34
 105 705 105 705 150.5 705 c 0,35,36
 196 705 196 705 237 709 c 2,37,-1
 291 713 l 1,38,-1
 297 654 l 1,39,-1
 219 648 l 1,40,-1
 215 609 l 2,41,42
 212 586 212 586 212 533 c 2,43,-1
 212 275 l 2,44,45
 212 175 212 175 257 112 c 128,-1,46
 302 49 302 49 386 49 c 0,47,48
 470 49 470 49 516 112.5 c 128,-1,49
 562 176 562 176 562 275 c 2,0,-1
214 854 m 1,50,-1
 244 927 l 1,51,-1
 473 827 l 1,52,-1
 453 779 l 1,53,-1
 365 816 l 1,54,-1
 214 854 l 1,50,-1
EndSplineSet
EndChar

StartChar: Uacute
Encoding: 218 218 136
Width: 749
Flags: HMW
HStem: -15 64<327 444 327 460.5> 651 54 693 20G<291 291 713 713> 779 21G<319 319> 907 20G<528 528>
VStem: 117 95<280 533> 562 72<275 533>
LayerCount: 2
Fore
SplineSet
562 275 m 2,0,-1
 562 563 l 2,1,2
 562 575 562 575 557 604.5 c 0,3,4
 552 634 552 634 551 648 c 1,5,-1
 475 656 l 1,6,-1
 480 710 l 1,7,-1
 504 707 l 1,8,9
 534 705 534 705 582 705 c 0,10,11
 630 705 630 705 667 709 c 2,12,-1
 713 713 l 1,13,-1
 719 654 l 1,14,-1
 641 648 l 1,15,-1
 637 609 l 2,16,17
 634 586 634 586 634 533 c 2,18,-1
 634 275 l 2,19,20
 634 143 634 143 567 64 c 128,-1,21
 500 -15 500 -15 375.5 -15 c 0,22,23
 251 -15 251 -15 184 66 c 128,-1,24
 117 147 117 147 117 280 c 2,25,-1
 117 563 l 2,26,27
 117 581 117 581 112.5 607.5 c 0,28,29
 108 634 108 634 107 648 c 1,30,-1
 30 660 l 1,31,-1
 35 710 l 1,32,-1
 67 707 l 1,33,34
 105 705 105 705 150.5 705 c 0,35,36
 196 705 196 705 237 709 c 2,37,-1
 291 713 l 1,38,-1
 297 654 l 1,39,-1
 219 648 l 1,40,-1
 215 609 l 2,41,42
 212 586 212 586 212 533 c 2,43,-1
 212 275 l 2,44,45
 212 175 212 175 257 112 c 128,-1,46
 302 49 302 49 386 49 c 0,47,48
 470 49 470 49 516 112.5 c 128,-1,49
 562 176 562 176 562 275 c 2,0,-1
528 927 m 1,50,-1
 558 854 l 1,51,-1
 490 837 l 2,52,53
 476 833 476 833 456 828.5 c 128,-1,54
 436 824 436 824 423.5 820.5 c 128,-1,55
 411 817 411 817 407 816 c 2,56,-1
 319 779 l 1,57,-1
 299 827 l 1,58,-1
 528 927 l 1,50,-1
EndSplineSet
EndChar

StartChar: Ucircumflex
Encoding: 219 219 137
Width: 749
Flags: HMW
HStem: -15 64<327 444 327 460.5> 651 54 693 20G<291 291 713 713> 776 21G<235 235 537 537> 902 20G<386 386>
VStem: 117 95<280 533> 562 72<275 533>
LayerCount: 2
Fore
SplineSet
562 275 m 2,0,-1
 562 563 l 2,1,2
 562 575 562 575 557 604.5 c 0,3,4
 552 634 552 634 551 648 c 1,5,-1
 475 656 l 1,6,-1
 480 710 l 1,7,-1
 504 707 l 1,8,9
 534 705 534 705 582 705 c 0,10,11
 630 705 630 705 667 709 c 2,12,-1
 713 713 l 1,13,-1
 719 654 l 1,14,-1
 641 648 l 1,15,-1
 637 609 l 2,16,17
 634 586 634 586 634 533 c 2,18,-1
 634 275 l 2,19,20
 634 143 634 143 567 64 c 128,-1,21
 500 -15 500 -15 375.5 -15 c 0,22,23
 251 -15 251 -15 184 66 c 128,-1,24
 117 147 117 147 117 280 c 2,25,-1
 117 563 l 2,26,27
 117 581 117 581 112.5 607.5 c 0,28,29
 108 634 108 634 107 648 c 1,30,-1
 30 660 l 1,31,-1
 35 710 l 1,32,-1
 67 707 l 1,33,34
 105 705 105 705 150.5 705 c 0,35,36
 196 705 196 705 237 709 c 2,37,-1
 291 713 l 1,38,-1
 297 654 l 1,39,-1
 219 648 l 1,40,-1
 215 609 l 2,41,42
 212 586 212 586 212 533 c 2,43,-1
 212 275 l 2,44,45
 212 175 212 175 257 112 c 128,-1,46
 302 49 302 49 386 49 c 0,47,48
 470 49 470 49 516 112.5 c 128,-1,49
 562 176 562 176 562 275 c 2,0,-1
386 922 m 1,50,-1
 560 815 l 1,51,-1
 537 776 l 1,52,-1
 449 817 l 1,53,-1
 386 842 l 1,54,-1
 323 817 l 1,55,-1
 235 776 l 1,56,-1
 212 815 l 1,57,-1
 386 922 l 1,50,-1
EndSplineSet
EndChar

StartChar: Udieresis
Encoding: 220 220 138
Width: 749
Flags: HMW
HStem: -15 64<327 444 327 460.5> 651 54 693 20G<291 291 713 713> 793 119<245 281 491 527>
VStem: 117 95<280 533> 209 108<834 870> 455 108<834 870> 562 72<275 533>
LayerCount: 2
Fore
SplineSet
562 275 m 2,0,-1
 562 563 l 2,1,2
 562 575 562 575 557 604.5 c 0,3,4
 552 634 552 634 551 648 c 1,5,-1
 475 656 l 1,6,-1
 480 710 l 1,7,-1
 504 707 l 1,8,9
 534 705 534 705 582 705 c 0,10,11
 630 705 630 705 667 709 c 2,12,-1
 713 713 l 1,13,-1
 719 654 l 1,14,-1
 641 648 l 1,15,-1
 637 609 l 2,16,17
 634 586 634 586 634 533 c 2,18,-1
 634 275 l 2,19,20
 634 143 634 143 567 64 c 128,-1,21
 500 -15 500 -15 375.5 -15 c 0,22,23
 251 -15 251 -15 184 66 c 128,-1,24
 117 147 117 147 117 280 c 2,25,-1
 117 563 l 2,26,27
 117 581 117 581 112.5 607.5 c 0,28,29
 108 634 108 634 107 648 c 1,30,-1
 30 660 l 1,31,-1
 35 710 l 1,32,-1
 67 707 l 1,33,34
 105 705 105 705 150.5 705 c 0,35,36
 196 705 196 705 237 709 c 2,37,-1
 291 713 l 1,38,-1
 297 654 l 1,39,-1
 219 648 l 1,40,-1
 215 609 l 2,41,42
 212 586 212 586 212 533 c 2,43,-1
 212 275 l 2,44,45
 212 175 212 175 257 112 c 128,-1,46
 302 49 302 49 386 49 c 0,47,48
 470 49 470 49 516 112.5 c 128,-1,49
 562 176 562 176 562 275 c 2,0,-1
263 912 m 0,50,51
 317 912 317 912 317 852.5 c 0,52,53
 317 793 317 793 263 793 c 128,-1,54
 209 793 209 793 209 852 c 0,55,56
 209 880 209 880 223 896 c 128,-1,57
 237 912 237 912 263 912 c 0,50,51
509 912 m 0,58,59
 563 912 563 912 563 852.5 c 0,60,61
 563 793 563 793 509 793 c 128,-1,62
 455 793 455 793 455 852 c 0,63,64
 455 880 455 880 469 896 c 128,-1,65
 483 912 483 912 509 912 c 0,58,59
EndSplineSet
EndChar

StartChar: Yacute
Encoding: 221 221 139
Width: 645
Flags: HMW
HStem: -4 21G<189 189 443 443> 0 54 685 20G<104.5 132.5 493.5 521.5> 692 20G<250 250 639 639> 779 21G<258 258> 907 20G<467 467>
LayerCount: 2
Fore
SplineSet
184 48 m 1,0,-1
 261 57 l 1,1,2
 262 66 262 66 266.5 91.5 c 0,3,4
 271 117 271 117 271 137 c 2,5,-1
 271 270 l 1,6,-1
 119 559 l 1,7,8
 94 592 94 592 45 647 c 1,9,-1
 5 651 l 1,10,-1
 9 710 l 1,11,-1
 49 707 l 1,12,13
 95 705 95 705 134.25 705 c 0,14,15
 173.5 705 173.5 705 211 708 c 2,16,-1
 250 712 l 1,17,-1
 252 649 l 1,18,-1
 189 643 l 1,19,20
 225 543 225 543 234 526 c 2,21,-1
 326 346 l 1,22,-1
 444 578 l 2,23,24
 449 588 449 588 468 646 c 1,25,-1
 404 654 l 1,26,-1
 409 711 l 1,27,-1
 444 708 l 1,28,29
 463 705 463 705 512.75 705 c 0,30,31
 562.5 705 562.5 705 600 708 c 2,32,-1
 639 712 l 1,33,-1
 640 651 l 1,34,-1
 572 642 l 1,35,-1
 496 546 l 1,36,-1
 364 292 l 1,37,-1
 364 167 l 2,38,39
 364 114 364 114 367 93 c 2,40,-1
 371 57 l 1,41,-1
 449 51 l 1,42,-1
 443 -4 l 1,43,-1
 390 -2 l 2,44,45
 328 0 328 0 293.5 0 c 0,46,47
 259 0 259 0 221 -2 c 2,48,-1
 189 -4 l 1,49,-1
 184 48 l 1,0,-1
467 927 m 1,50,-1
 497 854 l 1,51,-1
 429 837 l 2,52,53
 415 833 415 833 395 828.5 c 128,-1,54
 375 824 375 824 362.5 820.5 c 128,-1,55
 350 817 350 817 346 816 c 2,56,-1
 258 779 l 1,57,-1
 238 827 l 1,58,-1
 467 927 l 1,50,-1
EndSplineSet
EndChar

StartChar: ae
Encoding: 230 230 140
Width: 753
Flags: HMW
HStem: -10 65<507.5 571.5 504.5 578> 449 53 483 20G<219.5 286>
VStem: 40 88<104.5 142 104.5 158.5> 334 80<182 239 239 311 239 348.5> 638 90<310 324 310 360.5>
LayerCount: 2
Fore
SplineSet
727 50 m 1,0,1
 655 -10 655 -10 550 -10 c 0,2,3
 486 -10 486 -10 436.5 18 c 128,-1,4
 387 46 387 46 361 96 c 1,5,6
 293 -10 293 -10 175 -10 c 0,7,8
 113 -10 113 -10 76.5 25.5 c 128,-1,9
 40 61 40 61 40 117.5 c 128,-1,10
 40 174 40 174 69 203 c 128,-1,11
 98 232 98 232 142 243.5 c 128,-1,12
 186 255 186 255 334 278 c 1,13,-1
 334 311 l 2,14,15
 334 449 334 449 240 449 c 0,16,17
 185 449 185 449 147 430 c 1,18,19
 138 385 138 385 138 383 c 2,20,-1
 138 347 l 1,21,-1
 80 344 l 1,22,-1
 69 479 l 1,23,24
 159 503 159 503 256 503 c 128,-1,25
 353 503 353 503 388 438 c 1,26,27
 447 502 447 502 538 502 c 0,28,29
 716 502 716 502 728 310 c 1,30,-1
 713 272 l 1,31,-1
 414 239 l 1,32,33
 416 163 416 163 451 109 c 128,-1,34
 486 55 486 55 550 55 c 0,35,36
 630.666666667 55 630.666666667 55 699 96 c 1,37,-1
 727 50 l 1,0,1
415 289 m 1,38,-1
 638 322 l 1,39,-1
 638 324 l 2,40,41
 638 382 638 382 612.5 416 c 128,-1,42
 587 450 587 450 534 450 c 0,43,44
 431 450 431 450 415 289 c 1,38,-1
201 54 m 0,45,46
 266 54 266 54 300 104 c 128,-1,47
 334 154 334 154 334 227 c 1,48,49
 329 226 329 226 276.5 217 c 128,-1,50
 224 208 224 208 191 200 c 0,51,52
 128 184 128 184 128 128 c 0,53,54
 128 93 128 93 147 73.5 c 128,-1,55
 166 54 166 54 201 54 c 0,45,46
EndSplineSet
EndChar

StartChar: divide
Encoding: 247 247 141
Width: 560
Flags: HMW
HStem: 6 129<267.5 305.5 267.5 306.5> 213 68 264 20G<507 507> 359 129<267.5 305.5 267.5 306.5>
VStem: 228 118<50.5 89.5 403.5 442.5>
LayerCount: 2
Fore
SplineSet
52 279 m 1,0,-1
 507 284 l 1,1,-1
 507 213 l 1,2,-1
 52 213 l 1,3,-1
 52 279 l 1,0,-1
243 470.5 m 128,-1,5
 258 488 258 488 286.5 488 c 128,-1,6
 315 488 315 488 330.5 471 c 128,-1,7
 346 454 346 454 346 423.5 c 128,-1,8
 346 393 346 393 331 376 c 128,-1,9
 316 359 316 359 287 359 c 128,-1,10
 258 359 258 359 243 376 c 128,-1,11
 228 393 228 393 228 423 c 128,-1,4
 228 453 228 453 243 470.5 c 128,-1,5
243 117.5 m 128,-1,13
 258 135 258 135 286.5 135 c 128,-1,14
 315 135 315 135 330.5 118 c 128,-1,15
 346 101 346 101 346 70.5 c 128,-1,16
 346 40 346 40 331 23 c 128,-1,17
 316 6 316 6 287 6 c 128,-1,18
 258 6 258 6 243 23 c 128,-1,19
 228 40 228 40 228 70 c 128,-1,12
 228 100 228 100 243 117.5 c 128,-1,13
EndSplineSet
EndChar

StartChar: yacute
Encoding: 253 253 142
Width: 539
Flags: HMW
HStem: -235 21G<226 226> -187 20G<87 111 111 117.5> 474 20G<116 131.5 448 463.5> 483 20G<10 10 341 341> 564 21G<234 234> 745 20G<393 393>
LayerCount: 2
Fore
SplineSet
341 503 m 1,0,1
 410.75 494 410.75 494 447.875 494 c 128,-1,2
 485 494 485 494 501 497 c 1,3,-1
 530 500 l 1,4,-1
 534 446 l 1,5,-1
 496 441 l 1,6,7
 438 324 438 324 436 319 c 2,8,-1
 310 0 l 1,9,-1
 226 -235 l 1,10,-1
 63 -224 l 1,11,-1
 71 -166 l 1,12,13
 76 -167 76 -167 87 -167 c 2,14,-1
 111 -167 l 2,15,16
 127 -167 127 -167 177 -155 c 1,17,18
 209 -107 209 -107 216 -89 c 2,19,-1
 244 -9 l 1,20,-1
 96 344 l 1,21,22
 92 357 92 357 45 441 c 1,23,-1
 5 449 l 1,24,-1
 10 503 l 1,25,26
 79.75 494 79.75 494 118.375 494 c 128,-1,27
 157 494 157 494 176 497 c 2,28,-1
 211 501 l 1,29,-1
 216 446 l 1,30,-1
 154 438 l 1,31,32
 170 382 170 382 181 349 c 1,33,-1
 283 96 l 1,34,-1
 375 351 l 2,35,36
 390 395 390 395 401 439 c 1,37,-1
 336 449 l 1,38,-1
 341 503 l 1,0,1
393 765 m 1,39,-1
 442 703 l 1,40,41
 392 675 392 675 381 668 c 2,42,-1
 308 625 l 1,43,-1
 234 564 l 1,44,-1
 201 605 l 1,45,-1
 393 765 l 1,39,-1
EndSplineSet
EndChar

StartChar: ydieresis
Encoding: 255 255 143
Width: 539
Flags: HMW
HStem: -235 21G<226 226> -187 20G<87 111 111 117.5> 474 20G<116 131.5 448 463.5> 483 20G<10 10 341 341> 594 119<145 181 381 417>
VStem: 109 108<635 671> 345 108<635 671>
LayerCount: 2
Fore
SplineSet
341 503 m 1,0,1
 410.75 494 410.75 494 447.875 494 c 128,-1,2
 485 494 485 494 501 497 c 1,3,-1
 530 500 l 1,4,-1
 534 446 l 1,5,-1
 496 441 l 1,6,7
 438 324 438 324 436 319 c 2,8,-1
 310 0 l 1,9,-1
 226 -235 l 1,10,-1
 63 -224 l 1,11,-1
 71 -166 l 1,12,13
 76 -167 76 -167 87 -167 c 2,14,-1
 111 -167 l 2,15,16
 127 -167 127 -167 177 -155 c 1,17,18
 209 -107 209 -107 216 -89 c 2,19,-1
 244 -9 l 1,20,-1
 96 344 l 1,21,22
 92 357 92 357 45 441 c 1,23,-1
 5 449 l 1,24,-1
 10 503 l 1,25,26
 79.75 494 79.75 494 118.375 494 c 128,-1,27
 157 494 157 494 176 497 c 2,28,-1
 211 501 l 1,29,-1
 216 446 l 1,30,-1
 154 438 l 1,31,32
 170 382 170 382 181 349 c 1,33,-1
 283 96 l 1,34,-1
 375 351 l 2,35,36
 390 395 390 395 401 439 c 1,37,-1
 336 449 l 1,38,-1
 341 503 l 1,0,1
163 713 m 0,39,40
 217 713 217 713 217 653.5 c 128,-1,41
 217 594 217 594 163 594 c 128,-1,42
 109 594 109 594 109 653 c 0,43,44
 109 681 109 681 123 697 c 128,-1,45
 137 713 137 713 163 713 c 0,39,40
399 713 m 0,46,47
 453 713 453 713 453 653.5 c 128,-1,48
 453 594 453 594 399 594 c 128,-1,49
 345 594 345 594 345 653 c 0,50,51
 345 681 345 681 359 697 c 128,-1,52
 373 713 373 713 399 713 c 0,46,47
EndSplineSet
EndChar

StartChar: Abreve
Encoding: 258 258 144
Width: 686
Flags: HMW
HStem: -4 21G<8 8 230 230 447 447 678 678> 0 21G<56.5 77.5 505.5 521> 231 51 696 20G<366 366>
LayerCount: 2
Fore
SplineSet
312 705 m 1,0,-1
 366 716 l 1,1,-1
 476 430 l 2,2,3
 500 369 500 369 528.5 293.5 c 0,4,5
 587.810810811 136.378378378 587.810810811 136.378378378 592 128 c 1,6,7
 600 104 600 104 630 54 c 1,8,-1
 681 49 l 1,9,-1
 678 -4 l 1,10,-1
 609 -2 l 2,11,12
 535 0 535 0 516 0 c 128,-1,13
 497 0 497 0 471 -2 c 2,14,-1
 447 -4 l 1,15,-1
 442 49 l 1,16,-1
 513 56 l 1,17,18
 506 105 506 105 498 129 c 1,19,-1
 458 233 l 1,20,-1
 209 230 l 1,21,-1
 168 115 l 1,22,23
 161 84 161 84 157 57 c 1,24,-1
 158 57 l 1,25,-1
 236 49 l 1,26,-1
 230 -4 l 1,27,-1
 168 -2 l 2,28,29
 98 0 98 0 73.5 0 c 128,-1,30
 49 0 49 0 27 -2 c 2,31,-1
 8 -4 l 1,32,-1
 5 48 l 1,33,-1
 62 56 l 1,34,35
 117 157 117 157 118 161 c 2,36,-1
 312 705 l 1,0,-1
228 284 m 1,37,38
 282 282 282 282 305 282 c 128,-1,39
 328 282 328 282 372.5 283.5 c 128,-1,40
 417 285 417 285 438 285 c 1,41,-1
 329 569 l 1,42,-1
 228 284 l 1,37,38
333 832 m 128,-1,44
 371 832 371 832 393.5 855 c 128,-1,45
 416 878 416 878 416 916 c 1,46,-1
 472 916 l 1,47,48
 472 848 472 848 436.5 812 c 128,-1,49
 401 776 401 776 333 776 c 128,-1,50
 265 776 265 776 229.5 812 c 128,-1,51
 194 848 194 848 194 916 c 1,52,-1
 250 916 l 1,53,54
 250 878 250 878 272.5 855 c 128,-1,43
 295 832 295 832 333 832 c 128,-1,44
EndSplineSet
EndChar

StartChar: Cacute
Encoding: 262 262 145
Width: 643
Flags: HMW
HStem: -15 58<303.5 401.5 303.5 422.5> 540 180 779 21G<326 326> 907 20G<535 535>
VStem: 45 107<266.5 439.5 266.5 461>
LayerCount: 2
Fore
SplineSet
602 170 m 1,0,-1
 608 19 l 1,1,2
 464 -15 464 -15 379 -15 c 0,3,4
 217 -15 217 -15 131 84 c 128,-1,5
 45 183 45 183 45 351.5 c 128,-1,6
 45 520 45 520 131 620 c 128,-1,7
 217 720 217 720 379 720 c 0,8,9
 460 720 460 720 540 700 c 0,10,11
 590 687.5 590 687.5 599 686 c 1,12,-1
 588 538 l 1,13,-1
 527 542 l 1,14,-1
 527 589 l 2,15,16
 527 605 527 605 515 639 c 1,17,18
 439 662 439 662 380 662 c 0,19,20
 270 662 270 662 211 575.5 c 128,-1,21
 152 489 152 489 152 353 c 128,-1,22
 152 217 152 217 211 130 c 128,-1,23
 270 43 270 43 380 43 c 0,24,25
 448 43 448 43 524 65 c 1,26,27
 539 108 539 108 540 121.5 c 128,-1,28
 541 135 541 135 541 148 c 2,29,-1
 541 168 l 1,30,-1
 602 170 l 1,0,-1
535 927 m 1,31,-1
 565 854 l 1,32,-1
 497 837 l 2,33,34
 483 833 483 833 463 828.5 c 128,-1,35
 443 824 443 824 430.5 820.5 c 128,-1,36
 418 817 418 817 414 816 c 2,37,-1
 326 779 l 1,38,-1
 306 827 l 1,39,-1
 535 927 l 1,31,-1
EndSplineSet
EndChar

StartChar: cacute
Encoding: 263 263 146
Width: 483
Flags: HMW
HStem: -10 65<220 289.5 220 295> 446 57<220 284.5>
VStem: 40 94<196 296 196 322.5>
LayerCount: 2
Fore
SplineSet
167 109 m 128,-1,1
 200 55 200 55 270.636363636 55 c 128,-1,2
 341.272727273 55 341.272727273 55 410 91 c 1,3,-1
 438 44 l 1,4,5
 419 28 419 28 392 17 c 1,6,7
 340 -10 340 -10 269 -10 c 0,8,9
 158 -10 158 -10 99 59 c 128,-1,10
 40 128 40 128 40 246 c 128,-1,11
 40 364 40 364 99 433.5 c 128,-1,12
 158 503 158 503 270 503 c 0,13,14
 305.6 503 305.6 503 330.8 497 c 0,15,16
 363 489.333333333 363 489.333333333 427 468 c 1,17,-1
 417 343 l 1,18,-1
 359 346 l 1,19,-1
 359 382 l 2,20,21
 359 390 359 390 352 416 c 1,22,23
 316 446 316 446 270 446 c 0,24,25
 200 446 200 446 167 388 c 128,-1,26
 134 330 134 330 134 246.5 c 128,-1,0
 134 163 134 163 167 109 c 128,-1,1
382 765 m 1,27,-1
 431 703 l 1,28,29
 381 675 381 675 370 668 c 2,30,-1
 297 625 l 1,31,-1
 223 564 l 1,32,-1
 190 605 l 1,33,-1
 382 765 l 1,27,-1
EndSplineSet
EndChar

StartChar: Ccaron
Encoding: 268 268 147
Width: 643
Flags: HMW
HStem: -15 58<303.5 401.5 303.5 422.5> -15 184 540 180 662 58<303.5 400.5> 776 21G<393 393> 902 20G<242 242 544 544>
VStem: 45 107<266.5 439.5 266.5 461>
LayerCount: 2
Fore
SplineSet
602 170 m 1,0,-1
 608 19 l 1,1,2
 464 -15 464 -15 379 -15 c 0,3,4
 217 -15 217 -15 131 84 c 128,-1,5
 45 183 45 183 45 351.5 c 128,-1,6
 45 520 45 520 131 620 c 128,-1,7
 217 720 217 720 379 720 c 0,8,9
 460 720 460 720 540 700 c 0,10,11
 590 687.5 590 687.5 599 686 c 1,12,-1
 588 538 l 1,13,-1
 527 542 l 1,14,-1
 527 589 l 2,15,16
 527 605 527 605 515 639 c 1,17,18
 439 662 439 662 380 662 c 0,19,20
 270 662 270 662 211 575.5 c 128,-1,21
 152 489 152 489 152 353 c 128,-1,22
 152 217 152 217 211 130 c 128,-1,23
 270 43 270 43 380 43 c 0,24,25
 448 43 448 43 524 65 c 1,26,27
 539 108 539 108 540 121.5 c 128,-1,28
 541 135 541 135 541 148 c 2,29,-1
 541 168 l 1,30,-1
 602 170 l 1,0,-1
567 883 m 1,31,-1
 393 776 l 1,32,-1
 219 883 l 1,33,-1
 242 922 l 1,34,-1
 330 881 l 1,35,-1
 393 856 l 1,36,-1
 456 881 l 1,37,-1
 544 922 l 1,38,-1
 567 883 l 1,31,-1
EndSplineSet
EndChar

StartChar: ccaron
Encoding: 269 269 148
Width: 483
Flags: HMW
HStem: -10 65<220 289.5 220 295> 446 57<220 284.5>
VStem: 40 94<196 296 196 322.5>
LayerCount: 2
Fore
SplineSet
167 109 m 128,-1,1
 200 55 200 55 270.636363636 55 c 128,-1,2
 341.272727273 55 341.272727273 55 410 91 c 1,3,-1
 438 44 l 1,4,5
 419 28 419 28 392 17 c 1,6,7
 340 -10 340 -10 269 -10 c 0,8,9
 158 -10 158 -10 99 59 c 128,-1,10
 40 128 40 128 40 246 c 128,-1,11
 40 364 40 364 99 433.5 c 128,-1,12
 158 503 158 503 270 503 c 0,13,14
 305.6 503 305.6 503 330.8 497 c 0,15,16
 363 489.333333333 363 489.333333333 427 468 c 1,17,-1
 417 343 l 1,18,-1
 359 346 l 1,19,-1
 359 382 l 2,20,21
 359 390 359 390 352 416 c 1,22,23
 316 446 316 446 270 446 c 0,24,25
 200 446 200 446 167 388 c 128,-1,26
 134 330 134 330 134 246.5 c 128,-1,0
 134 163 134 163 167 109 c 128,-1,1
436 733 m 1,27,-1
 270 564 l 1,28,-1
 104 733 l 1,29,-1
 137 765 l 1,30,-1
 211 704 l 1,31,-1
 270 661 l 1,32,-1
 329 704 l 1,33,-1
 403 765 l 1,34,-1
 436 733 l 1,27,-1
EndSplineSet
EndChar

StartChar: Dcaron
Encoding: 270 270 149
Width: 726
Flags: HMW
HStem: -11 60<314.5 420.5 314.5 444> -1 21G<134 169.5> 655 60<313 420.5> 685 20G<145 149 149 149> 776 21G<344 344> 902 20G<193 193 495 495>
VStem: 132 92<146 167 167 538> 582 99<268.5 435.5>
LayerCount: 2
Fore
SplineSet
336 -11 m 1,0,-1
 134 -1 l 1,1,2
 95 -3 95 -3 79 -6 c 1,3,-1
 52 -9 l 1,4,-1
 45 48 l 1,5,-1
 122 57 l 1,6,7
 123 66 123 66 127.5 91.5 c 128,-1,8
 132 117 132 117 132 137 c 2,9,-1
 132 568 l 2,10,11
 132 583 132 583 127.5 608.5 c 128,-1,12
 123 634 123 634 122 648 c 1,13,-1
 45 660 l 1,14,-1
 50 710 l 1,15,-1
 82 707 l 1,16,17
 120 705 120 705 145 705 c 2,18,-1
 149 705 l 2,19,20
 178 705 178 705 239 710 c 128,-1,21
 300 715 300 715 336 715 c 0,22,23
 501 715 501 715 591 618 c 128,-1,24
 681 521 681 521 681 354.5 c 128,-1,25
 681 188 681 188 588.5 88.5 c 128,-1,26
 496 -11 496 -11 336 -11 c 1,0,-1
224 167 m 1,27,-1
 230 53 l 1,28,29
 266 49 266 49 337 49 c 0,30,31
 457 49 457 49 519.5 134 c 128,-1,32
 582 219 582 219 582 352 c 128,-1,33
 582 485 582 485 519.5 570 c 128,-1,34
 457 655 457 655 337 655 c 0,35,36
 272 655 272 655 230 650 c 1,37,38
 224 612 224 612 224 538 c 2,39,-1
 224 167 l 1,27,-1
518 883 m 1,40,-1
 344 776 l 1,41,-1
 170 883 l 1,42,-1
 193 922 l 1,43,-1
 281 881 l 1,44,-1
 344 856 l 1,45,-1
 407 881 l 1,46,-1
 495 922 l 1,47,-1
 518 883 l 1,40,-1
EndSplineSet
EndChar

StartChar: Ebreve
Encoding: 276 276 150
Width: 562
Flags: HMW
HStem: -9 21G<37 37> 0 57<107 150 215 359 359 374.5> 340 52<246.5 324 251 304> 649 56<215 346 215 215>
VStem: 117 92<147 167 167 338 394 538>
LayerCount: 2
Fore
SplineSet
351 337 m 1,0,-1
 304 340 l 1,1,-1
 251 340 l 2,2,3
 241 340 241 340 209 338 c 1,4,-1
 209 167 l 2,5,6
 209 99 209 99 215 57 c 1,7,-1
 359 57 l 2,8,9
 400 57 400 57 446 65 c 1,10,11
 460 84 460 84 467 103 c 1,12,13
 468 111 468 111 474.5 137.5 c 128,-1,14
 481 164 481 164 482 170 c 1,15,-1
 537 165 l 1,16,-1
 522 7 l 1,17,-1
 512 -4 l 1,18,-1
 458 -2 l 2,19,20
 402 0 402 0 389 0 c 2,21,-1
 150 0 l 2,22,23
 116 0 116 0 78 -5 c 1,24,-1
 37 -9 l 1,25,-1
 30 48 l 1,26,-1
 107 57 l 1,27,28
 108 66 108 66 112.5 91.5 c 128,-1,29
 117 117 117 117 117 137 c 2,30,-1
 117 568 l 2,31,32
 117 583 117 583 112.5 608.5 c 128,-1,33
 108 634 108 634 107 648 c 1,34,-1
 30 660 l 1,35,-1
 35 710 l 1,36,-1
 63 707 l 1,37,38
 95 705 95 705 120 705 c 2,39,-1
 376 705 l 2,40,41
 401.5 705 401.5 705 499 715 c 1,42,-1
 509 704 l 1,43,-1
 516 561 l 1,44,-1
 458 556 l 1,45,46
 450 599 450 599 446 612 c 128,-1,47
 442 625 442 625 427 644 c 1,48,49
 389 649 389 649 346 649 c 2,50,-1
 215 649 l 1,51,52
 209 609 209 609 209 538 c 2,53,-1
 209 394 l 1,54,55
 243 392 243 392 251 392 c 2,56,-1
 324 392 l 2,57,58
 348 392 348 392 384 401 c 1,59,-1
 393 467 l 1,60,-1
 439 462 l 1,61,62
 438 450 438 450 438 429 c 2,63,-1
 438 382 l 2,64,65
 438 330 438 330 439 309 c 2,66,-1
 441 273 l 1,67,-1
 393 267 l 1,68,-1
 384 334 l 1,69,-1
 351 337 l 1,0,-1
322 832 m 128,-1,71
 360 832 360 832 382.5 855 c 128,-1,72
 405 878 405 878 405 916 c 1,73,-1
 461 916 l 1,74,75
 461 848 461 848 425.5 812 c 128,-1,76
 390 776 390 776 322 776 c 128,-1,77
 254 776 254 776 218.5 812 c 128,-1,78
 183 848 183 848 183 916 c 1,79,-1
 239 916 l 1,80,81
 239 878 239 878 261.5 855 c 128,-1,70
 284 832 284 832 322 832 c 128,-1,71
EndSplineSet
EndChar

StartChar: Ecaron
Encoding: 282 282 151
Width: 562
Flags: HMW
HStem: -9 21G<37 37> 0 57<107 150 215 359 359 374.5> 340 52<246.5 324 251 304> 649 56<215 346 215 215>
VStem: 117 92<147 167 167 338 394 538>
LayerCount: 2
Fore
SplineSet
351 337 m 1,0,-1
 304 340 l 1,1,-1
 251 340 l 2,2,3
 241 340 241 340 209 338 c 1,4,-1
 209 167 l 2,5,6
 209 99 209 99 215 57 c 1,7,-1
 359 57 l 2,8,9
 400 57 400 57 446 65 c 1,10,11
 460 84 460 84 467 103 c 1,12,13
 468 111 468 111 474.5 137.5 c 128,-1,14
 481 164 481 164 482 170 c 1,15,-1
 537 165 l 1,16,-1
 522 7 l 1,17,-1
 512 -4 l 1,18,-1
 458 -2 l 2,19,20
 402 0 402 0 389 0 c 2,21,-1
 150 0 l 2,22,23
 116 0 116 0 78 -5 c 1,24,-1
 37 -9 l 1,25,-1
 30 48 l 1,26,-1
 107 57 l 1,27,28
 108 66 108 66 112.5 91.5 c 128,-1,29
 117 117 117 117 117 137 c 2,30,-1
 117 568 l 2,31,32
 117 583 117 583 112.5 608.5 c 128,-1,33
 108 634 108 634 107 648 c 1,34,-1
 30 660 l 1,35,-1
 35 710 l 1,36,-1
 63 707 l 1,37,38
 95 705 95 705 120 705 c 2,39,-1
 376 705 l 2,40,41
 401.5 705 401.5 705 499 715 c 1,42,-1
 509 704 l 1,43,-1
 516 561 l 1,44,-1
 458 556 l 1,45,46
 450 599 450 599 446 612 c 128,-1,47
 442 625 442 625 427 644 c 1,48,49
 389 649 389 649 346 649 c 2,50,-1
 215 649 l 1,51,52
 209 609 209 609 209 538 c 2,53,-1
 209 394 l 1,54,55
 243 392 243 392 251 392 c 2,56,-1
 324 392 l 2,57,58
 348 392 348 392 384 401 c 1,59,-1
 393 467 l 1,60,-1
 439 462 l 1,61,62
 438 450 438 450 438 429 c 2,63,-1
 438 382 l 2,64,65
 438 330 438 330 439 309 c 2,66,-1
 441 273 l 1,67,-1
 393 267 l 1,68,-1
 384 334 l 1,69,-1
 351 337 l 1,0,-1
496 883 m 1,70,-1
 322 776 l 1,71,-1
 148 883 l 1,72,-1
 171 922 l 1,73,-1
 259 881 l 1,74,-1
 322 856 l 1,75,-1
 385 881 l 1,76,-1
 473 922 l 1,77,-1
 496 883 l 1,70,-1
EndSplineSet
EndChar

StartChar: Gbreve
Encoding: 286 286 152
Width: 653
Flags: HMW
HStem: -15 58<299.5 397 299.5 422.5> 662 58<299.5 398.5>
VStem: 45 103<266.5 439.5 266.5 461> 528 65 528 80<128 166 19 196 19 201.5>
LayerCount: 2
Fore
SplineSet
618 330 m 1,0,1
 608 225 608 225 608 166 c 2,2,-1
 608 19 l 1,3,4
 464 -15 464 -15 379 -15 c 0,5,6
 217 -15 217 -15 131 84 c 128,-1,7
 45 183 45 183 45 351.5 c 128,-1,8
 45 520 45 520 131 620 c 128,-1,9
 217 720 217 720 379 720 c 0,10,11
 460 720 460 720 540 700 c 0,12,13
 590 687.5 590 687.5 599 686 c 1,14,-1
 588 538 l 1,15,-1
 530 544 l 1,16,-1
 530 589 l 2,17,18
 530 604 530 604 518 638 c 1,19,20
 437 662 437 662 377 662 c 0,21,22
 265 662 265 662 206.5 576 c 128,-1,23
 148 490 148 490 148 353 c 128,-1,24
 148 216 148 216 206.5 129.5 c 128,-1,25
 265 43 265 43 377 43 c 0,26,27
 441 43 441 43 516 63 c 1,28,29
 528 109 528 109 528 128 c 2,30,-1
 528 196 l 2,31,32
 528 211 528 211 523.5 236.5 c 128,-1,33
 519 262 519 262 518 276 c 1,34,-1
 432 284 l 1,35,-1
 437 341 l 1,36,-1
 486 337 l 1,37,38
 522 333 522 333 554.5 333 c 128,-1,39
 587 333 587 333 596 334 c 2,40,-1
 612 336 l 1,41,-1
 618 330 l 1,0,1
387 832 m 128,-1,43
 425 832 425 832 447.5 855 c 128,-1,44
 470 878 470 878 470 916 c 1,45,-1
 526 916 l 1,46,47
 526 848 526 848 490.5 812 c 128,-1,48
 455 776 455 776 387 776 c 128,-1,49
 319 776 319 776 283.5 812 c 128,-1,50
 248 848 248 848 248 916 c 1,51,-1
 304 916 l 1,52,53
 304 878 304 878 326.5 855 c 128,-1,42
 349 832 349 832 387 832 c 128,-1,43
EndSplineSet
EndChar

StartChar: gbreve
Encoding: 287 287 153
Width: 509
Flags: HMW
HStem: -235 57<207.5 282> 141 51<234.5 285.5 208 302.5> 452 51<208 265 191.5 286> 486 20G<462 462>
VStem: 24 86<-114.5 -78.5> 54 87<284.5 360.5 283.5 379> 72 69 353 87<282.5 342.5 264.5 360.5>
LayerCount: 2
Fore
SplineSet
247 141 m 0,0,1
 210 141 210 141 179 150 c 1,2,3
 152 116 152 116 152 107 c 128,-1,4
 152 98 152 98 160 91 c 128,-1,5
 168 84 168 84 186.5 80 c 128,-1,6
 205 76 205 76 221.5 74 c 128,-1,7
 238 72 238 72 267 69 c 0,8,9
 393.403587444 55.9237668161 393.403587444 55.9237668161 431 43 c 1,10,11
 476 29 476 29 476 -50 c 128,-1,12
 476 -129 476 -129 397.5 -182 c 128,-1,13
 319 -235 319 -235 222 -235 c 0,14,15
 24 -235 24 -235 24 -90 c 0,16,17
 24 -59 24 -59 117 10 c 1,18,19
 72 34 72 34 72 84 c 0,20,21
 72 105 72 105 143 165 c 1,22,23
 54 211 54 211 54 322 c 0,24,25
 54 406 54 406 108 454.5 c 128,-1,26
 162 503 162 503 247 503 c 0,27,28
 302 503 302 503 347 481 c 1,29,-1
 462 506 l 1,30,-1
 471 455 l 1,31,-1
 435 443 l 2,32,33
 429 441 429 441 410 427 c 1,34,35
 440 383.5 440 383.5 440 322 c 0,36,37
 440 238 440 238 386 189.5 c 128,-1,38
 332 141 332 141 247 141 c 0,0,1
247 192 m 128,-1,40
 353 192 353 192 353 322 c 128,-1,41
 353 452 353 452 247 452 c 128,-1,42
 141 452 141 452 141 322 c 128,-1,39
 141 192 141 192 247 192 c 128,-1,40
383.5 -43.5 m 128,-1,44
 376 -35 376 -35 351.5 -30 c 128,-1,45
 327 -25 327 -25 249.5 -16 c 128,-1,46
 172 -7 172 -7 154 -2 c 1,47,48
 110 -59 110 -59 110 -72 c 0,49,50
 110 -132 110 -132 145.5 -155 c 128,-1,51
 181 -178 181 -178 244 -178 c 128,-1,52
 307 -178 307 -178 349 -151 c 128,-1,53
 391 -124 391 -124 391 -75 c 0,54,43
 391 -52 391 -52 383.5 -43.5 c 128,-1,44
268 643 m 128,-1,56
 306 643 306 643 328.5 666 c 128,-1,57
 351 689 351 689 351 727 c 1,58,-1
 407 727 l 1,59,60
 407 659 407 659 371.5 623 c 128,-1,61
 336 587 336 587 268 587 c 128,-1,62
 200 587 200 587 164.5 623 c 128,-1,63
 129 659 129 659 129 727 c 1,64,-1
 185 727 l 1,65,66
 185 689 185 689 207.5 666 c 128,-1,55
 230 643 230 643 268 643 c 128,-1,56
EndSplineSet
EndChar

StartChar: Hcircumflex
Encoding: 292 292 154
Width: 779
Flags: HMW
HStem: -9 21G<58 58> 0 54 326 52 651 54 693 20G<309 309 734 734> 776 21G<246 246 548 548> 902 20G<397 397>
VStem: 138 92<154.5 167 167 325 382 538> 562 93<154.5 167 167 328 328 328 382 538>
LayerCount: 2
Fore
SplineSet
350 378 m 1,0,-1
 562 382 l 1,1,-1
 562 568 l 2,2,3
 562 583 562 583 557.5 608.5 c 128,-1,4
 553 634 553 634 552 648 c 1,5,-1
 475 656 l 1,6,-1
 480 710 l 1,7,-1
 512 707 l 1,8,9
 550 705 550 705 594.5 705 c 128,-1,10
 639 705 639 705 680 709 c 2,11,-1
 734 713 l 1,12,-1
 740 654 l 1,13,-1
 662 648 l 1,14,-1
 658 612 l 2,15,16
 655 591 655 591 655 538 c 2,17,-1
 655 167 l 2,18,19
 655 114 655 114 658 93 c 2,20,-1
 662 57 l 1,21,-1
 740 51 l 1,22,-1
 734 -4 l 1,23,-1
 680 -2 l 2,24,25
 618 0 618 0 584 0 c 128,-1,26
 550 0 550 0 512 -2 c 2,27,-1
 480 -4 l 1,28,-1
 475 51 l 1,29,-1
 552 57 l 1,30,31
 553 66 553 66 557.5 91.5 c 128,-1,32
 562 117 562 117 562 137 c 2,33,-1
 562 328 l 1,34,-1
 230 325 l 1,35,-1
 230 167 l 2,36,37
 230 114 230 114 233 93 c 2,38,-1
 237 57 l 1,39,-1
 315 51 l 1,40,-1
 309 -4 l 1,41,-1
 261 -2 l 2,42,43
 205 0 205 0 167 0 c 128,-1,44
 129 0 129 0 94 -5 c 1,45,-1
 58 -9 l 1,46,-1
 51 48 l 1,47,-1
 128 57 l 1,48,49
 129 66 129 66 133.5 91.5 c 128,-1,50
 138 117 138 117 138 137 c 2,51,-1
 138 568 l 2,52,53
 138 583 138 583 133.5 608.5 c 128,-1,54
 129 634 129 634 128 648 c 1,55,-1
 51 660 l 1,56,-1
 56 710 l 1,57,-1
 88 707 l 1,58,59
 126 705 126 705 170.5 705 c 128,-1,60
 215 705 215 705 256 709 c 2,61,-1
 309 713 l 1,62,-1
 315 654 l 1,63,-1
 237 648 l 1,64,-1
 233 612 l 2,65,66
 230 591 230 591 230 538 c 2,67,-1
 230 382 l 1,68,69
 255 378 255 378 350 378 c 1,0,-1
397 922 m 1,70,-1
 571 815 l 1,71,-1
 548 776 l 1,72,-1
 460 817 l 1,73,-1
 397 842 l 1,74,-1
 334 817 l 1,75,-1
 246 776 l 1,76,-1
 223 815 l 1,77,-1
 397 922 l 1,70,-1
EndSplineSet
EndChar

StartChar: hcircumflex
Encoding: 293 293 155
Width: 604
Flags: HMW
HStem: -4 21G<35 35 266 266 347 347 579 579> 0 54 438 65<294.5 351.5> 736 20G<132 147.5> 746 20G<25 25> 776 21G<-41 -41 261 261> 902 20G<110 110>
VStem: 106 81<154.5 167 167 302 434 590> 418 81<154.5 167 167 277>
LayerCount: 2
Fore
SplineSet
25 766 m 1,0,1
 102.5 756 102.5 756 128.25 756 c 128,-1,2
 154 756 154 756 172 758 c 2,3,-1
 188 760 l 1,4,-1
 194 754 l 1,5,-1
 190 691 l 2,6,7
 187 656 187 656 187 590 c 2,8,-1
 187 434 l 1,9,10
 239 503 239 503 334.5 503 c 128,-1,11
 430 503 430 503 464.5 446.5 c 128,-1,12
 499 390 499 390 499 277 c 2,13,-1
 499 167 l 2,14,15
 499 114 499 114 502 93 c 2,16,-1
 506 57 l 1,17,-1
 585 51 l 1,18,-1
 579 -4 l 1,19,-1
 535 -2 l 2,20,21
 481 0 481 0 443.5 0 c 128,-1,22
 406 0 406 0 374 -2 c 2,23,-1
 347 -4 l 1,24,-1
 342 47 l 1,25,-1
 408 57 l 1,26,27
 409 66 409 66 413.5 91.5 c 128,-1,28
 418 117 418 117 418 137 c 2,29,-1
 418 311 l 2,30,31
 418 369 418 369 392.5 403.5 c 128,-1,32
 367 438 367 438 313.5 438 c 128,-1,33
 260 438 260 438 225.5 398.5 c 128,-1,34
 191 359 191 359 187 302 c 1,35,-1
 187 167 l 2,36,37
 187 114 187 114 190 93 c 2,38,-1
 194 57 l 1,39,-1
 272 51 l 1,40,-1
 266 -4 l 1,41,-1
 218 -2 l 2,42,43
 162 0 162 0 127.5 0 c 128,-1,44
 93 0 93 0 61 -2 c 2,45,-1
 35 -4 l 1,46,-1
 30 47 l 1,47,-1
 96 57 l 1,48,49
 97 66 97 66 101.5 91.5 c 128,-1,50
 106 117 106 117 106 137 c 2,51,-1
 106 620 l 2,52,53
 106 635 106 635 101.5 660.5 c 128,-1,54
 97 686 97 686 96 700 c 1,55,-1
 20 712 l 1,56,-1
 25 766 l 1,0,1
110 922 m 1,57,-1
 284 815 l 1,58,-1
 261 776 l 1,59,-1
 173 817 l 1,60,-1
 110 842 l 1,61,-1
 47 817 l 1,62,-1
 -41 776 l 1,63,-1
 -64 815 l 1,64,-1
 110 922 l 1,57,-1
EndSplineSet
EndChar

StartChar: dotlessi
Encoding: 305 305 156
Width: 299
Flags: HMW
HStem: -4 21G<31 31 273 273> 0 54 474 20G<139 154.5>
VStem: 113 81<154.5 167 167 327>
LayerCount: 2
Fore
SplineSet
32 503 m 1,0,1
 101.75 494 101.75 494 135.875 494 c 128,-1,2
 170 494 170 494 179 495 c 2,3,-1
 195 497 l 1,4,-1
 201 491 l 1,5,-1
 197 428 l 2,6,7
 194 393 194 393 194 327 c 2,8,-1
 194 167 l 2,9,10
 194 114 194 114 197 93 c 2,11,-1
 201 57 l 1,12,-1
 279 51 l 1,13,-1
 273 -4 l 1,14,-1
 225 -2 l 2,15,16
 169 0 169 0 135 0 c 128,-1,17
 101 0 101 0 63 -2 c 2,18,-1
 31 -4 l 1,19,-1
 26 45 l 1,20,-1
 103 57 l 1,21,22
 104 66 104 66 108.5 91.5 c 128,-1,23
 113 117 113 117 113 137 c 2,24,-1
 113 357 l 2,25,26
 113 372 113 372 108.5 397.5 c 128,-1,27
 104 423 104 423 103 437 c 1,28,-1
 27 449 l 1,29,-1
 32 503 l 1,0,1
EndSplineSet
EndChar

StartChar: Nacute
Encoding: 323 323 157
Width: 764
Flags: HMW
HStem: -9 21G<37 37> -7 21G<578 638 578 578> 0 54 651 54 693 20G<728 728>
VStem: 117 67<154.5 167 167 556> 572 67<286.5 297 297 528>
LayerCount: 2
Fore
SplineSet
639 297 m 1,0,-1
 638 130 l 1,1,-1
 638 -7 l 1,2,-1
 578 -7 l 1,3,-1
 184 556 l 1,4,-1
 184 167 l 2,5,6
 184 114 184 114 187 93 c 2,7,-1
 191 57 l 1,8,-1
 269 51 l 1,9,-1
 263 -4 l 1,10,-1
 227 -2 l 2,11,12
 181 0 181 0 144.5 0 c 128,-1,13
 108 0 108 0 73 -5 c 1,14,-1
 37 -9 l 1,15,-1
 30 48 l 1,16,-1
 107 57 l 1,17,18
 108 66 108 66 112.5 91.5 c 128,-1,19
 117 117 117 117 117 137 c 2,20,-1
 117 568 l 2,21,22
 117 584 117 584 112.5 611 c 128,-1,23
 108 638 108 638 107 649 c 1,24,-1
 31 657 l 1,25,-1
 36 710 l 1,26,-1
 78 707 l 1,27,28
 124 705 124 705 146 705 c 128,-1,29
 168 705 168 705 198 707 c 2,30,-1
 223 709 l 1,31,-1
 228 703 l 1,32,33
 243 667 243 667 272.5 604 c 128,-1,34
 302 541 302 541 310 530 c 2,35,-1
 572 163 l 1,36,-1
 572 558 l 2,37,38
 572 577 572 577 567.5 605 c 128,-1,39
 563 633 563 633 562 648 c 1,40,-1
 485 656 l 1,41,-1
 490 710 l 1,42,-1
 522 707 l 1,43,44
 560 705 560 705 603 705 c 128,-1,45
 646 705 646 705 682 709 c 2,46,-1
 728 713 l 1,47,-1
 734 654 l 1,48,-1
 656 648 l 1,49,-1
 647 607 l 1,50,51
 639 559 639 559 639 528 c 2,52,-1
 639 297 l 1,0,-1
507 927 m 1,53,-1
 537 854 l 1,54,-1
 469 837 l 2,55,56
 455 833 455 833 435 828.5 c 128,-1,57
 415 824 415 824 402.5 820.5 c 128,-1,58
 390 817 390 817 386 816 c 2,59,-1
 298 779 l 1,60,-1
 278 827 l 1,61,-1
 507 927 l 1,53,-1
EndSplineSet
EndChar

StartChar: nacute
Encoding: 324 324 158
Width: 610
Flags: HMW
HStem: -4 21G<41 41 273 273 353 353 585 585> 0 54 438 65<294 357.5> 480 20G<114 129.5> 486 20G<31 31> 564 21G<266 266> 745 20G<425 425>
VStem: 112 81<154.5 167 167 302> 424 81<154.5 167 167 277>
LayerCount: 2
Fore
SplineSet
26 455 m 1,0,-1
 31 506 l 1,1,-1
 62 503 l 1,2,3
 81 500 81 500 112.5 500 c 0,4,5
 144 500 144 500 151 501 c 2,6,-1
 163 503 l 1,7,-1
 169 497 l 1,8,-1
 182 418 l 1,9,10
 201 451 201 451 240 477 c 128,-1,11
 279 503 279 503 339 503 c 0,12,13
 436 503 436 503 470.5 446.5 c 128,-1,14
 505 390 505 390 505 277 c 2,15,-1
 505 167 l 2,16,17
 505 114 505 114 508 93 c 2,18,-1
 512 57 l 1,19,-1
 591 51 l 1,20,-1
 585 -4 l 1,21,-1
 541 -2 l 2,22,23
 487 0 487 0 449.5 0 c 0,24,25
 412 0 412 0 380 -2 c 2,26,-1
 353 -4 l 1,27,-1
 348 47 l 1,28,-1
 414 57 l 1,29,30
 415 66 415 66 419.5 91.5 c 0,31,32
 424 117 424 117 424 137 c 2,33,-1
 424 311 l 2,34,35
 424 369 424 369 398.5 403.5 c 128,-1,36
 373 438 373 438 319.5 438 c 0,37,38
 266 438 266 438 231.5 398.5 c 128,-1,39
 197 359 197 359 193 302 c 1,40,-1
 193 167 l 2,41,42
 193 114 193 114 196 93 c 2,43,-1
 200 57 l 1,44,-1
 279 51 l 1,45,-1
 273 -4 l 1,46,-1
 228 -2 l 2,47,48
 174 0 174 0 136.5 0 c 0,49,50
 99 0 99 0 67 -2 c 2,51,-1
 41 -4 l 1,52,-1
 36 47 l 1,53,-1
 102 57 l 1,54,55
 103 66 103 66 107.5 91.5 c 0,56,57
 112 117 112 117 112 137 c 2,58,-1
 112 357 l 2,59,60
 112 363 112 363 107 391 c 0,61,62
 102 419 102 419 98 443 c 1,63,-1
 26 455 l 1,0,-1
425 765 m 1,64,-1
 474 703 l 1,65,66
 424 675 424 675 413 668 c 2,67,-1
 340 625 l 1,68,-1
 266 564 l 1,69,-1
 233 605 l 1,70,-1
 425 765 l 1,64,-1
EndSplineSet
EndChar

StartChar: Ncaron
Encoding: 327 327 159
Width: 764
Flags: HMW
HStem: -9 21G<37 37> -7 21G<578 638 578 578> 0 54 651 54 693 20G<728 728>
VStem: 117 67<154.5 167 167 556> 572 67<286.5 297 297 528>
LayerCount: 2
Fore
SplineSet
639 297 m 1,0,-1
 638 130 l 1,1,-1
 638 -7 l 1,2,-1
 578 -7 l 1,3,-1
 184 556 l 1,4,-1
 184 167 l 2,5,6
 184 114 184 114 187 93 c 2,7,-1
 191 57 l 1,8,-1
 269 51 l 1,9,-1
 263 -4 l 1,10,-1
 227 -2 l 2,11,12
 181 0 181 0 144.5 0 c 128,-1,13
 108 0 108 0 73 -5 c 1,14,-1
 37 -9 l 1,15,-1
 30 48 l 1,16,-1
 107 57 l 1,17,18
 108 66 108 66 112.5 91.5 c 128,-1,19
 117 117 117 117 117 137 c 2,20,-1
 117 568 l 2,21,22
 117 584 117 584 112.5 611 c 128,-1,23
 108 638 108 638 107 649 c 1,24,-1
 31 657 l 1,25,-1
 36 710 l 1,26,-1
 78 707 l 1,27,28
 124 705 124 705 146 705 c 128,-1,29
 168 705 168 705 198 707 c 2,30,-1
 223 709 l 1,31,-1
 228 703 l 1,32,33
 243 667 243 667 272.5 604 c 128,-1,34
 302 541 302 541 310 530 c 2,35,-1
 572 163 l 1,36,-1
 572 558 l 2,37,38
 572 577 572 577 567.5 605 c 128,-1,39
 563 633 563 633 562 648 c 1,40,-1
 485 656 l 1,41,-1
 490 710 l 1,42,-1
 522 707 l 1,43,44
 560 705 560 705 603 705 c 128,-1,45
 646 705 646 705 682 709 c 2,46,-1
 728 713 l 1,47,-1
 734 654 l 1,48,-1
 656 648 l 1,49,-1
 647 607 l 1,50,51
 639 559 639 559 639 528 c 2,52,-1
 639 297 l 1,0,-1
539 883 m 1,53,-1
 365 776 l 1,54,-1
 191 883 l 1,55,-1
 214 922 l 1,56,-1
 302 881 l 1,57,-1
 365 856 l 1,58,-1
 428 881 l 1,59,-1
 516 922 l 1,60,-1
 539 883 l 1,53,-1
EndSplineSet
EndChar

StartChar: ncaron
Encoding: 328 328 160
Width: 610
Flags: HMW
HStem: -4 21G<41 41 273 273 353 353 585 585> 0 54 438 65<294 357.5> 480 20G<114 129.5> 486 20G<31 31> 564 21G<313 313> 745 20G<180 180 446 446>
VStem: 112 81<154.5 167 167 302> 424 81<154.5 167 167 277>
LayerCount: 2
Fore
SplineSet
26 455 m 1,0,-1
 31 506 l 1,1,-1
 62 503 l 1,2,3
 81 500 81 500 112.5 500 c 0,4,5
 144 500 144 500 151 501 c 2,6,-1
 163 503 l 1,7,-1
 169 497 l 1,8,-1
 182 418 l 1,9,10
 201 451 201 451 240 477 c 128,-1,11
 279 503 279 503 339 503 c 0,12,13
 436 503 436 503 470.5 446.5 c 128,-1,14
 505 390 505 390 505 277 c 2,15,-1
 505 167 l 2,16,17
 505 114 505 114 508 93 c 2,18,-1
 512 57 l 1,19,-1
 591 51 l 1,20,-1
 585 -4 l 1,21,-1
 541 -2 l 2,22,23
 487 0 487 0 449.5 0 c 0,24,25
 412 0 412 0 380 -2 c 2,26,-1
 353 -4 l 1,27,-1
 348 47 l 1,28,-1
 414 57 l 1,29,30
 415 66 415 66 419.5 91.5 c 0,31,32
 424 117 424 117 424 137 c 2,33,-1
 424 311 l 2,34,35
 424 369 424 369 398.5 403.5 c 128,-1,36
 373 438 373 438 319.5 438 c 0,37,38
 266 438 266 438 231.5 398.5 c 128,-1,39
 197 359 197 359 193 302 c 1,40,-1
 193 167 l 2,41,42
 193 114 193 114 196 93 c 2,43,-1
 200 57 l 1,44,-1
 279 51 l 1,45,-1
 273 -4 l 1,46,-1
 228 -2 l 2,47,48
 174 0 174 0 136.5 0 c 0,49,50
 99 0 99 0 67 -2 c 2,51,-1
 41 -4 l 1,52,-1
 36 47 l 1,53,-1
 102 57 l 1,54,55
 103 66 103 66 107.5 91.5 c 0,56,57
 112 117 112 117 112 137 c 2,58,-1
 112 357 l 2,59,60
 112 363 112 363 107 391 c 0,61,62
 102 419 102 419 98 443 c 1,63,-1
 26 455 l 1,0,-1
479 733 m 1,64,-1
 313 564 l 1,65,-1
 147 733 l 1,66,-1
 180 765 l 1,67,-1
 254 704 l 1,68,-1
 313 661 l 1,69,-1
 372 704 l 1,70,-1
 446 765 l 1,71,-1
 479 733 l 1,64,-1
EndSplineSet
EndChar

StartChar: OE
Encoding: 338 338 161
Width: 971
Flags: HMW
HStem: -15 53<298.5 385.5> 340 52<655.5 733 660 713> 649 56<624 755 624 624> 667 53<298.5 391.5 264.5 405>
VStem: 45 107<265 439.5 265 461> 526 92<147 167 167 338 394 538>
LayerCount: 2
Fore
SplineSet
785 705 m 2,0,1
 810.5 705 810.5 705 908 715 c 1,2,-1
 918 704 l 1,3,-1
 925 561 l 1,4,-1
 867 556 l 1,5,6
 859 599 859 599 855 612 c 128,-1,7
 851 625 851 625 836 644 c 1,8,9
 798 649 798 649 755 649 c 2,10,-1
 624 649 l 1,11,12
 618 605 618 605 618 538 c 2,13,-1
 618 394 l 1,14,15
 652 392 652 392 660 392 c 2,16,-1
 733 392 l 2,17,18
 757 392 757 392 793 401 c 1,19,-1
 802 467 l 1,20,-1
 848 462 l 1,21,22
 847 450 847 450 847 429 c 2,23,-1
 847 382 l 2,24,25
 847 330 847 330 848 309 c 2,26,-1
 850 273 l 1,27,-1
 802 267 l 1,28,-1
 793 334 l 1,29,-1
 760 337 l 1,30,-1
 713 340 l 1,31,-1
 660 340 l 2,32,33
 652 340 652 340 618 338 c 1,34,-1
 618 167 l 2,35,36
 618 97 618 97 624 57 c 1,37,-1
 768 57 l 2,38,39
 803 57 803 57 855 66 c 1,40,41
 870 86 870 86 876 103 c 1,42,43
 877 111 877 111 883.5 137.5 c 128,-1,44
 890 164 890 164 891 170 c 1,45,-1
 946 165 l 1,46,-1
 931 7 l 1,47,-1
 921 -4 l 1,48,-1
 867 -2 l 2,49,50
 811 0 811 0 798 0 c 2,51,-1
 549 0 l 1,52,53
 501 -2 501 -2 482 -5 c 2,54,-1
 446 -9 l 1,55,56
 412 -15 412 -15 373 -15 c 0,57,58
 214 -15 214 -15 129.5 85 c 128,-1,59
 45 185 45 185 45 352.5 c 128,-1,60
 45 520 45 520 129.5 620 c 128,-1,61
 214 720 214 720 373 720 c 0,62,63
 426 720 426 720 476 707 c 1,64,65
 508 705 508 705 529 705 c 2,66,-1
 785 705 l 2,0,1
373 38 m 0,67,68
 466 38 466 38 523 108 c 1,69,70
 526 126 526 126 526 137 c 2,71,-1
 526 568 l 2,72,73
 526 579 526 579 523 597 c 1,74,75
 466 667 466 667 373 667 c 0,76,77
 266 667 266 667 209 578.5 c 128,-1,78
 152 490 152 490 152 352 c 128,-1,79
 152 214 152 214 209 126 c 128,-1,80
 266 38 266 38 373 38 c 0,67,68
EndSplineSet
EndChar

StartChar: oe
Encoding: 339 339 162
Width: 826
Flags: HMW
HStem: -10 65<581 642.5 576 649> 446 56 483 20G<194 310>
VStem: 40 94<194.5 297.5 194.5 322.5> 406 79<237 237 237 297.5> 709 92<322.5 340.5 270 360.5>
LayerCount: 2
Fore
SplineSet
798 50 m 1,0,1
 726 -10 726 -10 616 -10 c 128,-1,2
 506 -10 506 -10 445 65 c 1,3,4
 384 -10 384 -10 271.5 -10 c 128,-1,5
 159 -10 159 -10 99.5 59.5 c 128,-1,6
 40 129 40 129 40 246.5 c 128,-1,7
 40 364 40 364 99.5 433.5 c 128,-1,8
 159 503 159 503 271.5 503 c 128,-1,9
 384 503 384 503 445 429 c 1,10,11
 503 502 503 502 609 502 c 0,12,13
 801 502 801 502 801 270 c 1,14,-1
 784 237 l 1,15,-1
 485 237 l 1,16,17
 487 163 487 163 522.5 109 c 128,-1,18
 558 55 558 55 621 55 c 0,19,20
 701.666666667 55 701.666666667 55 770 96 c 1,21,-1
 798 50 l 1,0,1
406 246 m 128,-1,23
 406 333 406 333 374 389.5 c 128,-1,24
 342 446 342 446 270 446 c 128,-1,25
 198 446 198 446 166 389.5 c 128,-1,26
 134 333 134 333 134 246 c 128,-1,27
 134 159 134 159 166 103 c 128,-1,28
 198 47 198 47 270 47 c 128,-1,29
 342 47 342 47 374 103 c 128,-1,22
 406 159 406 159 406 246 c 128,-1,23
708 312 m 1,30,-1
 709 324 l 1,31,32
 709 382 709 382 683.5 416 c 128,-1,33
 658 450 658 450 605 450 c 0,34,35
 502 450 502 450 486 288 c 1,36,37
 675 304 675 304 708 304 c 1,38,-1
 708 312 l 1,30,-1
EndSplineSet
EndChar

StartChar: Racute
Encoding: 340 340 163
Width: 617
Flags: HMW
HStem: -9 21G<37 37> 0 21G<140 167.5 456 456 497 515> 320 51<282.5 297> 665 50<293.5 328>
VStem: 117 92<154.5 167 167 321 374 538> 443 97<469 567.5>
LayerCount: 2
Fore
SplineSet
136 705 m 1,0,-1
 320 715 l 1,1,2
 424 715 424 715 482 664.5 c 128,-1,3
 540 614 540 614 540 517 c 0,4,5
 540 448 540 448 498.5 400 c 128,-1,6
 457 352 457 352 389 332 c 1,7,8
 468 175 468 175 495 131 c 0,9,10
 495 130 495 130 545 59 c 1,11,-1
 612 48 l 1,12,-1
 608 -4 l 1,13,-1
 571 -2 l 2,14,15
 529 0 529 0 513.5 0 c 128,-1,16
 498 0 498 0 462 -4 c 1,17,-1
 456 0 l 1,18,19
 416.111111111 91.1746031746 416.111111111 91.1746031746 401 116 c 1,20,-1
 297 320 l 1,21,22
 237 320 237 320 209 321 c 1,23,-1
 209 167 l 2,24,25
 209 115 209 115 212 94 c 2,26,-1
 216 58 l 1,27,-1
 284 51 l 1,28,-1
 278 -4 l 1,29,-1
 240 -2 l 2,30,31
 194 0 194 0 155 0 c 128,-1,32
 116 0 116 0 78 -5 c 1,33,-1
 37 -9 l 1,34,-1
 30 48 l 1,35,-1
 107 57 l 1,36,37
 108 66 108 66 112.5 91.5 c 128,-1,38
 117 117 117 117 117 137 c 2,39,-1
 117 568 l 2,40,41
 117 583 117 583 112.5 608.5 c 128,-1,42
 108 634 108 634 107 648 c 1,43,-1
 30 660 l 1,44,-1
 35 710 l 1,45,-1
 67 707 l 1,46,47
 105 705 105 705 130 705 c 2,48,-1
 136 705 l 1,0,-1
277 371 m 0,49,50
 354 371 354 371 398.5 408.5 c 128,-1,51
 443 446 443 446 443 518 c 128,-1,52
 443 590 443 590 399 627.5 c 128,-1,53
 355 665 355 665 278 665 c 0,54,55
 256 665 256 665 216 660 c 1,56,-1
 216 658 l 1,57,-1
 212 617 l 2,58,59
 209 593 209 593 209 538 c 2,60,-1
 209 374 l 1,61,62
 234 371 234 371 277 371 c 0,49,50
413 927 m 1,63,-1
 443 854 l 1,64,-1
 375 837 l 2,65,66
 361 833 361 833 341 828.5 c 128,-1,67
 321 824 321 824 308.5 820.5 c 128,-1,68
 296 817 296 817 292 816 c 2,69,-1
 204 779 l 1,70,-1
 184 827 l 1,71,-1
 413 927 l 1,63,-1
EndSplineSet
EndChar

StartChar: racute
Encoding: 341 341 164
Width: 418
Flags: HMW
HStem: -4 21G<41 41 293 293> 0 21G<114 144> 434 69<309 331> 480 20G<114 129.5> 486 20G<31 31> 564 21G<178 178> 745 20G<337 337>
VStem: 112 81<154.5 167 167 284> 345 63
LayerCount: 2
Fore
SplineSet
193 284 m 1,0,-1
 193 167 l 2,1,2
 193 114 193 114 196 93 c 2,3,-1
 200 57 l 1,4,-1
 299 49 l 1,5,-1
 293 -4 l 1,6,-1
 238 -2 l 2,7,8
 174 0 174 0 136.5 0 c 0,9,10
 99 0 99 0 67 -2 c 2,11,-1
 41 -4 l 1,12,-1
 36 47 l 1,13,-1
 102 57 l 1,14,15
 103 66 103 66 107.5 91.5 c 0,16,17
 112 117 112 117 112 137 c 2,18,-1
 112 357 l 2,19,20
 112 363 112 363 107 391 c 0,21,22
 102 419 102 419 98 443 c 1,23,-1
 26 455 l 1,24,-1
 31 506 l 1,25,-1
 62 503 l 1,26,27
 81 500 81 500 112.5 500 c 0,28,29
 144 500 144 500 151 501 c 2,30,-1
 163 503 l 1,31,-1
 169 497 l 1,32,-1
 184 409 l 1,33,34
 241 503 241 503 345 503 c 0,35,36
 373 503 373 503 393 498 c 2,37,-1
 413 493 l 1,38,-1
 403 328 l 1,39,-1
 346 331 l 1,40,-1
 345 384 l 2,41,42
 345 392 345 392 331 434 c 1,43,44
 261 434 261 434 228.5 396.5 c 128,-1,45
 196 359 196 359 193 284 c 1,0,-1
337 765 m 1,46,-1
 386 703 l 1,47,48
 336 675 336 675 325 668 c 2,49,-1
 252 625 l 1,50,-1
 178 564 l 1,51,-1
 145 605 l 1,52,-1
 337 765 l 1,46,-1
EndSplineSet
EndChar

StartChar: Rcaron
Encoding: 344 344 165
Width: 617
Flags: HMW
HStem: -9 21G<37 37> 0 21G<140 167.5 456 456 497 515> 320 51<282.5 297> 665 50<293.5 328>
VStem: 117 92<154.5 167 167 321 374 538> 443 97<469 567.5>
LayerCount: 2
Fore
SplineSet
136 705 m 1,0,-1
 320 715 l 1,1,2
 424 715 424 715 482 664.5 c 128,-1,3
 540 614 540 614 540 517 c 0,4,5
 540 448 540 448 498.5 400 c 128,-1,6
 457 352 457 352 389 332 c 1,7,8
 468 175 468 175 495 131 c 0,9,10
 495 130 495 130 545 59 c 1,11,-1
 612 48 l 1,12,-1
 608 -4 l 1,13,-1
 571 -2 l 2,14,15
 529 0 529 0 513.5 0 c 128,-1,16
 498 0 498 0 462 -4 c 1,17,-1
 456 0 l 1,18,19
 416.111111111 91.1746031746 416.111111111 91.1746031746 401 116 c 1,20,-1
 297 320 l 1,21,22
 237 320 237 320 209 321 c 1,23,-1
 209 167 l 2,24,25
 209 115 209 115 212 94 c 2,26,-1
 216 58 l 1,27,-1
 284 51 l 1,28,-1
 278 -4 l 1,29,-1
 240 -2 l 2,30,31
 194 0 194 0 155 0 c 128,-1,32
 116 0 116 0 78 -5 c 1,33,-1
 37 -9 l 1,34,-1
 30 48 l 1,35,-1
 107 57 l 1,36,37
 108 66 108 66 112.5 91.5 c 128,-1,38
 117 117 117 117 117 137 c 2,39,-1
 117 568 l 2,40,41
 117 583 117 583 112.5 608.5 c 128,-1,42
 108 634 108 634 107 648 c 1,43,-1
 30 660 l 1,44,-1
 35 710 l 1,45,-1
 67 707 l 1,46,47
 105 705 105 705 130 705 c 2,48,-1
 136 705 l 1,0,-1
277 371 m 0,49,50
 354 371 354 371 398.5 408.5 c 128,-1,51
 443 446 443 446 443 518 c 128,-1,52
 443 590 443 590 399 627.5 c 128,-1,53
 355 665 355 665 278 665 c 0,54,55
 256 665 256 665 216 660 c 1,56,-1
 216 658 l 1,57,-1
 212 617 l 2,58,59
 209 593 209 593 209 538 c 2,60,-1
 209 374 l 1,61,62
 234 371 234 371 277 371 c 0,49,50
445 883 m 1,63,-1
 271 776 l 1,64,-1
 97 883 l 1,65,-1
 120 922 l 1,66,-1
 208 881 l 1,67,-1
 271 856 l 1,68,-1
 334 881 l 1,69,-1
 422 922 l 1,70,-1
 445 883 l 1,63,-1
EndSplineSet
EndChar

StartChar: rcaron
Encoding: 345 345 166
Width: 418
Flags: HMW
HStem: -4 21G<41 41 293 293> 0 21G<114 144> 434 69<309 331> 480 20G<114 129.5> 486 20G<31 31> 564 21G<225 225> 745 20G<92 92 358 358>
VStem: 112 81<154.5 167 167 284> 345 63
LayerCount: 2
Fore
SplineSet
193 284 m 1,0,-1
 193 167 l 2,1,2
 193 114 193 114 196 93 c 2,3,-1
 200 57 l 1,4,-1
 299 49 l 1,5,-1
 293 -4 l 1,6,-1
 238 -2 l 2,7,8
 174 0 174 0 136.5 0 c 0,9,10
 99 0 99 0 67 -2 c 2,11,-1
 41 -4 l 1,12,-1
 36 47 l 1,13,-1
 102 57 l 1,14,15
 103 66 103 66 107.5 91.5 c 0,16,17
 112 117 112 117 112 137 c 2,18,-1
 112 357 l 2,19,20
 112 363 112 363 107 391 c 0,21,22
 102 419 102 419 98 443 c 1,23,-1
 26 455 l 1,24,-1
 31 506 l 1,25,-1
 62 503 l 1,26,27
 81 500 81 500 112.5 500 c 0,28,29
 144 500 144 500 151 501 c 2,30,-1
 163 503 l 1,31,-1
 169 497 l 1,32,-1
 184 409 l 1,33,34
 241 503 241 503 345 503 c 0,35,36
 373 503 373 503 393 498 c 2,37,-1
 413 493 l 1,38,-1
 403 328 l 1,39,-1
 346 331 l 1,40,-1
 345 384 l 2,41,42
 345 392 345 392 331 434 c 1,43,44
 261 434 261 434 228.5 396.5 c 128,-1,45
 196 359 196 359 193 284 c 1,0,-1
391 733 m 1,46,-1
 225 564 l 1,47,-1
 59 733 l 1,48,-1
 92 765 l 1,49,-1
 166 704 l 1,50,-1
 225 661 l 1,51,-1
 284 704 l 1,52,-1
 358 765 l 1,53,-1
 391 733 l 1,46,-1
EndSplineSet
EndChar

StartChar: Sacute
Encoding: 346 346 167
Width: 549
Flags: HMW
HStem: -15 60<241.5 307 241.5 331> 665 55<234 287.5>
VStem: 51 100<514.5 591 514.5 595> 399 105<129.5 212>
LayerCount: 2
Fore
SplineSet
349 263 m 0,0,1
 316.307692308 287.846153846 316.307692308 287.846153846 274.153846154 308.923076923 c 2,2,-1
 229 331.5 l 2,3,4
 226 333 226 333 223 334 c 0,5,6
 141 374 141 374 96 418.5 c 128,-1,7
 51 463 51 463 51 542.5 c 128,-1,8
 51 622 51 622 111.5 671 c 128,-1,9
 172 720 172 720 257 720 c 128,-1,10
 342 720 342 720 470 688 c 1,11,-1
 456 541 l 1,12,-1
 397 547 l 1,13,-1
 397 587 l 2,14,15
 397 597 397 597 383 643 c 1,16,17
 330 665 330 665 273 665 c 128,-1,18
 216 665 216 665 183.5 636 c 128,-1,19
 151 607 151 607 151 554 c 0,20,21
 151 501.5 151 501.5 201 464.5 c 0,22,23
 235.723685537 438.804472702 235.723685537 438.804472702 275.361842769 419.402236351 c 128,-1,24
 315 400 315 400 317 399 c 0,25,26
 364.428571429 375.285714286 364.428571429 375.285714286 391.214285714 358.142857143 c 128,-1,27
 418 341 418 341 447 315.5 c 0,28,29
 504 265.379310345 504 265.379310345 504 175.689655172 c 128,-1,30
 504 86 504 86 437 35.5 c 128,-1,31
 370 -15 370 -15 276.5 -15 c 128,-1,32
 183 -15 183 -15 105 11 c 0,33,34
 72 21.5 72 21.5 45 38 c 1,35,-1
 60 192 l 1,36,-1
 126 186 l 1,37,-1
 126 138 l 2,38,39
 126 123 126 123 137 72 c 1,40,41
 200 45 200 45 264 45 c 128,-1,42
 328 45 328 45 363.5 77.5 c 128,-1,43
 399 110 399 110 399 167.5 c 128,-1,44
 399 225 399 225 349 263 c 0,0,1
438 927 m 1,45,-1
 468 854 l 1,46,-1
 400 837 l 2,47,48
 386 833 386 833 366 828.5 c 128,-1,49
 346 824 346 824 333.5 820.5 c 128,-1,50
 321 817 321 817 317 816 c 2,51,-1
 229 779 l 1,52,-1
 209 827 l 1,53,-1
 438 927 l 1,45,-1
EndSplineSet
EndChar

StartChar: sacute
Encoding: 347 347 168
Width: 417
Flags: HMW
HStem: -10 51<190 234 190 257.5> 451 52<178.5 217>
VStem: 42 80<335 406.5 335 412> 297 82<90.5 169.5>
LayerCount: 2
Fore
SplineSet
203 -10 m 0,0,1
 109.5 -10 109.5 -10 38 29 c 1,2,-1
 49 165 l 1,3,-1
 107 162 l 1,4,-1
 107 124 l 2,5,6
 107 112 107 112 121 64 c 1,7,8
 149 41 149 41 206 41 c 0,9,10
 297 41 297 41 297 117 c 0,11,12
 297 146 297 146 270.5 167.5 c 128,-1,13
 244 189 244 189 207 205.5 c 128,-1,14
 170 222 170 222 132.5 240.5 c 128,-1,15
 95 259 95 259 68.5 292 c 128,-1,16
 42 325 42 325 42 370 c 0,17,18
 42 432 42 432 87.5 467.5 c 128,-1,19
 133 503 133 503 206.5 503 c 128,-1,20
 280 503 280 503 354 486 c 1,21,-1
 342 343 l 1,22,-1
 284 346 l 1,23,-1
 284 382 l 2,24,25
 284 393 284 393 270 439 c 1,26,27
 242 451 242 451 204 451 c 128,-1,28
 166 451 166 451 144 433.5 c 128,-1,29
 122 416 122 416 122 387 c 128,-1,30
 122 358 122 358 148.5 336.5 c 128,-1,31
 175 315 175 315 212.5 298.5 c 128,-1,32
 250 282 250 282 288 263.5 c 128,-1,33
 326 245 326 245 352.5 212.5 c 128,-1,34
 379 180 379 180 379 136 c 0,35,36
 379 -10 379 -10 203 -10 c 0,0,1
331 765 m 1,37,-1
 380 703 l 1,38,39
 330 675 330 675 319 668 c 2,40,-1
 246 625 l 1,41,-1
 172 564 l 1,42,-1
 139 605 l 1,43,-1
 331 765 l 1,37,-1
EndSplineSet
EndChar

StartChar: Scaron
Encoding: 352 352 169
Width: 549
Flags: HMW
HStem: -15 60<241.5 307 241.5 331> 665 55<234 287.5>
VStem: 51 100<514.5 591 514.5 595> 399 105<129.5 212>
LayerCount: 2
Fore
SplineSet
349 263 m 0,0,1
 316.307692308 287.846153846 316.307692308 287.846153846 274.153846154 308.923076923 c 2,2,-1
 229 331.5 l 2,3,4
 226 333 226 333 223 334 c 0,5,6
 141 374 141 374 96 418.5 c 128,-1,7
 51 463 51 463 51 542.5 c 128,-1,8
 51 622 51 622 111.5 671 c 128,-1,9
 172 720 172 720 257 720 c 128,-1,10
 342 720 342 720 470 688 c 1,11,-1
 456 541 l 1,12,-1
 397 547 l 1,13,-1
 397 587 l 2,14,15
 397 597 397 597 383 643 c 1,16,17
 330 665 330 665 273 665 c 128,-1,18
 216 665 216 665 183.5 636 c 128,-1,19
 151 607 151 607 151 554 c 0,20,21
 151 501.5 151 501.5 201 464.5 c 0,22,23
 235.723685537 438.804472702 235.723685537 438.804472702 275.361842769 419.402236351 c 128,-1,24
 315 400 315 400 317 399 c 0,25,26
 364.428571429 375.285714286 364.428571429 375.285714286 391.214285714 358.142857143 c 128,-1,27
 418 341 418 341 447 315.5 c 0,28,29
 504 265.379310345 504 265.379310345 504 175.689655172 c 128,-1,30
 504 86 504 86 437 35.5 c 128,-1,31
 370 -15 370 -15 276.5 -15 c 128,-1,32
 183 -15 183 -15 105 11 c 0,33,34
 72 21.5 72 21.5 45 38 c 1,35,-1
 60 192 l 1,36,-1
 126 186 l 1,37,-1
 126 138 l 2,38,39
 126 123 126 123 137 72 c 1,40,41
 200 45 200 45 264 45 c 128,-1,42
 328 45 328 45 363.5 77.5 c 128,-1,43
 399 110 399 110 399 167.5 c 128,-1,44
 399 225 399 225 349 263 c 0,0,1
470 883 m 1,45,-1
 296 776 l 1,46,-1
 122 883 l 1,47,-1
 145 922 l 1,48,-1
 233 881 l 1,49,-1
 296 856 l 1,50,-1
 359 881 l 1,51,-1
 447 922 l 1,52,-1
 470 883 l 1,45,-1
EndSplineSet
EndChar

StartChar: scaron
Encoding: 353 353 170
Width: 417
Flags: HMW
HStem: -10 51<190 234 190 257.5> 451 52<178.5 217>
VStem: 42 80<335 406.5 335 412> 297 82<90.5 169.5>
LayerCount: 2
Fore
SplineSet
203 -10 m 0,0,1
 109.5 -10 109.5 -10 38 29 c 1,2,-1
 49 165 l 1,3,-1
 107 162 l 1,4,-1
 107 124 l 2,5,6
 107 112 107 112 121 64 c 1,7,8
 149 41 149 41 206 41 c 0,9,10
 297 41 297 41 297 117 c 0,11,12
 297 146 297 146 270.5 167.5 c 128,-1,13
 244 189 244 189 207 205.5 c 128,-1,14
 170 222 170 222 132.5 240.5 c 128,-1,15
 95 259 95 259 68.5 292 c 128,-1,16
 42 325 42 325 42 370 c 0,17,18
 42 432 42 432 87.5 467.5 c 128,-1,19
 133 503 133 503 206.5 503 c 128,-1,20
 280 503 280 503 354 486 c 1,21,-1
 342 343 l 1,22,-1
 284 346 l 1,23,-1
 284 382 l 2,24,25
 284 393 284 393 270 439 c 1,26,27
 242 451 242 451 204 451 c 128,-1,28
 166 451 166 451 144 433.5 c 128,-1,29
 122 416 122 416 122 387 c 128,-1,30
 122 358 122 358 148.5 336.5 c 128,-1,31
 175 315 175 315 212.5 298.5 c 128,-1,32
 250 282 250 282 288 263.5 c 128,-1,33
 326 245 326 245 352.5 212.5 c 128,-1,34
 379 180 379 180 379 136 c 0,35,36
 379 -10 379 -10 203 -10 c 0,0,1
385 733 m 1,37,-1
 219 564 l 1,38,-1
 53 733 l 1,39,-1
 86 765 l 1,40,-1
 160 704 l 1,41,-1
 219 661 l 1,42,-1
 278 704 l 1,43,-1
 352 765 l 1,44,-1
 385 733 l 1,37,-1
EndSplineSet
EndChar

StartChar: Tcaron
Encoding: 356 356 171
Width: 606
Flags: HMW
HStem: -4 21G<176 176 438 438> 0 21G<261 288.5> 649 56<170 248 170 170 355 355 355 436> 695 20G<32 32 574 574> 776 21G<307 307> 902 20G<156 156 458 458>
VStem: 258 91<154.5 167 167 538>
LayerCount: 2
Fore
SplineSet
355 649 m 1,0,-1
 349 538 l 1,1,-1
 349 167 l 2,2,3
 349 115 349 115 352 94 c 2,4,-1
 356 59 l 1,5,-1
 444 51 l 1,6,-1
 438 -4 l 1,7,-1
 380 -2 l 2,8,9
 314 0 314 0 280 0 c 128,-1,10
 246 0 246 0 208 -2 c 2,11,-1
 176 -4 l 1,12,-1
 171 48 l 1,13,-1
 248 57 l 1,14,15
 249 66 249 66 253.5 91.5 c 128,-1,16
 258 117 258 117 258 137 c 2,17,-1
 258 568 l 2,18,19
 258 580 258 580 254 611.5 c 128,-1,20
 250 643 250 643 248 649 c 1,21,-1
 170 649 l 1,22,23
 123 647 123 647 103 644 c 1,24,25
 85 618 85 618 83 608.5 c 128,-1,26
 81 599 81 599 73 556 c 1,27,-1
 15 561 l 1,28,-1
 22 704 l 1,29,-1
 32 715 l 1,30,31
 129.5 705 129.5 705 155 705 c 2,32,-1
 451 705 l 2,33,34
 476.5 705 476.5 705 574 715 c 1,35,-1
 584 704 l 1,36,-1
 591 561 l 1,37,-1
 533 556 l 1,38,39
 525 599 525 599 521 612 c 128,-1,40
 517 625 517 625 502 644 c 1,41,42
 483 647 483 647 436 649 c 1,43,-1
 355 649 l 1,0,-1
481 883 m 1,44,-1
 307 776 l 1,45,-1
 133 883 l 1,46,-1
 156 922 l 1,47,-1
 244 881 l 1,48,-1
 307 856 l 1,49,-1
 370 881 l 1,50,-1
 458 922 l 1,51,-1
 481 883 l 1,44,-1
EndSplineSet
EndChar

